<?xml version="1.0" standalone="no"?>
<!DOCTYPE svg PUBLIC "-//W3C//DTD SVG 20010904//EN"
 "http://www.w3.org/TR/2001/REC-SVG-20010904/DTD/svg10.dtd">
<svg version="1.0" xmlns="http://www.w3.org/2000/svg"
 width="512.000000pt" height="512.000000pt" viewBox="0 0 512.000000 512.000000"
 preserveAspectRatio="xMidYMid meet">
<metadata>
Created by potrace 1.11, written by Peter Selinger 2001-2013
</metadata>
<g transform="translate(0.000000,512.000000) scale(0.100000,-0.100000)"
fill="#000000" stroke="none">
<path d="M1710 4757 l0 -282 -109 -23 c-377 -77 -714 -263 -987 -543 -265
-274 -429 -584 -511 -966 -26 -121 -28 -142 -28 -388 0 -246 2 -267 28 -388
82 -382 246 -692 511 -966 273 -280 610 -466 987 -543 l109 -23 0 -282 0 -283
280 0 280 0 0 2205 0 2205 270 0 270 0 0 -2205 0 -2205 280 0 280 0 0 283 0
283 93 18 c196 37 441 132 615 239 582 356 932 980 932 1662 0 608 -282 1181
-762 1546 -225 172 -518 304 -785 355 l-93 18 0 283 0 283 -830 0 -830 0 0
-283z m0 -2203 l0 -1346 -32 7 c-18 4 -78 23 -133 42 -402 139 -713 456 -850
866 -49 147 -68 267 -68 432 0 165 19 285 68 432 136 405 446 724 840 863 78
27 140 45 168 49 4 1 7 -605 7 -1345z m1803 1305 c255 -84 497 -259 663 -478
79 -105 185 -315 219 -436 73 -254 73 -526 0 -780 -34 -121 -140 -331 -219
-436 -78 -103 -215 -235 -317 -306 -127 -87 -323 -175 -461 -207 l-28 -6 0
1345 0 1345 28 -6 c15 -3 67 -19 115 -35z"/>
</g>
</svg>
