<svg xmlns="http://www.w3.org/2000/svg" xmlns:xlink="http://www.w3.org/1999/xlink" viewBox="0 0 56 51.96" width="56" height="52">
   <defs>
   <style>
   .cls-1 {
   fill: url(#linear-gradient);
   }
   </style>
   <linearGradient id="linear-gradient" x1="28" x2="28" y2="51.96" gradientUnits="userSpaceOnUse">
   <stop offset="0" stop-color="#39ffbb"/>
   <stop offset="1" stop-color="#28264d"/>
   </linearGradient>
   </defs>
   <path class="cls-1" d="M0,22.87c0-8.25,3.36-16,9-20.75a8.28,8.28,0,0,1,5-2,6.41,6.41,0,0,1,6.39,6.45,7.39,7.39,0,0,1-2.62,5.39,14.57,14.57,0,0,0-4.83,10.95c0,8.74,6.06,14.7,15,14.7s15.15-6,15.15-14.7a14.25,14.25,0,0,0-4.83-11,7.39,7.39,0,0,1-2.62-5.39A6.41,6.41,0,0,1,42,0a7.52,7.52,0,0,1,5,2c5.65,4.74,9,12.5,9,20.75C56,39.21,43.8,52,28,52S0,39.29,0,22.87Z"/>
</svg>
