<svg id="Isolation_Mode" data-name="Isolation Mode" xmlns="http://www.w3.org/2000/svg" width="173.411" height="216.903" viewBox="0 0 173.411 216.903">
  <title>vk</title>
  <path d="M-799.927-2214.175h98.5c32.411,0,60,15.877,59.973,47.985-.026,26.809-9.732,37.237-29.675,49.029,1.7,1.4,13.133,4.814,16.97,6.7a46.618,46.618,0,0,1,13.8,10.2c11.315,11.5,13.424,22.021,13.424,40.066,0,41.868-40.5,62.917-79.494,62.917h-93.917l.417-216.9Zm53.525,56.985-.007,28.167c25.371,0,49.211,3.342,49.211-24.167,0-25.468-26.97-21.272-49.229-21.272l.025,17.271Zm-.015,119.99c27.8,0,62.144,4.58,62.748-26.982.63-32.923-35.281-26.981-62.732-26.981l-.016,53.963Z" transform="translate(800.345 2214.175)" style="fill: #fff;fill-rule: evenodd"/>
</svg>
