<svg xmlns="http://www.w3.org/2000/svg" xmlns:xlink="http://www.w3.org/1999/xlink" viewBox="0 0 88.48 134.87" width="608" height="925" class="for-svg">
  <defs>
    <style>
      .cls-1 { isolation: isolate; } .cls-2 { fill: #373c48; } .cls-3 { fill: #292c36; } .cls-4 { fill: #4e5463; } .cls-11, .cls-5 { fill: #fff; } .cls-13, .cls-36, .cls-6 { fill: #ccc; } .cls-7 { fill: #a0a0a0; } .cls-8 { fill: #0ddf98; } .cls-9 { fill: #39ffbc; } .cls-10 { fill: #08c183; } .cls-11, .cls-12, .cls-13, .cls-14, .cls-16, .cls-17, .cls-18, .cls-20, .cls-21, .cls-22, .cls-23, .cls-24, .cls-25, .cls-26, .cls-27, .cls-28, .cls-29, .cls-30, .cls-31, .cls-32, .cls-33, .cls-34 { opacity: 0.4; } .cls-11, .cls-12, .cls-13 { mix-blend-mode: screen; } .cls-12 { fill: #a9d4ff; } .cls-14, .cls-16, .cls-17, .cls-18, .cls-20, .cls-21, .cls-22, .cls-23, .cls-24, .cls-25, .cls-26, .cls-27, .cls-28, .cls-30, .cls-31, .cls-32, .cls-33, .cls-34 { mix-blend-mode: multiply; } .cls-14 { fill: url(#linear-gradient); } .cls-15 { fill: #596177; } .cls-16 { fill: url(#linear-gradient-2); } .cls-17 { fill: url(#linear-gradient-3); } .cls-18 { fill: url(#linear-gradient-4); } .cls-19 { fill: #676767; } .cls-20 { fill: url(#linear-gradient-5); } .cls-21 { fill: url(#linear-gradient-6); } .cls-22 { fill: url(#linear-gradient-7); } .cls-23 { fill: url(#linear-gradient-8); } .cls-24 { fill: url(#linear-gradient-9); } .cls-25 { fill: url(#linear-gradient-10); } .cls-26 { fill: url(#linear-gradient-11); } .cls-27 { fill: url(#linear-gradient-12); } .cls-28 { fill: url(#linear-gradient-13); } .cls-29 { mix-blend-mode: overlay; fill: url(#linear-gradient-14); } .cls-30 { fill: url(#linear-gradient-15); } .cls-31 { fill: url(#linear-gradient-16); } .cls-32 { fill: url(#linear-gradient-17); } .cls-33 { fill: url(#linear-gradient-18); } .cls-34 { fill: url(#linear-gradient-19); } .cls-35 { fill: #54514f; } .cls-35, .cls-36, .cls-37, .cls-38, .cls-39, .cls-40, .cls-41, .cls-42, .cls-43, .cls-44, .cls-45, .cls-46, .cls-47, .cls-48, .cls-49, .cls-50, .cls-51, .cls-52, .cls-53, .cls-54, .cls-55, .cls-56, .cls-57, .cls-58, .cls-59, .cls-60, .cls-61, .cls-62, .cls-63, .cls-64 { fill-rule: evenodd; } .cls-37 { fill: #d9d0d0; } .cls-38 { fill: #ede8e8; } .cls-39 { fill: #fcfafa; } .cls-40 { fill: #f2eded; } .cls-41 { fill: #f7f4f4; } .cls-42 { fill: #93908e; } .cls-43 { fill: #bdbbba; } .cls-44 { fill: #e3dcdc; } .cls-45 { fill: #111214; } .cls-47 { fill: #20232e; } .cls-48 { fill: #181624; } .cls-49 { fill: #11101a; } .cls-50 { fill: #1f1c2e; } .cls-51 { fill: #262338; } .cls-52 { fill: #2f2c45; } .cls-53 { fill: #e8a476; } .cls-54 { fill: #db9669; } .cls-55 { fill: #d1d7f2; } .cls-56 { fill: #ff0143; } .cls-57 { fill: #d60138; } .cls-58 { fill: #e6edff; } .cls-59 { fill: #f1b287; } .cls-60 { fill: #361d07; } .cls-61 { fill: #4f2b0c; } .cls-62 { fill: #4a2b12; } .cls-63 { fill: #241304; } .cls-64 { fill: #bfc5e3; }
    </style>
    <linearGradient id="linear-gradient" x1="33.69" y1="102.84" x2="38.73" y2="111.56" gradientTransform="matrix(-1 0 0 1 67.33 0)" gradientUnits="userSpaceOnUse">
      <stop offset="0" stop-color="#fff"/>
      <stop offset=".1" stop-color="#fbf8f8"/>
      <stop offset=".24" stop-color="#efe5e5"/>
      <stop offset=".4" stop-color="#dcc6c6"/>
      <stop offset=".59" stop-color="#c29a9a"/>
      <stop offset=".79" stop-color="#a06363"/>
      <stop offset="1" stop-color="#772020"/>
    </linearGradient>
    <linearGradient id="linear-gradient-2" x1="-109.9" y1="44.08" x2="-108.11" y2="40.98" gradientTransform="matrix(-1 0 0 1 -81.12 0)" gradientUnits="userSpaceOnUse">
      <stop offset="0" stop-color="#596177"/>
      <stop offset=".06" stop-color="#50576b"/>
      <stop offset=".19" stop-color="#424857"/>
      <stop offset=".32" stop-color="#3a3f4c"/>
      <stop offset=".46" stop-color="#373c48"/>
      <stop offset=".5" stop-color="#464b56"/>
      <stop offset="1" stop-color="#fff"/>
    </linearGradient>
    <linearGradient id="linear-gradient-3" x1="-114.63" y1="47" x2="-112.84" y2="43.91" xlink:href="#linear-gradient-2"/>
    <linearGradient id="linear-gradient-4" x1="35.56" y1="48.85" x2="40.35" y2="40.56" gradientTransform="matrix(-1 0 0 1 67.33 0)" xlink:href="#linear-gradient-2"/>
    <linearGradient id="linear-gradient-5" x1="-136.93" y1="76.89" x2="-135.14" y2="73.8" xlink:href="#linear-gradient-2"/>
    <linearGradient id="linear-gradient-6" x1="-134.05" y1="79.14" x2="-131.63" y2="74.94" gradientTransform="matrix(-1 0 0 1 -81.12 0)" gradientUnits="userSpaceOnUse">
      <stop offset="0" stop-color="#fff"/>
      <stop offset=".09" stop-color="#f8fdfc"/>
      <stop offset=".22" stop-color="#e5f9f2"/>
      <stop offset=".38" stop-color="#c6f1e2"/>
      <stop offset=".55" stop-color="#9ae6cc"/>
      <stop offset=".74" stop-color="#63d8b0"/>
      <stop offset=".93" stop-color="#20c78f"/>
      <stop offset="1" stop-color="#08c183"/>
    </linearGradient>
    <linearGradient id="linear-gradient-7" x1="-130.55" y1="80.55" x2="-128.76" y2="77.45" xlink:href="#linear-gradient-2"/>
    <linearGradient id="linear-gradient-8" x1="-247.56" y1="97.21" x2="-245.77" y2="94.11" gradientTransform="matrix(-1 0 0 1 -217.58 0)" xlink:href="#linear-gradient-2"/>
    <linearGradient id="linear-gradient-9" x1="38.22" y1="102.03" x2="42.4" y2="94.81" gradientTransform="matrix(-1 0 0 1 67.33 0)" gradientUnits="userSpaceOnUse">
      <stop offset="0"/>
      <stop offset=".01" stop-color="#060606"/>
      <stop offset=".13" stop-color="#404040"/>
      <stop offset=".25" stop-color="#737373"/>
      <stop offset=".37" stop-color="#9e9e9e"/>
      <stop offset=".49" stop-color="#c1c1c1"/>
      <stop offset=".62" stop-color="#dcdcdc"/>
      <stop offset=".74" stop-color="#f0f0f0"/>
      <stop offset=".87" stop-color="#fbfbfb"/>
      <stop offset="1" stop-color="#fff"/>
    </linearGradient>
    <linearGradient id="linear-gradient-10" x1="20.7" y1="88.6" x2="65.09" y2="11.71" gradientTransform="matrix(-1 0 0 1 67.33 0)" gradientUnits="userSpaceOnUse">
      <stop offset="0" stop-color="#39ffbc"/>
      <stop offset="0" stop-color="#39ffbc"/>
      <stop offset=".11" stop-color="#23e4a3"/>
      <stop offset=".23" stop-color="#14d091"/>
      <stop offset=".34" stop-color="#0bc587"/>
      <stop offset=".46" stop-color="#08c183"/>
      <stop offset=".53" stop-color="#41cf9f"/>
      <stop offset=".59" stop-color="#73dcb9"/>
      <stop offset=".66" stop-color="#9ee7ce"/>
      <stop offset=".72" stop-color="#c1efe0"/>
      <stop offset=".79" stop-color="#dcf6ed"/>
      <stop offset=".86" stop-color="#f0fbf7"/>
      <stop offset=".93" stop-color="#fbfefd"/>
      <stop offset="1" stop-color="#fff"/>
    </linearGradient>
    <linearGradient id="linear-gradient-11" x1="42.43" y1="104.46" x2="46.6" y2="97.23" xlink:href="#linear-gradient-9"/>
    <linearGradient id="linear-gradient-12" x1="-238.47" y1="102.45" x2="-236.68" y2="99.35" gradientTransform="matrix(-1 0 0 1 -217.58 0)" xlink:href="#linear-gradient-2"/>
    <linearGradient id="linear-gradient-13" x1="-110.56" y1="49.96" x2="-108.13" y2="45.76" xlink:href="#linear-gradient-2"/>
    <linearGradient id="linear-gradient-14" x1="-335.88" y1="54.88" x2="-333.29" y2="50.4" gradientTransform="translate(370.51)" xlink:href="#linear-gradient-2"/>
    <linearGradient id="linear-gradient-15" x1="-103.55" y1="48.19" x2="-101.76" y2="45.1" xlink:href="#linear-gradient-2"/>
    <linearGradient id="linear-gradient-16" x1="42.62" y1="52.57" x2="47.41" y2="44.28" gradientTransform="matrix(-1 0 0 1 67.33 0)" xlink:href="#linear-gradient-2"/>
    <linearGradient id="linear-gradient-17" x1="-105.77" y1="52.06" x2="-103.99" y2="48.96" xlink:href="#linear-gradient-2"/>
    <linearGradient id="linear-gradient-18" x1="-101.21" y1="49.45" x2="-99.42" y2="46.35" xlink:href="#linear-gradient-2"/>
    <linearGradient id="linear-gradient-19" x1="37.69" y1="100.04" x2="42.07" y2="107.64" gradientTransform="matrix(-1 0 0 1 67.33 0)" gradientUnits="userSpaceOnUse">
      <stop offset="0" stop-color="#fff"/>
      <stop offset=".13" stop-color="#fbfbfb"/>
      <stop offset=".26" stop-color="#f0f0f0"/>
      <stop offset=".38" stop-color="#dcdcdc"/>
      <stop offset=".51" stop-color="#c1c1c1"/>
      <stop offset=".63" stop-color="#9e9e9e"/>
      <stop offset=".75" stop-color="#737373"/>
      <stop offset=".87" stop-color="#404040"/>
      <stop offset=".99" stop-color="#060606"/>
      <stop offset="1"/>
    </linearGradient>
  </defs>
  <g>
    <g>
      <g>
        <g>
          <path class="cls-2" d="M19.96 132.68l.01 2.19L.01 123.26 0 121.07l19.96 11.61z"/>
          <path class="cls-3" d="M49.59 115.52l.01 2.2-29.63 17.15-.01-2.19 29.63-17.16z"/>
          <path class="cls-4" d="M0 121.07l29.63-17.15 19.96 11.6-29.63 17.16L0 121.07z"/>
        </g>
        <g>
          <path class="cls-3" d="M3.59 128.31v.49l.06.11v.08l.08.11.06.08.11.1.07.07.14.11.07.05.24.16a5.52 5.52 0 0 0 5 0l.25-.16h.06l.15-.12.07-.07.11-.1.06-.08.08-.1.05-.08.06-.11V128.56v-.1-.09-.1 1.5a1.77 1.77 0 0 1-1 1.46 5.53 5.53 0 0 1-5 0 1.76 1.76 0 0 1-1-1.44v-1.5s.28-.02.28.02z"/>
          <path class="cls-2" d="M10.67 128.3v.48l-.06.11-.05.08-.08.1-.06.08-.11.1-.07.07-.15.12h-.06l-.25.16a5.52 5.52 0 0 1-5 0l-.24-.16-.07-.05-.14-.11-.07-.07-.11-.1-.06-.08-.25-.03v-.08l-.06-.11V128.52v-.11-.09a1.72 1.72 0 0 1 1-1.56 5.53 5.53 0 0 1 5 0 1.76 1.76 0 0 1 1 1.45s-.11.05-.11.09z"/>
        </g>
        <g>
          <path class="cls-3" d="M5.32 127.37v.25l.06.05.07.06.12.08a2.83 2.83 0 0 0 2.57 0l.13-.08.08-.06.05-.05v-.25a.46.46 0 0 0 0-.05v.77a.91.91 0 0 1-.54.75 2.83 2.83 0 0 1-2.57 0 .9.9 0 0 1-.53-.74v-.77a.45.45 0 0 0 .56.04z"/>
          <path class="cls-4" d="M8.94 127.36v.25l-.05.05-.08.06-.12.08a2.83 2.83 0 0 1-2.57 0l-.4.2-.07-.06-.06-.05v-.25a.88.88 0 0 1 .53-.8 2.83 2.83 0 0 1 2.57 0 .9.9 0 0 1 .53.74.46.46 0 0 1-.28-.22z"/>
        </g>
      </g>
      <g>
        <path class="cls-4" d="M20 121.7l.03 9.32-16.84-9.58-.03-9.31L20 121.7z"/>
        <path class="cls-2" d="M46.15 106.52l.03 9.31-26.15 15.19-.03-9.32 26.15-15.18z"/>
        <path class="cls-5" d="M3.16 112.13l26.15-15.19 16.84 9.58L20 121.7l-16.84-9.57z"/>
      </g>
    </g>
    <g>
      <path class="cls-6" d="M38.73 106.92l-17.69 10.23 3.4 2.01 14.29-8.25v-3.99z"/>
      <path class="cls-5" d="M38.76 110.89l3.35 2.04v-3.95l-3.38-2.06v3.99l.03-.02z"/>
      <path class="cls-7" d="M42.12 112.94l-.01-.01-3.35-2.04-.03.02-14.29 8.25v4l17.68-10.22z"/>
    </g>
    <path class="cls-8" d="M24.64 109.93l-.17 5.26-9.34-5.44-.03-5.37 9.54 5.55z"/>
    <path class="cls-9" d="M15.1 104.38l10.66-6.12 9.55 5.56-10.74 6.08-9.47-5.52z"/>
    <g>
      <path class="cls-8" d="M28.55 112.2l.03 9.31-4.1-2.38-.03-9.31 4.1 2.38z"/>
      <path class="cls-10" d="M39.21 106.08l.03 9.31-10.66 6.12-.03-9.31 10.66-6.12z"/>
      <path class="cls-9" d="M24.45 109.82l10.66-6.12 4.1 2.38-10.66 6.12-4.1-2.38z"/>
    </g>
    <path class="cls-2" d="M12.28 111.18l7.53-4.27.39-.09-7.53 4.27-.39.09z"/>
    <path class="cls-3" d="M20.12 107.06l3.44 7.67-7.23 4.1-3.44-7.67 7.23-4.1z"/>
    <g>
      <path class="cls-11" d="M12.89 111.16l1.82-1.03 8.18 3.11.67 1.49-2.33 1.32-7.42-2.83-.92-2.06z"/>
      <path class="cls-12" d="M16.6 109.06l5.33 2.02.96 2.16-8.18-3.11 1.89-1.07z"/>
      <path class="cls-11" d="M20.12 107.06l1.81 4.02-5.33-2.02 3.52-2zM15.3 116.54l3.03 1.16-2 1.13-1.03-2.29z"/>
      <path class="cls-13" d="M13.81 113.22l7.42 2.83-.85.48-6.13-2.33-.44-.98z"/>
      <path class="cls-12" d="M14.25 114.2l6.13 2.33-2.05 1.17-3.03-1.16-1.05-2.34z"/>
    </g>
    <path class="cls-14" d="M23.02 108.34h12.26l3.93-2.26-6.75-3.91-9.44 6.17z"/>
    <g>
      <path class="cls-15" d="M23 107.23l.02 1.11-7-4.07-.03-1.1 7.01 4.06z"/>
      <path class="cls-2" d="M32.57 101.74l.03 1.1-9.58 5.5-.02-1.11 9.57-5.49z"/>
      <path class="cls-4" d="M15.99 103.17l9.58-5.5 7 4.07-9.57 5.49-7.01-4.06z"/>
    </g>
    <g>
      <g>
        <path class="cls-2" d="M26.92 41a.89.89 0 0 1 .9.09l.14.09a2.74 2.74 0 0 1 1.11 2.24.81.81 0 0 1-.36.66l-.74.45.12-.09a.7.7 0 0 0 .09-.13 1 1 0 0 0 .07-.16 1.24 1.24 0 0 0 0-.21 2.74 2.74 0 0 0-1.11-2.24l-.14-.09-.12-.06H26.26z"/>
        <path class="cls-16" d="M26.92 41a.89.89 0 0 1 .9.09l.14.09a2.74 2.74 0 0 1 1.11 2.24.81.81 0 0 1-.36.66l-.74.45.12-.09a.7.7 0 0 0 .09-.13 1 1 0 0 0 .07-.16 1.24 1.24 0 0 0 0-.21 2.74 2.74 0 0 0-1.11-2.24l-.14-.09-.12-.06H26.26z"/>
        <path class="cls-2" d="M25.82 42.13a.8.8 0 0 1 .39-.67h.62l.12.06.14.09a2.74 2.74 0 0 1 1.11 2.24 1.24 1.24 0 0 1 0 .21 1 1 0 0 1-.07.16.7.7 0 0 1-.09.13l-.12.09a.89.89 0 0 1-.9-.08l-.14-.09a2.74 2.74 0 0 1-1.06-2.14z"/>
      </g>
      <g>
        <path class="cls-2" d="M31.65 43.95a.89.89 0 0 1 .9.09l.14.09a2.74 2.74 0 0 1 1.11 2.24.81.81 0 0 1-.36.66l-.74.45.12-.09a.63.63 0 0 0 .09-.13A.9.9 0 0 0 33 47a1.23 1.23 0 0 0 0-.21 2.74 2.74 0 0 0-1.11-2.24l-.14-.09-.12-.06H31.06z"/>
        <path class="cls-17" d="M31.65 43.95a.89.89 0 0 1 .9.09l.14.09a2.74 2.74 0 0 1 1.11 2.24.81.81 0 0 1-.36.66l-.74.45.12-.09a.63.63 0 0 0 .09-.13A.9.9 0 0 0 33 47a1.23 1.23 0 0 0 0-.21 2.74 2.74 0 0 0-1.11-2.24l-.14-.09-.12-.06H31.06z"/>
        <path class="cls-2" d="M30.55 45.06a.8.8 0 0 1 .39-.67h.57l.12.06.14.09a2.74 2.74 0 0 1 1.11 2.24A1.23 1.23 0 0 1 33 47a.9.9 0 0 1-.07.16.63.63 0 0 1-.09.13l-.12.09a.89.89 0 0 1-.9-.08l-.14-.09a2.74 2.74 0 0 1-1.13-2.15z"/>
      </g>
      <g>
        <path class="cls-6" d="M25.66 41.32a1.23 1.23 0 0 1 1.24.12l4.7 2.69a3.81 3.81 0 0 1 1.73 3 1.21 1.21 0 0 1-.51 1.11l-.95.55a.84.84 0 0 0 .12-.1l.09-.07a1.1 1.1 0 0 0 .1-.14.93.93 0 0 0 .06-.1 1.28 1.28 0 0 0 .07-.21v-.11a1.94 1.94 0 0 0 0-.38 3.81 3.81 0 0 0-1.73-3L26 42a2.05 2.05 0 0 0-.35-.16h-.76l-.15.06z"/>
        <path class="cls-18" d="M25.66 41.32a1.23 1.23 0 0 1 1.24.12l4.7 2.69a3.81 3.81 0 0 1 1.73 3 1.21 1.21 0 0 1-.51 1.11l-.95.55a.84.84 0 0 0 .12-.1l.09-.07a1.1 1.1 0 0 0 .1-.14.93.93 0 0 0 .06-.1 1.28 1.28 0 0 0 .07-.21v-.11a1.94 1.94 0 0 0 0-.38 3.81 3.81 0 0 0-1.73-3L26 42a2.05 2.05 0 0 0-.35-.16h-.76l-.15.06z"/>
        <path class="cls-19" d="M24.72 41.87l.15-.06h.73a2.05 2.05 0 0 1 .4.19l4.7 2.69a3.81 3.81 0 0 1 1.73 3 1.94 1.94 0 0 1 0 .38v.11a1.28 1.28 0 0 1-.07.21.93.93 0 0 1-.06.1 1.1 1.1 0 0 1-.1.14l-.09.07a1.13 1.13 0 0 1-1.35 0L25.94 46a3.81 3.81 0 0 1-1.73-3 1.21 1.21 0 0 1 .51-1.13z"/>
      </g>
      <g>
        <g>
          <g class="cls-1">
            <path class="cls-6" d="M61.27 76.42v9.25l-.6.35.01-9.25.59-.35z"/>
            <path class="cls-7" d="M60.68 76.77l-.01 9.25-.48-.28v-9.25l.49.28z"/>
            <path class="cls-19" d="M61.27 76.42l-.59.35-.49-.28.6-.35.48.28z"/>
          </g>
          <g>
            <path class="cls-7" d="M66.18 87.63v1.42l-10.04-5.81-.01-1.43 10.05 5.82z"/>
            <path class="cls-19" d="M66.75 87.29l.01 1.43-.58.33v-1.42l.57-.34z"/>
            <path class="cls-6" d="M56.13 81.81l.58-.33 10.04 5.81-.57.34-10.05-5.82z"/>
          </g>
          <g>
            <path class="cls-3" d="M55.43 80.77a.87.87 0 0 1 .87.09A2.69 2.69 0 0 1 57.52 83a.86.86 0 0 1-.36.78l-.47.28a.86.86 0 0 0 .36-.79 2.68 2.68 0 0 0-1.22-2.12A.87.87 0 0 0 55 81z"/>
            <path class="cls-15" d="M55.83 81.13c-.68-.39-1.23-.08-1.23.7a2.69 2.69 0 0 0 1.22 2.11c.68.39 1.22.08 1.23-.7a2.68 2.68 0 0 0-1.22-2.11z"/>
          </g>
          <g>
            <path class="cls-3" d="M57.88 81.91a.86.86 0 0 1 .87.09A2.69 2.69 0 0 1 60 84.11a.86.86 0 0 1-.36.78l-.47.27a.85.85 0 0 0 .36-.78 2.69 2.69 0 0 0-1.22-2.12.87.87 0 0 0-.87-.09z"/>
            <path class="cls-15" d="M58.28 82.27c-.68-.39-1.23-.08-1.23.7a2.7 2.7 0 0 0 1.22 2.11c.68.39 1.22.08 1.23-.7a2.69 2.69 0 0 0-1.22-2.11z"/>
          </g>
          <g class="cls-1">
            <path class="cls-2" d="M62.67 76.35l-.01 2.88-6.88 4.07.01-2.89 6.88-4.06z"/>
            <path class="cls-3" d="M55.79 80.41l-.01 2.89-1.71-1 .01-2.88 1.71.99z"/>
            <path class="cls-4" d="M62.67 76.35l-6.88 4.06-1.71-.99 6.88-4.06 1.71.99z"/>
          </g>
          <g class="cls-1">
            <path class="cls-2" d="M56.33 79.31l-.01 4.18-4.96 2.88.01-4.18 4.96-2.88z"/>
            <path class="cls-3" d="M51.37 82.19l-.01 4.18-3.4-1.97.01-4.18 3.4 1.97z"/>
            <path class="cls-4" d="M56.33 79.31l-4.96 2.88-3.4-1.97 4.96-2.88 3.4 1.97z"/>
          </g>
          <g class="cls-1">
            <path class="cls-2" d="M50.45 82.94l-.01 2.88-7.06 4.12.01-2.89 7.06-4.11z"/>
            <path class="cls-3" d="M43.39 87.05l-.01 2.89-1.71-1 .02-2.88 1.7.99z"/>
            <path class="cls-4" d="M50.45 82.94l-7.06 4.11-1.7-.99 7.06-4.11 1.7.99z"/>
          </g>
          <path class="cls-7" d="M52.75 78.39a.25.25 0 0 0-.15-.23.82.82 0 0 0-.74 0 .26.26 0 0 0-.15.21v1.57a.26.26 0 0 0 .15.21.81.81 0 0 0 .74 0 .26.26 0 0 0 .15-.21v-1.57z"/>
          <g class="cls-1">
            <path class="cls-6" d="M43.93 83.89V86l-.6.35.01-2.11.59-.35z"/>
            <path class="cls-7" d="M43.34 84.24l-.01 2.11-.48-.28v-2.11l.49.28z"/>
            <path class="cls-19" d="M43.93 83.89l-.59.35-.49-.28.6-.35.48.28z"/>
          </g>
          <g class="cls-1">
            <path class="cls-6" d="M61.27 74.29v2.11l-.6.35v-2.12l.6-.34z"/>
            <path class="cls-7" d="M60.67 74.63v2.12l-.48-.28v-2.12l.48.28z"/>
            <path class="cls-19" d="M61.27 74.29l-.6.34-.48-.28.6-.34.48.28z"/>
          </g>
          <g>
            <path class="cls-3" d="M60.34 83.51a.87.87 0 0 1 .87.09 2.69 2.69 0 0 1 1.22 2.12.86.86 0 0 1-.36.78l-.47.28A.86.86 0 0 0 62 86a2.69 2.69 0 0 0-1.22-2.12.87.87 0 0 0-.87-.09z"/>
            <path class="cls-15" d="M60.74 83.87c-.68-.39-1.23-.08-1.23.7a2.7 2.7 0 0 0 1.22 2.11c.68.39 1.22.07 1.23-.7a2.69 2.69 0 0 0-1.22-2.11z"/>
          </g>
          <g>
            <path class="cls-3" d="M62.79 85.19a.86.86 0 0 1 .87.09 2.68 2.68 0 0 1 1.22 2.12.86.86 0 0 1-.36.79l-.47.27a.86.86 0 0 0 .36-.78 2.69 2.69 0 0 0-1.22-2.12.87.87 0 0 0-.87-.09z"/>
            <path class="cls-15" d="M63.19 85.55c-.68-.39-1.23-.08-1.23.7a2.7 2.7 0 0 0 1.22 2.11c.68.39 1.22.07 1.23-.7a2.69 2.69 0 0 0-1.22-2.11z"/>
          </g>
          <g>
            <path class="cls-3" d="M65.24 86.82a.87.87 0 0 1 .87.09A2.69 2.69 0 0 1 67.33 89a.86.86 0 0 1-.36.78l-.47.28a.86.86 0 0 0 .36-.79 2.69 2.69 0 0 0-1.22-2.12.87.87 0 0 0-.87-.08z"/>
            <path class="cls-15" d="M65.64 87.18c-.68-.39-1.23-.08-1.23.7A2.69 2.69 0 0 0 65.63 90c.68.39 1.22.08 1.23-.7a2.69 2.69 0 0 0-1.22-2.12z"/>
          </g>
        </g>
        <g>
          <g>
            <path class="cls-2" d="M53.94 73.84a.89.89 0 0 1 .9.09L55 74a2.74 2.74 0 0 1 1.11 2.24.81.81 0 0 1-.36.66l-.74.45.12-.09a.68.68 0 0 0 .09-.13.84.84 0 0 0 .07-.16 1.25 1.25 0 0 0 0-.21 2.74 2.74 0 0 0-1.11-2.24l-.14-.09-.04-.12H53.38z"/>
            <path class="cls-20" d="M53.94 73.84a.89.89 0 0 1 .9.09L55 74a2.74 2.74 0 0 1 1.11 2.24.81.81 0 0 1-.36.66l-.74.45.12-.09a.68.68 0 0 0 .09-.13.84.84 0 0 0 .07-.16 1.25 1.25 0 0 0 0-.21 2.74 2.74 0 0 0-1.11-2.24l-.14-.09-.04-.12H53.38z"/>
            <path class="cls-2" d="M52.84 74.95a.8.8 0 0 1 .39-.67h.62l.12.06.14.09a2.74 2.74 0 0 1 1.11 2.24 1.25 1.25 0 0 1 0 .21.84.84 0 0 1-.07.16.68.68 0 0 1-.09.13l-.12.09a.89.89 0 0 1-.9-.08l-.04.01a2.74 2.74 0 0 1-1.16-2.24z"/>
          </g>
          <g>
            <path class="cls-9" d="M52.64 73.86a1.21 1.21 0 0 1 1.22.12l.19.12a3.72 3.72 0 0 1 1.51 3 1.1 1.1 0 0 1-.49.89l-5.34 3.11a.86.86 0 0 0 .16-.12.92.92 0 0 0 .13-.17 1.33 1.33 0 0 0 .09-.22 1.58 1.58 0 0 0 .05-.28 3.72 3.72 0 0 0-1.51-3l-.19-.12-.12-.19h-1.02z"/>
            <path class="cls-21" d="M52.58 73.75a1.21 1.21 0 0 1 1.22.12l.2.13a3.72 3.72 0 0 1 1.51 3 1.1 1.1 0 0 1-.49.89L49.66 81a.86.86 0 0 0 .16-.12.93.93 0 0 0 .18-.18 1.32 1.32 0 0 0 .09-.22 1.58 1.58 0 0 0 .05-.28 3.71 3.71 0 0 0-1.51-3l-.18-.2-.17-.09h-1.02z"/>
            <path class="cls-10" d="M46.8 77.86a1.08 1.08 0 0 1 .52-.91H48.33l.17.09.19.12a3.72 3.72 0 0 1 1.51 3 1.58 1.58 0 0 1-.05.28 1.33 1.33 0 0 1-.09.22.92.92 0 0 1-.13.17.86.86 0 0 1-.16.12 1.2 1.2 0 0 1-1.27.05l-.19-.12a3.72 3.72 0 0 1-1.51-3.02z"/>
          </g>
          <g>
            <path class="cls-2" d="M47.57 77.49a.89.89 0 0 1 .9.09l.14.09a2.74 2.74 0 0 1 1.11 2.24.82.82 0 0 1-.36.66l-.74.45.12-.09.09-.13a.89.89 0 0 0 .07-.16 1.15 1.15 0 0 0 0-.21 2.73 2.73 0 0 0-1.11-2.24l-.07-.19h-.77z"/>
            <path class="cls-22" d="M47.57 77.49a.89.89 0 0 1 .9.09l.14.09a2.74 2.74 0 0 1 1.11 2.24.82.82 0 0 1-.36.66l-.74.45.12-.09.09-.13a.89.89 0 0 0 .07-.16 1.15 1.15 0 0 0 0-.21 2.73 2.73 0 0 0-1.11-2.24l-.07-.19h-.77z"/>
            <path class="cls-2" d="M46.46 78.6a.8.8 0 0 1 .39-.67h.57l.12.06.14.09A2.73 2.73 0 0 1 49 80.36a1.15 1.15 0 0 1 0 .21.89.89 0 0 1-.07.16l-.09.13-.12.09a.88.88 0 0 1-.9-.08l-.14-.09a2.73 2.73 0 0 1-1.22-2.18z"/>
          </g>
        </g>
      </g>
      <g>
        <g>
          <path class="cls-2" d="M28.12 94.16a.89.89 0 0 1 .9.09l.14.09a2.74 2.74 0 0 1 1.11 2.24.82.82 0 0 1-.36.66l-.74.45.12-.09a.72.72 0 0 0 .09-.13.89.89 0 0 0 .07-.16 1.23 1.23 0 0 0 0-.21 2.74 2.74 0 0 0-1.11-2.24l-.14-.09-.12-.06H27.51z"/>
          <path class="cls-23" d="M28.12 94.16a.89.89 0 0 1 .9.09l.14.09a2.74 2.74 0 0 1 1.11 2.24.82.82 0 0 1-.36.66l-.74.45.12-.09a.72.72 0 0 0 .09-.13.89.89 0 0 0 .07-.16 1.23 1.23 0 0 0 0-.21 2.74 2.74 0 0 0-1.11-2.24l-.14-.09-.12-.06H27.51z"/>
          <path class="cls-2" d="M27 95.26a.8.8 0 0 1 .39-.67h.57l.12.06.14.09A2.74 2.74 0 0 1 29.53 97a1.23 1.23 0 0 1 0 .21.89.89 0 0 1-.07.16.72.72 0 0 1-.09.13l-.12.09a.88.88 0 0 1-.9-.08l-.14-.09A2.74 2.74 0 0 1 27 95.26z"/>
        </g>
        <path class="cls-5" d="M23.27 96.82a1.54 1.54 0 0 1 .65-1.42 1 1 0 0 1 .19-.07l.14-.05a1.29 1.29 0 0 1 .23 0h.14a1.75 1.75 0 0 1 .28.06h.14a2.47 2.47 0 0 1 .44.2 4.85 4.85 0 0 1 2.2 3.81v3.46l-4.41-2.54z"/>
        <path class="cls-6" d="M27.68 99.87l-4.41-2.48-2.3 1.3 2.98 4.94 3.73-3.76z"/>
        <path class="cls-7" d="M27.68 99.87v-.51a4.85 4.85 0 0 0-2.2-3.81 2.47 2.47 0 0 0-.44-.2h-.14a1.75 1.75 0 0 0-.28-.06h-.14a1.29 1.29 0 0 0-.23 0l-.14.05a1 1 0 0 0-.19.07L26.29 94a1.55 1.55 0 0 1 1.56.15A4.85 4.85 0 0 1 30 98v3.46l-2.37 1.38-1.49.88v-3z"/>
        <path class="cls-24" d="M27.68 99.87v-.51a4.85 4.85 0 0 0-2.2-3.81 2.47 2.47 0 0 0-.44-.2h-.14a1.75 1.75 0 0 0-.28-.06h-.14a1.29 1.29 0 0 0-.23 0l-.14.05a1 1 0 0 0-.19.07L26.29 94a1.55 1.55 0 0 1 1.56.15A4.85 4.85 0 0 1 30 98v3.46l-2.37 1.38-1.49.88v-3z"/>
        <g>
          <path class="cls-8" d="M22.14.28a2.33 2.33 0 0 1 2.35.23 7.24 7.24 0 0 1 3.29 5.7L27.71 98a2.31 2.31 0 0 1-1 2.12l-2.37 1.38a1.61 1.61 0 0 0 .39-.32 1.94 1.94 0 0 0 .3-.46 2.61 2.61 0 0 0 .19-.59 3.77 3.77 0 0 0 .07-.72l.06-91.81a7.24 7.24 0 0 0-3.29-5.7l-.34-.18h-.11l-.22-.09h-.12l-.2-.05h-1.12l-.11.05-.12.06z"/>
          <path class="cls-25" d="M22.14.22a2.33 2.33 0 0 1 2.35.23 7.24 7.24 0 0 1 3.29 5.7L27.71 98a2.31 2.31 0 0 1-1 2.12l-2.37 1.38a1.61 1.61 0 0 0 .39-.32 1.94 1.94 0 0 0 .3-.46 2.61 2.61 0 0 0 .19-.59 3.77 3.77 0 0 0 .07-.72l.06-91.81a7.24 7.24 0 0 0-3.29-5.7l-.34-.18h-.11l-.22-.09h-.12l-.2-.05h-1.12l-.11.05-.12.06z"/>
          <path class="cls-9" d="M18.81 3.77a2.31 2.31 0 0 1 1-2.12l.12-.06.07-.05h1.12l.2.05h.12l.22.09h.11l.34.18a7.24 7.24 0 0 1 3.29 5.7l-.06 91.81a3.77 3.77 0 0 1-.07.72 2.61 2.61 0 0 1-.19.59 1.94 1.94 0 0 1-.3.46 1.61 1.61 0 0 1-.39.32 2.32 2.32 0 0 1-2.36-.22 7.25 7.25 0 0 1-3.29-5.7z"/>
        </g>
        <path class="cls-7" d="M20.95 97.15a1.55 1.55 0 0 1 1.56.15 4.85 4.85 0 0 1 2.2 3.81v.46l1.47-.84v3l-1.48.87-.46.26-1.91 1.11v-3.46a4.85 4.85 0 0 0-2.2-3.81 2.54 2.54 0 0 0-.44-.2h-.14a1.75 1.75 0 0 0-.28-.06h-.14a1.33 1.33 0 0 0-.23 0l-.14.05a1.14 1.14 0 0 0-.19.07z"/>
        <path class="cls-26" d="M20.95 97.15a1.55 1.55 0 0 1 1.56.15 4.85 4.85 0 0 1 2.2 3.81v.46l1.47-.84v3l-1.48.87-.46.26-1.91 1.11v-3.46a4.85 4.85 0 0 0-2.2-3.81 2.54 2.54 0 0 0-.44-.2h-.14a1.75 1.75 0 0 0-.28-.06h-.14a1.33 1.33 0 0 0-.23 0l-.14.05a1.14 1.14 0 0 0-.19.07z"/>
        <path class="cls-5" d="M17.93 99.94a1.54 1.54 0 0 1 .65-1.42 1.14 1.14 0 0 1 .19-.07l.14-.05a1.3 1.3 0 0 1 .23 0h.14a1.75 1.75 0 0 1 .28.06h.14a2.54 2.54 0 0 1 .44.2 4.85 4.85 0 0 1 2.2 3.81v3.46l-4.41-2.54z"/>
        <g>
          <path class="cls-2" d="M19 99.39a.89.89 0 0 1 .9.09l.14.09a2.74 2.74 0 0 1 1.11 2.24.81.81 0 0 1-.36.66l-.74.45.12-.09.09-.13a.9.9 0 0 0 .07-.16 1.14 1.14 0 0 0 0-.21 2.73 2.73 0 0 0-1-2.33l-.14-.09-.12-.06H18.5z"/>
          <path class="cls-27" d="M19 99.39a.89.89 0 0 1 .9.09l.14.09a2.74 2.74 0 0 1 1.11 2.24.81.81 0 0 1-.36.66l-.74.45.12-.09.09-.13a.9.9 0 0 0 .07-.16 1.14 1.14 0 0 0 0-.21 2.73 2.73 0 0 0-1-2.33l-.14-.09-.12-.06H18.5z"/>
          <path class="cls-2" d="M17.93 100.5a.8.8 0 0 1 .39-.67h.57l.12.06.14.09a2.73 2.73 0 0 1 1.11 2.24 1.14 1.14 0 0 1 0 .21.9.9 0 0 1-.07.16l-.09.13-.12.09a.88.88 0 0 1-.9-.08l-.14-.09a2.74 2.74 0 0 1-1.01-2.14z"/>
        </g>
      </g>
      <g>
        <path class="cls-6" d="M29.08 44.57a1.21 1.21 0 0 1 1.22.12l.19.12a3.72 3.72 0 0 1 1.51 3 1.1 1.1 0 0 1-.49.89l-5.34 3.11a.86.86 0 0 0 .16-.12 1 1 0 0 0 .13-.17 1.28 1.28 0 0 0 .09-.22 1.68 1.68 0 0 0 .05-.28 3.72 3.72 0 0 0-1.51-3l-.09-.23-.17-.09H23.81z"/>
        <path class="cls-28" d="M29.08 44.57a1.21 1.21 0 0 1 1.22.12l.19.12a3.72 3.72 0 0 1 1.51 3 1.1 1.1 0 0 1-.49.89l-5.34 3.11a.86.86 0 0 0 .16-.12 1 1 0 0 0 .13-.17 1.28 1.28 0 0 0 .09-.22 1.68 1.68 0 0 0 .05-.28 3.72 3.72 0 0 0-1.51-3l-.09-.23-.17-.09H23.81z"/>
        <path class="cls-7" d="M23.25 48.57a1.08 1.08 0 0 1 .52-.91H24.78l.17.09.19.12a3.72 3.72 0 0 1 1.51 3 1.68 1.68 0 0 1-.05.28 1.28 1.28 0 0 1-.09.22 1 1 0 0 1-.13.17.86.86 0 0 1-.16.12 1.2 1.2 0 0 1-1.23-.11l-.19-.12a3.71 3.71 0 0 1-1.55-2.86z"/>
      </g>
      <g>
        <path class="cls-6" d="M30.27 46.39a1.27 1.27 0 0 0-1.28.12l-.2.13a3.9 3.9 0 0 0-1.59 3.2 1.16 1.16 0 0 0 .51.94l15.13 8.84a.83.83 0 0 1-.17-.13 1.07 1.07 0 0 1-.13-.18 1.31 1.31 0 0 1-.1-.23 1.75 1.75 0 0 1-.06-.3 3.91 3.91 0 0 1 1.59-3.2l.2-.13.18-.09h1.07z"/>
        <path class="cls-29" d="M30.27 46.39a1.27 1.27 0 0 0-1.28.12l-.2.13a3.9 3.9 0 0 0-1.59 3.2 1.16 1.16 0 0 0 .51.94l15.13 8.84a.83.83 0 0 1-.17-.13 1.07 1.07 0 0 1-.13-.18 1.31 1.31 0 0 1-.1-.23 1.75 1.75 0 0 1-.06-.3 3.91 3.91 0 0 1 1.59-3.2l.2-.13.18-.09h1.07z"/>
        <path class="cls-5" d="M45.91 56.17a1.14 1.14 0 0 0-.55-1h-1.07l-.18.09-.2.13a3.91 3.91 0 0 0-1.59 3.2 1.75 1.75 0 0 0 .06.3 1.31 1.31 0 0 0 .1.23 1.07 1.07 0 0 0 .13.18.83.83 0 0 0 .17.13 1.26 1.26 0 0 0 1.29-.12l.2-.13a3.9 3.9 0 0 0 1.64-3.01z"/>
      </g>
      <path class="cls-2" d="M40.11 58a1.16 1.16 0 0 1-.52-.94 3.92 3.92 0 0 1 1.6-3.21l.2-.13a1.39 1.39 0 0 1 1.09-.2l-.29-.17a1.27 1.27 0 0 0-1.28.12l-.2.13a3.9 3.9 0 0 0-1.59 3.2 1.16 1.16 0 0 0 .51.94l.47.27zM30.54 52.42a1.16 1.16 0 0 1-.51-.94 3.92 3.92 0 0 1 1.59-3.21l.2-.13a1.39 1.39 0 0 1 1.09-.2l-.29-.17a1.27 1.27 0 0 0-1.28.12l-.2.13a3.91 3.91 0 0 0-1.59 3.2 1.16 1.16 0 0 0 .51.94l.47.27z"/>
      <g>
        <path class="cls-2" d="M20.57 45.14a.89.89 0 0 1 .9.09l.14.09a2.74 2.74 0 0 1 1.11 2.24.81.81 0 0 1-.36.66l-.74.45.12-.09.09-.13a.88.88 0 0 0 .07-.16A1.13 1.13 0 0 0 22 48a2.74 2.74 0 0 0-1.11-2.24l-.14-.09-.12-.06h-.68z"/>
        <path class="cls-30" d="M20.57 45.14a.89.89 0 0 1 .9.09l.14.09a2.74 2.74 0 0 1 1.11 2.24.81.81 0 0 1-.36.66l-.74.45.12-.09.09-.13a.88.88 0 0 0 .07-.16A1.13 1.13 0 0 0 22 48a2.74 2.74 0 0 0-1.11-2.24l-.14-.09-.12-.06h-.68z"/>
        <path class="cls-2" d="M19.46 46.25a.8.8 0 0 1 .39-.67h.57l.12.06.14.09A2.74 2.74 0 0 1 22 48a1.13 1.13 0 0 1 0 .21.88.88 0 0 1-.07.16l-.09.13-.12.09a.89.89 0 0 1-.9-.08l-.14-.09a2.74 2.74 0 0 1-1.22-2.17z"/>
      </g>
      <g>
        <path class="cls-6" d="M18.6 45a1.23 1.23 0 0 1 1.24.12l4.7 2.69a3.81 3.81 0 0 1 1.73 3 1.21 1.21 0 0 1-.51 1.19l-.95.55a.9.9 0 0 0 .12-.1l.09-.07a1 1 0 0 0 .09-.15l.07-.1a1.39 1.39 0 0 0 .07-.21v-.11a2 2 0 0 0 0-.38 3.81 3.81 0 0 0-1.73-3l-4.7-2.69a2 2 0 0 0-.35-.16h-.73l-.15.06z"/>
        <path class="cls-31" d="M18.6 45a1.23 1.23 0 0 1 1.24.12l4.7 2.69a3.81 3.81 0 0 1 1.73 3 1.21 1.21 0 0 1-.51 1.19l-.95.55a.9.9 0 0 0 .12-.1l.09-.07a1 1 0 0 0 .09-.15l.07-.1a1.39 1.39 0 0 0 .07-.21v-.11a2 2 0 0 0 0-.38 3.81 3.81 0 0 0-1.73-3l-4.7-2.69a2 2 0 0 0-.35-.16h-.73l-.15.06z"/>
        <path class="cls-6" d="M17.66 45.59l.15-.06h.73a2 2 0 0 1 .35.16l4.7 2.69a3.81 3.81 0 0 1 1.73 3 2 2 0 0 1 0 .38v.11a1.39 1.39 0 0 1-.07.21l-.07.1a1 1 0 0 1-.09.15l-.09.07a1.13 1.13 0 0 1-1.35 0l-4.7-2.69a3.81 3.81 0 0 1-1.73-3 1.21 1.21 0 0 1 .44-1.12z"/>
      </g>
      <g>
        <path class="cls-2" d="M22.79 49a.89.89 0 0 1 .9.09l.14.09a2.74 2.74 0 0 1 1.11 2.24.81.81 0 0 1-.36.66l-.74.45.12-.09a.66.66 0 0 0 .09-.13.93.93 0 0 0 .07-.16 1.27 1.27 0 0 0 0-.21 2.74 2.74 0 0 0-1.11-2.24l-.14-.09-.12-.06H22.13z"/>
        <path class="cls-32" d="M22.79 49a.89.89 0 0 1 .9.09l.14.09a2.74 2.74 0 0 1 1.11 2.24.81.81 0 0 1-.36.66l-.74.45.12-.09a.66.66 0 0 0 .09-.13.93.93 0 0 0 .07-.16 1.27 1.27 0 0 0 0-.21 2.74 2.74 0 0 0-1.11-2.24l-.14-.09-.12-.06H22.13z"/>
        <path class="cls-2" d="M21.69 50.11a.8.8 0 0 1 .39-.67h.62l.12.06.14.09a2.74 2.74 0 0 1 1.11 2.24 1.27 1.27 0 0 1 0 .21.93.93 0 0 1-.07.16.66.66 0 0 1-.09.13l-.12.09a.89.89 0 0 1-.9-.08l-.14-.09a2.73 2.73 0 0 1-1.06-2.14z"/>
      </g>
      <g>
        <path class="cls-2" d="M18.22 46.4a.89.89 0 0 1 .9.09l.14.09a2.74 2.74 0 0 1 1.11 2.24.82.82 0 0 1-.36.66l-.74.45.12-.09a.69.69 0 0 0 .09-.13.85.85 0 0 0 .07-.16 1.24 1.24 0 0 0 0-.21A2.74 2.74 0 0 0 18.52 47l-.14-.09-.12-.06H17.69z"/>
        <path class="cls-33" d="M18.22 46.4a.89.89 0 0 1 .9.09l.14.09a2.74 2.74 0 0 1 1.11 2.24.82.82 0 0 1-.36.66l-.74.45.12-.09a.69.69 0 0 0 .09-.13.85.85 0 0 0 .07-.16 1.24 1.24 0 0 0 0-.21A2.74 2.74 0 0 0 18.52 47l-.14-.09-.12-.06H17.69z"/>
        <path class="cls-2" d="M17.12 47.51a.8.8 0 0 1 .39-.67h.64l.12.06.14.09a2.74 2.74 0 0 1 1.11 2.24 1.24 1.24 0 0 1 0 .21.85.85 0 0 1-.07.16.69.69 0 0 1-.09.13l-.12.09a.89.89 0 0 1-.9-.08l-.14-.09a2.73 2.73 0 0 1-1.08-2.14z"/>
      </g>
      <path class="cls-9" d="M52.87 67.58a13.32 13.32 0 0 0-6-10.45l-1.73-1h-.6l-.15.07h-.09a2.66 2.66 0 0 0-1.3 2.09 1.38 1.38 0 0 0 0 .26v.08a1.1 1.1 0 0 0 0 .14v.07l.06.09.06.05h.16L46 60.71c1.71 1 3.48 4.3 3.48 6.26v8.71a.64.64 0 0 0 0 .11.63.63 0 0 0 0 .11.8.8 0 0 0 0 .08.72.72 0 0 0 .06.11v.07l.1.11.05.06a1.5 1.5 0 0 0 .22.15 2.66 2.66 0 0 0 2.41 0 1.46 1.46 0 0 0 .22-.15l.05-.06.1-.11v-.07a.77.77 0 0 0 .06-.11.58.58 0 0 0 0-.08z"/>
    </g>
    <path class="cls-34" d="M22.33 105.95h2.9l7.34-4.21-2.52-1.46-.01 1.16-7.71 4.51z"/>
    <path class="cls-5" d="M15.86 119.16h3.65l2.65-1.35-1.12-.66 3.43-1.96-.7-.39-7.91 4.36z"/>
    <path class="cls-15" d="M20.2 106.82l3.58 8-7.53 4.27-3.58-8zm3.36 7.91l-3.44-7.67-7.23 4.1 3.44 7.67z"/>
    <path class="cls-2" d="M12.67 111.09l3.58 7.98-.39.09-3.58-7.98.39-.09z"/>
  </g>
  <g class="cheerman">
    <g>
      <g>
        <g>
          <path class="cls-35" d="M67.27 89.86a12.73 12.73 0 0 0-4.38-2.15 9.28 9.28 0 0 0-4.19-.2l.21.33a9.87 9.87 0 0 1 4 .31 12.47 12.47 0 0 1 4.25 2.09 20.51 20.51 0 0 1 6.34 8.9h.3c-1.66-4.04-3.8-7.27-6.53-9.28z"/>
          <path class="cls-36" d="M69.6 92.18a24.48 24.48 0 0 1 4.16 7l.35-.43a25.11 25.11 0 0 0-3.78-6.52L70.2 92a14.15 14.15 0 0 0-7-4.65 11.32 11.32 0 0 0-3.1-.35 6.26 6.26 0 0 0-1.06.08l-.35.43a6.74 6.74 0 0 1 .91-.08h.51a11.55 11.55 0 0 1 2.82.43 12.78 12.78 0 0 1 3 1.29h.08a15.51 15.51 0 0 1 3.59 3.03z"/>
        </g>
        <g>
          <path class="cls-37" d="M62.69 87.79h-.43l.17.49.35.09c2.33.62 5.55 2.29 8.3 6.59l.37-.07a13.88 13.88 0 0 0-8.76-7.1z"/>
          <path class="cls-38" d="M65.5 89a14.67 14.67 0 0 1 2.85 2.08 19.38 19.38 0 0 1 3.1 3.76l.61-.74a18.72 18.72 0 0 0-3.7-4.29 14.64 14.64 0 0 0-2.25-1.55A12.67 12.67 0 0 0 62.9 87l-.61.74A12.68 12.68 0 0 1 65.5 89z"/>
        </g>
      </g>
      <g>
        <path class="cls-39" d="M49.25 79.43l2.54-3.08a.92.92 0 0 0-1 .2l-2.54 3.08a.93.93 0 0 1 1-.2z"/>
        <path class="cls-40" d="M44.69 83.08a2 2 0 0 0 .23 2l.64-.62a1.67 1.67 0 0 1-.19-1.24.73.73 0 0 1 .81-.46c-.5-.03-1.18-.17-1.49.32z"/>
        <path class="cls-39" d="M43.93 85.89l2.54-3.08a.92.92 0 0 0-1 .2L43 86.09a.93.93 0 0 1 .93-.2z"/>
        <path class="cls-41" d="M52.93 81.94c-.33-.45-.66-.89-1-1.34a7.37 7.37 0 0 0-1-1.2 3.69 3.69 0 0 0-1.45-.86L46 82.78a3.75 3.75 0 0 1 1.49.88 7.41 7.41 0 0 1 1 1.18l1 1.33 1.47-1.78 2-2.47z"/>
        <path class="cls-41" d="M49.07 85.3c-.34-.34-.71-1-1-1.34a3.84 3.84 0 0 0-.61-.62 2.8 2.8 0 0 0-1-.53L45 84.6l-1.06 1.29a3.21 3.21 0 0 1 1.48 1 18.33 18.33 0 0 0 1.16 1.5z"/>
        <path class="cls-40" d="M58.9 100.4c-.57-1.17-1.16-2.32-1.79-3.45s-1.44-2.48-2.24-3.67c-1.51-2.26-3.18-4.42-4.8-6.59l-.87-1.19c-.1-.13-.15-.21 0-.35l-.77.93-1.77 2.14c-.12.14-.06.22 0 .35 1.46 2 2.95 3.89 4.37 5.88a57.88 57.88 0 0 1 3.97 6.28c1.11 2.06 2.11 4.18 3.05 6.32l.06.13c.23.52.68 1.32.37 1.88l-.07.1 2.54-3.08.05-.08c.45-.94-1.7-4.79-2.1-5.6z"/>
        <path class="cls-41" d="M54.45 78.93l-.81-1.09a4.81 4.81 0 0 0-.76-.87 2.9 2.9 0 0 0-1.08-.62l-2.54 3.08a3 3 0 0 1 1.18.71l.07.07a11.56 11.56 0 0 1 1 1.33 2.77 2.77 0 0 0 .36.42z"/>
        <path class="cls-40" d="M65.2 96a64.55 64.55 0 0 0-4.79-8.85c-1.53-2.32-3.19-4.5-4.87-6.73l-.73-1-.29-.42a1.93 1.93 0 0 0-.14-.22l-2.43 3a.22.22 0 0 0 0 .31c1.66 2.24 3 4 4.22 5.68a60.41 60.41 0 0 1 5.59 9.42c.4.83.81 1.72 1.25 2.69l.65 1.48v.07a1.24 1.24 0 0 1 0 1.2l.94-1.14c.47-.57 1.94-1.7 1.74-2.73A16.23 16.23 0 0 0 65.2 96z"/>
        <path class="cls-39" d="M46 82.78l3.5-4.25a1.18 1.18 0 0 0-1.24.25L44.72 83a1.18 1.18 0 0 1 1.28-.22z"/>
        <path class="cls-38" d="M60.35 92.59a64.68 64.68 0 0 0-4.23-6.38c-1.22-1.65-2.48-3.26-3.67-4.92l-3.5 4.25 1.41 1.9c1.22 1.62 2.45 3.24 3.62 4.9a56.89 56.89 0 0 1 3.15 5c.68 1.22 1.31 2.46 1.92 3.72.47 1 2.58 4.72 2 5.74l-.08.13 3.11-3.77c.69-.84.79-1 .37-2.21a78.63 78.63 0 0 0-4.1-8.36z"/>
        <path class="cls-40" d="M45.63 82.72l-.65.37-.15.71c.54-1 1.49-.54 2.69.58A14.73 14.73 0 0 1 49 86.25l.41-.07-.41-.65-.51-.69a7.41 7.41 0 0 0-1-1.18 3.75 3.75 0 0 0-1.49-.88 1.92 1.92 0 0 0-.37-.06z"/>
        <path class="cls-39" d="M49.46 78.54a1.18 1.18 0 0 0-1.24.25L44.72 83a1.18 1.18 0 0 1 1.28-.22 3.75 3.75 0 0 1 1.49.88 7.41 7.41 0 0 1 1 1.18l1 1.33 1.47-1.78 2-2.47c-.33-.45-.66-.89-1-1.34a7.37 7.37 0 0 0-1-1.2 3.7 3.7 0 0 0-1.45-.86z"/>
      </g>
      <g>
        <path class="cls-41" d="M77.6 95.6h-3.81l-2.65-.08-1.63-.05h-.6L65 95.2a.46.46 0 0 0-.19 0 3.5 3.5 0 0 0-.77.49 17 17 0 0 0-1.6 1.5c-.35.37-.7.74-1 1.13l-.49.56-.4.47 13 .4c.69-.84 4.05-4.15 4.05-4.15z"/>
        <path class="cls-40" d="M77.5 95.94l.07-.06.15-.11s.13-.08.17-.07l-.32-.05a.19.19 0 0 0-.11 0 2.58 2.58 0 0 0-.6.44c-.29.25-1.25 1.25-1.25 1.25-.19.21-.39.42-.58.63l-.12.14-.16.19-.61.71-.15.17c-.18.22-.37.44-.55.67H73.87c.58-.7 1.13-1.34 1.63-1.91.77-.88 1.43-1.56 1.86-2zM60.49 99.41l-.97 1.18 13 .41.97-1.18-13-.41z"/>
        <path class="cls-38" d="M79.67 97a4.28 4.28 0 0 0-.41-.54 2.73 2.73 0 0 0-1.21-.76h-.11s-.11 0-.27.13a27.14 27.14 0 0 0-3.76 4.1 4.87 4.87 0 0 1 2.36 2.78c.19.51.55.9.24 1.28.63-.77 1.24-1.55 1.83-2.35.35-.47.56-.78.63-.89a5.86 5.86 0 0 0 1.16-2.35 2.23 2.23 0 0 0-.46-1.4z"/>
        <path class="cls-38" d="M72.95 101.07l1-1.18a1.8 1.8 0 0 0-.43-.07l-1 1.18h.21z"/>
        <path class="cls-40" d="M69.42 106.11a30.87 30.87 0 0 1 3.53-5 2 2 0 0 0-.43-.07c-.31.37-.6.74-.89 1.11l-.65.83c-.45.56-1 1.15-1.38 1.76-.12.18-.41.64-.6 1a2.18 2.18 0 0 0-.14.38.31.31 0 0 0 0 .18l.33.05c.01-.1.21-.19.23-.24z"/>
        <path class="cls-41" d="M68.92 106a7.87 7.87 0 0 1 .79-1.34c.3-.46.64-.9 1-1.34.62-.78 1.21-1.58 1.85-2.35l-13-.4a31.71 31.71 0 0 0-2.5 3.43c-.17.27-.33.55-.48.83a4.68 4.68 0 0 0-.23.5 1.47 1.47 0 0 0-.09.35.25.25 0 0 0 .06.23l11.32 1 1.25-.57c-.03-.14.02-.27.03-.34z"/>
        <path class="cls-38" d="M75.24 102.58a4.72 4.72 0 0 0-.85-.92 3.88 3.88 0 0 0-1.45-.59 39.82 39.82 0 0 0-3.62 4.93.71.71 0 0 0-.1.32s3.05 3.38 1.36 3.32a.74.74 0 0 0 .24 0 1 1 0 0 0 .39-.11 2.64 2.64 0 0 0 .42-.27c.2-.15.4-.32.58-.5a35.84 35.84 0 0 0 2.47-2.62l.53-.63.33-.39a1.77 1.77 0 0 0 .2-1.64 4.68 4.68 0 0 0-.5-.9z"/>
        <path class="cls-44" d="M76.14 101.6a4.41 4.41 0 0 0-2.2-1.71l-1 1.18a4.11 4.11 0 0 1 1.87 1.27c.51.65 1.27 1.78.83 2.62l-.09.14 1-1.18c.51-.64-.02-1.75-.41-2.32z"/>
        <path class="cls-37" d="M71.12 108a3.38 3.38 0 0 0-1.86-1.67 3.11 3.11 0 0 0-.37-.06l-12.57-.39 1.43 3 12.82.79c.77-.02 1.02-.76.55-1.67z"/>
      </g>
      <path class="cls-37" d="M58.37 107.85c-4.3-9.85-6.45-12.18-11.71-19.27a.42.42 0 0 1-.1-.19 13.54 13.54 0 0 1-1-1.26 3.86 3.86 0 0 0-.33-.39 3.07 3.07 0 0 0-1.33-.84 1.13 1.13 0 0 0-.71 0c-.62.25-.57 1.2.12 2.13.24.32.42.56.52.72a8.85 8.85 0 0 1 .56.73c4.92 6.61 6.91 8.72 11 18 .65 1.48 2.24 1.41 3.47 1.41.03-.26-.32-.66-.49-1.04z"/>
    </g>
    <g>
      <g>
        <path class="cls-45" d="M76.33 117.88a5.55 5.55 0 0 0 .13 1.66c.15.41.38.79.55 1.32s.24.85.36 1.38.25.77.52.92a7.4 7.4 0 0 0 2.15.47 1.83 1.83 0 0 0 .87-.14 3.55 3.55 0 0 0 1-.58c.09-.08.05-.55-.06-.94a6.16 6.16 0 0 0-1-1.9c-.24-.4-.46-.79-.76-1.26a8.29 8.29 0 0 1-1-1.68l-2.15.58z"/>
        <path class="cls-46" d="M76.33 117.88a5.55 5.55 0 0 0 .13 1.66c.15.41.38.79.55 1.32s.24.85.36 1.38.25.77.52.92a7.4 7.4 0 0 0 2.15.47 1.83 1.83 0 0 0 .87-.14 3.55 3.55 0 0 0 1-.58c.08-.07.06-.47 0-.83a2.28 2.28 0 0 1-1.9.61c-1.54-.29-1.56-.94-2-2.66a2.41 2.41 0 0 0 1.35-1.38c-.65.47-1.42.76-2 .39l-.55-1.3z"/>
        <path class="cls-47" d="M79.77 118.67c-.44.73-.15.9-1 1.32a6.25 6.25 0 0 0 1.32 1.72c.16.36.34.85 1 .64 1.23-.38 0-1.24 0-1.28a13 13 0 0 0-1.32-2.4z"/>
      </g>
      <g>
        <path class="cls-45" d="M82.73 111.58a5.86 5.86 0 0 0 1.15 1.58 12.77 12.77 0 0 0 3.77 1.84c.8.3 1.09.73.58 1.38s-1.74.63-2.58.68c-1.59.08-2.49-.71-3.07-.8l-.35.22a4.06 4.06 0 0 1-2-.5 7.61 7.61 0 0 1-.62-1 4.6 4.6 0 0 1-.26-2.46c1.13-.34 2.24-.62 3.38-.94z"/>
        <path class="cls-46" d="M88.45 115.58a.81.81 0 0 1-.22.76c-.4.51-1.74.63-2.58.68-1.59.08-2.49-.71-3.07-.8l-.35.22a5.16 5.16 0 0 1-2.08-.43 9.3 9.3 0 0 1-.56-1.1 4.6 4.6 0 0 1-.26-2.46l1.51-.36c.38.88.76 2.48 1.61 2.84a12.51 12.51 0 0 0 2.21.58c1.94.56 3.28 1.1 3.79.07z"/>
        <path class="cls-47" d="M83.58 113c-.08.31-.34.56-.82.87a5.57 5.57 0 0 0 2.61 1 4 4 0 0 0 1.35.77c.52.14 1.22.23 1.41-.06.08-.12-.14-.32-.74-.55s-1.37-.53-2-.83a6.63 6.63 0 0 1-1.81-1.2z"/>
      </g>
      <path class="cls-48" d="M77 102.12c-3.88-2.06-8.31-.69-11-1.5-2-.59-2.84-.45-2.58-3.08L68 93.6a2.35 2.35 0 0 0 .91 1.23 35.92 35.92 0 0 1 8.89 2 2.29 2.29 0 0 1 1.48 1.11c.26.73-.8 3.35-2.28 4.18z"/>
      <path class="cls-49" d="M77 102.12c-3.88-2.06-8.31-.69-11-1.5-2-.59-2.84-.45-2.58-3.08l1.71-1.46a7.12 7.12 0 0 0 2.06 1.25 8 8 0 0 0 1.54.56c1.3.33 4.64 1 6.87 1.31.9.12 1.18.44 1.37.86a6.73 6.73 0 0 1 .48 1.73 2.9 2.9 0 0 1-.45.33z"/>
      <path class="cls-48" d="M79.88 99.82c1.17 4.18 2.29 8.33 3.39 12.53-.22 1.13-2.76 2-4.06.93-1.32-3.71-2.48-6.6-3-8.68-.46-1.73-.39-2.87-.69-4.41 0-1.88 2.19-3.28 3.3-2.86.66.27.86 1.76 1.06 2.49z"/>
      <path class="cls-49" d="M81 113.76a2.49 2.49 0 0 1-1.83-.48c-1.32-3.71-2.48-6.6-3-8.68-.46-1.73-.39-2.87-.69-4.41a2.62 2.62 0 0 1 .21-1 1.37 1.37 0 0 1 1.25.84c.63 1.43.5 2.8.85 4.29a97.25 97.25 0 0 0 3.21 9.44z"/>
      <path class="cls-48" d="M73.17 106.5a16.55 16.55 0 0 0-7.1-1.47 23.92 23.92 0 0 1-4.07-.23c-2.76-.64-2.88-2.66-2.31-4.38A15.57 15.57 0 0 1 60.92 98l4.51-1.6c.24.66 2.59 1.14 2.79 1.88a.85.85 0 0 1-.1.54c-.26.38.46.57.79.68 1.42.44 3.7 1.22 5.12 1.69.48.18 1.31.59 1.47 1.06.26.75-.81 3.43-2.33 4.25z"/>
      <path class="cls-49" d="M73.17 106.5a16.55 16.55 0 0 0-7.1-1.47 23.92 23.92 0 0 1-4.07-.23c-2.76-.64-2.88-2.66-2.31-4.38A15.57 15.57 0 0 1 60.92 98h.57l-.1 2.35c2.61.91 6.74 2 9.95 3.1.94.32 1.48.44 1.78 1a6.41 6.41 0 0 1 .44 1.73 2.83 2.83 0 0 1-.39.32z"/>
      <path class="cls-48" d="M75.63 102.53c1.35 4.79 2.82 10.09 4.07 14.91-.22 1.13-2.76 2-4.06.93-1.32-3.71-2.6-7-3.16-9.06-.46-1.73-.24-3.07-.74-4.58.05-2.34 3.37-3.95 3.89-2.2z"/>
      <path class="cls-49" d="M77.47 118.84a2.49 2.49 0 0 1-1.83-.48c-1.32-3.71-2.6-7-3.16-9.06-.46-1.73-.24-3.07-.74-4.58a2.64 2.64 0 0 1 .23-1 1.75 1.75 0 0 1 1.14.8c.38.72.37 1.87 1 4.18.8 3.2 2.39 6.92 3.36 10.14z"/>
      <path class="cls-50" d="M65.83 97l-2.73 3.27c3.78 1.07 6.34 2.17 10 2.92.86.17 2.44-.78 1-1.42-2-.87-4.1-1.4-6.27-2.31-.45-.19.38-.63 0-1.2a5.61 5.61 0 0 0-2-1.26zM75.22 102.54a2 2 0 0 1-1.22 1.13c1 4.76 2.87 10.08 4.26 14.78a3.17 3.17 0 0 0 1.17-.9c-1.17-5-2.73-10.11-4.21-15.01zM68.26 94.73a12.55 12.55 0 0 1-1.45 1.76 5.84 5.84 0 0 0 1.87.79 45.71 45.71 0 0 0 8.1 1.51 1.64 1.64 0 0 0 1.37-.73c.21-.32.31-.72-.26-1a27.53 27.53 0 0 0-5-1.52c-1-.2-2.55-.21-3.58-.35a2.18 2.18 0 0 1-1.05-.46zM79.16 98.22a2.45 2.45 0 0 1-1.42 1.29c.39 1.21.48 2.71.85 4.42a77.37 77.37 0 0 0 3 9.39 1.82 1.82 0 0 0 1.45-1c-1.26-4.74-2.57-9.32-3.88-14.1z"/>
      <path class="cls-49" d="M67.82 92.84s1.09 2 1.09 2.15a17 17 0 0 1-.91 3.38c-.64 2.17-1.55 4.77-3.06 5.6l-3.9-6.08.69-3.22c2.22-.45 2.75-1.21 4.12-1.94a1.47 1.47 0 0 1 1.97.11z"/>
    </g>
    <g>
      <g>
        <path class="cls-50" d="M63.75 69.31c-1.49 1-4.24 1.11-6.43 1.17l-.85-2.22a33.8 33.8 0 0 1 6.08-1.6c1.67-.08 2.58 1.69 1.2 2.65z"/>
        <path class="cls-48" d="M63.75 69.31c-1.49 1-4.24 1.11-6.43 1.17l-.59-.86A33.21 33.21 0 0 1 63 68.48c1.32-.16.63.8.75.83z"/>
        <path class="cls-50" d="M62.15 77.37a2.6 2.6 0 0 1-3.28-3.06 15.33 15.33 0 0 1 2.46-5.51c1.21-1.67 2.68-2.08 3.07-.71s-1.46 8.22-2.25 9.28z"/>
        <path class="cls-48" d="M62.15 77.37A2.6 2.6 0 0 1 58.83 75c.08 1.08.94 1.27 1.93 1.51a52.53 52.53 0 0 0 2.81-8.27c.13-.63.23-1.11-.26-1.53a1.51 1.51 0 0 1 1.09 1.39c.35 1.28-1.46 8.21-2.25 9.27z"/>
        <path class="cls-51" d="M59.83 76.22c-1.18-.28-1.25-.18-1-1.9a15.33 15.33 0 0 1 2.46-5.51 5.09 5.09 0 0 1 1.12-1 59 59 0 0 1-2.58 8.41zM63.44 66.9a32.71 32.71 0 0 1-5.92 2.23 5.16 5.16 0 0 0-.39-1.06c.17 0 2.77-.91 4.55-1.26 1.04-.2 1.47-.11 1.76.09z"/>
      </g>
      <path class="cls-50" d="M58.59 74.79a1.87 1.87 0 0 1 2.32.41c1.42 1.24 2.6 4.46 3.47 7.43.49 1.68.89 3.17 1.53 5.25.77 2.49 1.75 5.17 2.48 7.83 0 .55-.39 1.3-.59 1.32-.65-2.68-1.64-4.16-2.87-7.74a58.11 58.11 0 0 0-4-9.45c-2.11-3.63-3.73-3.57-3.74-4.15a8.38 8.38 0 0 1 1.4-.9z"/>
      <path class="cls-50" d="M52.58 81c1-1.11 4.15-5.33 5.42-5.51 3.4-.5 4.86 2.64 6.31 7.59.48 1.64 1 3 1.67 5.08a22.19 22.19 0 0 0 2.78 6 6.83 6.83 0 0 1-.91 3.39c-.26-.89-.88-2.38-1.61-4.07.45 1.46 1.22 3.83 1.49 4.81-.07 1-.93 3.95-2.29 5.07s-2.36 1.62-5.76-.17c-1.43-4.48-.9-4.86-1.64-7.78-.6-2.37-5.58-7.62-6.57-10.84A3.75 3.75 0 0 1 52.58 81z"/>
      <path class="cls-48" d="M53.9 79.06l.73-1a18.71 18.71 0 0 1-1.43 3.44c1.84 1.53 6 9.58 6.28 10.41 2.39 6.11 1.91 8 3.27 12.34a4.46 4.46 0 0 1-3-.86c-1.43-4.48-1-5.1-1.7-8-.44-1.76-3.79-5.54-5.16-8-.75-.7-2.34-1.6-3.35-2.53-.76-.7.76-3.09 1.24-3.92.33-.05.94 0 1.16-.19a14 14 0 0 1 1.96-1.69z"/>
      <path class="cls-52" d="M58.66 76.7a3.37 3.37 0 0 1 2.26 1.24l-.4.71h.8a93 93 0 0 1 3.42 11c-1.38-3.14-2.85-7.88-4.75-10.45a8.72 8.72 0 0 0-1.5-1.51c-.16-.15-.04-1.02.17-.99z"/>
      <path class="cls-53" d="M54.48 78.46c.28 1.19 3.63 1.8 4.54.86.1-.1.07-.39.11-.52a2.4 2.4 0 0 1-.35-.74 3.8 3.8 0 0 1 0-1c0-.43-.26-1.27-.32-2.26l-3.77-.54-.83-.19a6.58 6.58 0 0 1 .62 4.39z"/>
      <path class="cls-54" d="M54.48 78.46a.61.61 0 0 0 .08.19c1.2-1.58 2.46-1 4.1-2.1a15.33 15.33 0 0 1-.26-1.74l-3.77-.54-.83-.19a6.58 6.58 0 0 1 .68 4.38z"/>
      <path class="cls-55" d="M55.14 78.84c1.26 4.88 5.77 3.1 9.26 9.87-1.53-3.88-2.31-6.92-4.95-10.21l-.17.63-.91.5z"/>
      <g>
        <path class="cls-56" d="M58.56 79.91c.39.68.41.67 1.17 1 0 .39.1.73.17 1.12a35 35 0 0 1 4.51 6.8c-.21-.57 0-.17-.16-.65a62.6 62.6 0 0 0-3.49-7.65 2 2 0 0 0-.69-.05c-.09-.85-.35-1.34-.53-1.39a1.2 1.2 0 0 0-.98.82z"/>
        <path class="cls-57" d="M58.56 79.91c.39.68.41.67 1.17 1 0 .39.1.73.17 1.12a35 35 0 0 1 4.51 6.8c-.21-.57.07-.19-.16-.65a35.5 35.5 0 0 0-3.93-6.4c-.19-.37-.25-.77-.43-1.1a5.83 5.83 0 0 1-1.12-1c-.55.11.03-.34-.21.23z"/>
      </g>
      <path class="cls-58" d="M59 79.27c0-.39-.29-1-.27-1.42.39-.07 1.1.79 1.65 1.43a1.67 1.67 0 0 0-1.38-.01z"/>
      <path class="cls-52" d="M54.56 78.05c-.29.59-.58.9-.6 1.26-.05 1.11 1.59 2.51 2.59 4.09l.77-.53v1c4.2 1.75 6 2.65 7.83 6.49-3.71-9.63-9.49-7.96-10.59-12.31z"/>
      <path class="cls-58" d="M54.52 77.74c.35 1.36 3.12 1.61 4.5 1.54a2.93 2.93 0 0 0-.28 1.62c-1 0-3-.1-4-1.2a1.48 1.48 0 0 1-.22-1.96z"/>
      <path class="cls-51" d="M57.82 84.95a62.8 62.8 0 0 1 3.79 7.24 55.26 55.26 0 0 1 3.22 11.26 8.58 8.58 0 0 0 2.61-4.89 69.71 69.71 0 0 0-2.56-7.29c-1.23-3.12-3.5-5.84-7.06-6.32z"/>
      <path class="cls-50" d="M61.59 96.2a11.74 11.74 0 0 1 2.35-2l.68 3.73a4.24 4.24 0 0 1-2.26 1.9z"/>
      <path class="cls-48" d="M61.59 96.2a11.74 11.74 0 0 1 2.35-2c.2 1.12.26 1-.54 1.88-1.43 1.48-.91 1.27-.78 3.65 0 .1-.18.07-.26.1z"/>
      <path class="cls-51" d="M58.73 76.6a15.66 15.66 0 0 1 2.17 1.6c1.5 1.8 2.21 4.44 3.08 7.23 1.56 5 2.48 6.47 3.78 11.5a6.49 6.49 0 0 0 .65-2.63 37.33 37.33 0 0 1-4-9.91c-.66-2.58-1.41-5.39-2.67-7.2-.51-.72-1.84-2-3.07-2z"/>
      <path class="cls-50" d="M61.53 95.71c1.07-1.05 1.51-1.61 2.31-2.37l.23 1.52a6.35 6.35 0 0 1-2.34 2.21z"/>
      <path class="cls-48" d="M61.53 95.71c1.07-1.05 1.51-1.61 2.31-2.37-.66 1.11-2 2.23-1.85 3.62a1.26 1.26 0 0 1-.26.11z"/>
      <path class="cls-51" d="M64.14 95.56l-1.26 1.55v2.25a6.56 6.56 0 0 0 1.54-1.29zM63.79 93.62a9.48 9.48 0 0 0-1.49 3 7.78 7.78 0 0 0 1.61-1.69 7.58 7.58 0 0 0-.12-1.31z"/>
      <g>
        <g>
          <path class="cls-50" d="M66 90.31a2.3 2.3 0 0 1 .54-1.11L68 92.8c-.06.39-.51.94-.7.95z"/>
          <path class="cls-48" d="M66 90.31a2.3 2.3 0 0 1 .54-1.11c.39 1 .4 1 .26 1.51-.25.92-.05.87.65 3h-.11z"/>
          <path class="cls-51" d="M67 90.43l-.15 1 .73 2a1.32 1.32 0 0 0 .37-.73z"/>
        </g>
        <g>
          <path class="cls-50" d="M65.57 89.49c.32-.42.42-.69.68-1l.62 1.36c0 .27-.34 1-.74.83z"/>
          <path class="cls-48" d="M65.57 89.49c.32-.42.42-.69.68-1-.06.64-.53 1 0 2.21h-.12z"/>
          <path class="cls-51" d="M66.3 88.73a4.2 4.2 0 0 0 0 1.83c.27-.17.32-.3.46-.71-.12-.38-.28-.72-.46-1.12z"/>
        </g>
      </g>
      <g>
        <path class="cls-59" d="M58 76.64c-.48-.05-1.51.06-2 0-1-.16-1.34-1.09-2.13-2.09a2.16 2.16 0 0 1-1.63-.84 4.07 4.07 0 0 1-.39-3.56 2.82 2.82 0 0 1 1.94-1.81c1.82-.55 3.22.43 4.14 2a1.33 1.33 0 0 1 .16.42c.08.37 0 .58.09.83.09.45.26.45.42.67a10.13 10.13 0 0 1 .5 1.53 6.21 6.21 0 0 1 .18.72 3 3 0 0 1 .09 1.49 3.65 3.65 0 0 1-.47.44c-.16.09-.34.19-.9.2z"/>
        <path class="cls-53" d="M58 76.64c-.48-.05-1.51.06-2 0-1-.16-1.34-1.09-2.13-2.09a2.16 2.16 0 0 1-1.63-.84 4.07 4.07 0 0 1-.39-3.56 2.82 2.82 0 0 1 1.94-1.81 3.32 3.32 0 0 1 3.75 1.38 4 4 0 0 1-1.41 1.4c-.43.26-1 .11-1.61.14a14.61 14.61 0 0 0 1.2 1.91c0 .08 0 .53.29.77.09.06.27.1.3.26a3.31 3.31 0 0 0 2.27 2.37 2.22 2.22 0 0 1-.58.07z"/>
        <path class="cls-60" d="M53.41 71c.22 1.36 1.54 2.86 2.33 4a1.63 1.63 0 0 0 .93.54 3 3 0 0 0 .77.14c.18-.11-.1-.7.52-1.42a2 2 0 0 1 .66-.55c.27 0 .4.07.47-.12a5.85 5.85 0 0 1 .47 2.15 2 2 0 0 1-.59.82 1.54 1.54 0 0 1-1 .29 6.81 6.81 0 0 1-2.55-.48c-.29-.11-.49-.18-.53-.71a5.49 5.49 0 0 0-.8-2.43 3.57 3.57 0 0 0-1.35-1.28c.29-.79.47-2.19.68-.91zm5.33 4.39c-.17-.22-.14-.26 0-.37s.15-.11.3 0c.11-.12.18-.17.19-.26a.49.49 0 0 0-.09-.28c-.13-.23-.37-.42-.54-.24a2 2 0 0 0-.45.56 1.19 1.19 0 0 0 .21.83c.05.05 0 .1.13 0a1.12 1.12 0 0 0 .25-.22z"/>
        <path class="cls-60" d="M56.28 70.4c-.51 0-2.18-.3-3-.41s-1.8-.23-2.15.51a4.68 4.68 0 0 0 .64 2.87 17 17 0 0 0 2.72 2.53c0-.44-.06-.88 0-1.14s.11-.52.1-.69c-.11-.42-.22-.76-.3-1.19-.12-.27.11-.38 0-.63-.31-.64-.61-.95-.64-1.43.06-.63 1.66.03 2.63-.42z"/>
        <path class="cls-61" d="M56.28 70.4c-.51 0-2.18-.3-3-.41s-1.8-.23-2.15.51a4 4 0 0 0 .19 1.85 2.81 2.81 0 0 0 2.7-.49 2.49 2.49 0 0 1-.44-1c.13-.67 1.73-.01 2.7-.46zM57.1 75.63a.91.91 0 0 0 .34 0c.18-.11-.1-.7.52-1.42a2 2 0 0 1 .66-.55c.27 0 .4.07.47-.12a5.85 5.85 0 0 1 .47 2.15 2 2 0 0 1-.59.82.61.61 0 0 1-.15.12c-.15-.08-.36-.17-.42-.2a3.88 3.88 0 0 1-1.3-.84zm1.64-.22c-.17-.22-.14-.26 0-.37s.15-.11.3 0c.11-.12.18-.17.19-.26a.49.49 0 0 0-.09-.28c-.13-.23-.37-.42-.54-.24a2 2 0 0 0-.45.56 1.19 1.19 0 0 0 .21.83c.05.05 0 .1.13 0a1.12 1.12 0 0 0 .25-.24z"/>
        <path class="cls-60" d="M51.09 70.59a1.92 1.92 0 0 1 .73-2.23 1.53 1.53 0 0 0-.26.29 4.42 4.42 0 0 1 2-1 6 6 0 0 1 2.82.38 3.07 3.07 0 0 0 .91 0c.85 1.6-1.15 2.79-2.72 3.06a7.16 7.16 0 0 1-1.43.18 3.23 3.23 0 0 0 .76.16 3.49 3.49 0 0 1-2.81-.84z"/>
        <path class="cls-62" d="M51.32 69a3.68 3.68 0 0 1 2-1.39 6.46 6.46 0 0 1 1.75-.13 1.26 1.26 0 0 1-.4.15c1 0 1.29.4 2.57.41a1.26 1.26 0 0 1-1 .26 1.09 1.09 0 0 0 .26.11c-.94.34-1.31 0-2.36-.05a1.45 1.45 0 0 0 .29.1c-.94.21-1.83-.39-3.11.54z"/>
        <path class="cls-63" d="M51.09 70.59a1.71 1.71 0 0 1-.07-.26c.56.39 1.48.19 2.5-.2a2.68 2.68 0 0 1-.58.43 3.53 3.53 0 0 0 1.91-.62 1.43 1.43 0 0 1-.3.45 3.83 3.83 0 0 0 1.61-1.49 1.2 1.2 0 0 1-.14.43c.31-.37.64-.67 1-1a2.46 2.46 0 0 1-.16.39 1.28 1.28 0 0 0 .47-.65c1.08 2-2.19 3.2-3.65 3.21a1.38 1.38 0 0 0 .38.17 3.77 3.77 0 0 1-2.97-.86z"/>
        <path class="cls-53" d="M53.6 73.47c-.77 0-.41.91-.09 1.38s.48.18.69.42a.71.71 0 0 0 .66.27 6.83 6.83 0 0 0-.3-1.33 1 1 0 0 0-.96-.74z"/>
      </g>
      <g>
        <path class="cls-53" d="M54.64 67.87a1.79 1.79 0 0 1 1.65-.15 1 1 0 0 0-.29-.32 2.5 2.5 0 0 0-2.11-.24 2.31 2.31 0 0 0-.58.54c-.25.37.91.57 1.33.17z"/>
        <path class="cls-59" d="M55.17 67.93c.26-.18.36-.21.59-.15a5.18 5.18 0 0 0 .8.19 3.77 3.77 0 0 0-.56-.57 1.58 1.58 0 0 0-.41-.22 1.72 1.72 0 0 0-1.71.91 2.76 2.76 0 0 0 1.29-.16z"/>
      </g>
      <g>
        <path class="cls-64" d="M50.92 73.8c.08.2 1 1.38 1.35 1.35.22.07-1.1-1.8-1.35-1.35z"/>
        <path class="cls-53" d="M51.49 76a2.73 2.73 0 0 1 1-1.1c.74-.43.61-1.16.27-1.93L52 71.22c0-.75.53-1.14.78-1.74s-.78-.48-1.1-.26-1.68 1.15-1.54 1.67a26.22 26.22 0 0 0 .9 3 5 5 0 0 1-1 1.09z"/>
        <path class="cls-59" d="M51.49 76a2.73 2.73 0 0 1 1-1.1c.74-.43.61-1.16.27-1.93L52 71.22c0-.75.53-1.14.78-1.74.09-.21 0-.32-.23-.36a3.15 3.15 0 0 0-1.15 2.08l.75 1.72c.34.77.16 1.12-.37 1.82a9.34 9.34 0 0 0-.69.92z"/>
        <path class="cls-55" d="M50.92 73.8c.08.2 1 1.38 1.35 1.35-.1.18-.37.44-.48.63l-1.29-1.55z"/>
        <path class="cls-50" d="M50.53 74.13l1.37 1.53A26.9 26.9 0 0 1 46.84 83c-1.32 0-2.26-.69-2-2.14a4.58 4.58 0 0 1 1.26-2.19c1.42-1.59 3.37-3.46 4.43-4.54z"/>
        <path class="cls-51" d="M50.53 74.13l.46.51c-1.67 2.75-3.4 5.36-5.77 5.15a6.84 6.84 0 0 1 .87-1.14c1.43-1.57 3.38-3.44 4.44-4.52z"/>
        <path class="cls-50" d="M52.59 81.49a40.59 40.59 0 0 0-4.86-1.39c-1.23-.39-2-.22-2.58.7s0 1.71.88 2.28c1.07.67 2.72 1.29 4.94 2.68a6.25 6.25 0 0 0 3.19 1c.72 0 1-.67 1.11-1.24-.09-.88-1.85-3.65-2.68-4.03z"/>
        <path class="cls-51" d="M52.59 81.49a10.15 10.15 0 0 0-3.13-.94c-.88.1-2.38.38-4.24.46.3.14 1.58.33 3.09.88 2.51.91 5.73 2.33 6.64 2.7a8.72 8.72 0 0 0-2.36-3.1z"/>
        <path class="cls-48" d="M51.12 74.79l.78.87a24.53 24.53 0 0 1-2.81 4.67 8.4 8.4 0 0 1-3.37.26c3.1-.91 3.96-2.65 5.4-5.8zM45 81.27a1.84 1.84 0 0 0 1 1.8c1.07.67 2.72 1.29 4.94 2.68a6.25 6.25 0 0 0 3.19 1 1 1 0 0 0 1-.74l-2.3-1.17c-1.58-.81-3.2-1.7-4.68-2.3s-2.89-.13-3.15-1.27z"/>
      </g>
    </g>
    <g>
      <g>
        <path class="cls-35" d="M58.54 100.44a12.73 12.73 0 0 0-4.38-2.15 9.28 9.28 0 0 0-4.19-.2l.21.33a9.87 9.87 0 0 1 4 .31 12.46 12.46 0 0 1 4.25 2.09 20.51 20.51 0 0 1 6.34 8.9h.3c-1.66-4.05-3.84-7.27-6.53-9.28z"/>
        <path class="cls-36" d="M60.87 102.76a24.49 24.49 0 0 1 4.16 7l.35-.43a25.11 25.11 0 0 0-3.78-6.52l-.17-.21a14.15 14.15 0 0 0-7-4.65 11.32 11.32 0 0 0-3.06-.4 6.26 6.26 0 0 0-1.06.08l-.35.43a6.74 6.74 0 0 1 .91-.08h.51a11.55 11.55 0 0 1 2.82.43 12.78 12.78 0 0 1 3 1.29h.08a15.5 15.5 0 0 1 3.59 3.06z"/>
      </g>
      <g>
        <path class="cls-37" d="M54 98.36h-.43l.17.49.35.09c2.33.62 5.55 2.29 8.3 6.59l.37-.07a13.88 13.88 0 0 0-8.76-7.1z"/>
        <path class="cls-38" d="M56.77 99.58a14.67 14.67 0 0 1 2.85 2.08 19.38 19.38 0 0 1 3.1 3.76l.61-.74a18.72 18.72 0 0 0-3.7-4.29 14.64 14.64 0 0 0-2.25-1.55 12.67 12.67 0 0 0-3.21-1.25l-.61.74a12.68 12.68 0 0 1 3.21 1.25z"/>
      </g>
    </g>
  </g>
  <g>
    <g>
      <path class="cls-3" d="M44.26 92.22a.87.87 0 0 1 .87.09 2.68 2.68 0 0 1 1.22 2.12.85.85 0 0 1-.36.78l-.47.28a.86.86 0 0 0 .36-.78 2.69 2.69 0 0 0-1.22-2.12.87.87 0 0 0-.87-.09z"/>
      <path class="cls-2" d="M44.66 92.58c-.68-.39-1.23-.08-1.23.7a2.7 2.7 0 0 0 1.22 2.11c.68.39 1.22.08 1.23-.7a2.69 2.69 0 0 0-1.22-2.11z"/>
    </g>
    <g>
      <path class="cls-3" d="M40 89.76a.86.86 0 0 1 .87.09A2.68 2.68 0 0 1 42.11 92a.85.85 0 0 1-.36.78l-.47.28a.86.86 0 0 0 .36-.78 2.69 2.69 0 0 0-1.22-2.12.87.87 0 0 0-.87-.09z"/>
      <path class="cls-2" d="M40.41 90.12c-.68-.39-1.23-.08-1.23.7a2.69 2.69 0 0 0 1.22 2.11c.68.39 1.22.07 1.23-.7a2.69 2.69 0 0 0-1.22-2.11z"/>
    </g>
    <g>
      <path class="cls-3" d="M42.35 90.7a.87.87 0 0 1 .87.09 2.69 2.69 0 0 1 1.22 2.12.86.86 0 0 1-.36.78l-.47.28a.86.86 0 0 0 .36-.79 2.69 2.69 0 0 0-1.22-2.12.87.87 0 0 0-.87-.09z"/>
      <path class="cls-2" d="M42.75 91.06c-.68-.39-1.23-.08-1.23.7a2.69 2.69 0 0 0 1.22 2.11c.68.39 1.22.08 1.23-.7a2.69 2.69 0 0 0-1.22-2.11z"/>
    </g>
    <g>
      <path class="cls-3" d="M46.36 93.38a.86.86 0 0 1 .87.09 2.69 2.69 0 0 1 1.22 2.12.86.86 0 0 1-.36.78l-.47.27a.85.85 0 0 0 .36-.78 2.69 2.69 0 0 0-1.22-2.12.87.87 0 0 0-.87-.09z"/>
      <path class="cls-2" d="M46.76 93.74c-.68-.39-1.23-.08-1.23.7a2.7 2.7 0 0 0 1.22 2.11c.68.39 1.22.07 1.23-.7a2.69 2.69 0 0 0-1.22-2.11z"/>
    </g>
    <g>
      <path class="cls-3" d="M48.69 94.66a.87.87 0 0 1 .87.09 2.69 2.69 0 0 1 1.22 2.12.86.86 0 0 1-.36.79l-.47.28a.86.86 0 0 0 .36-.79A2.69 2.69 0 0 0 49.09 95a.86.86 0 0 0-.87-.09z"/>
      <path class="cls-2" d="M49.09 95c-.68-.39-1.23-.08-1.23.7a2.69 2.69 0 0 0 1.22 2.11c.68.39 1.22.07 1.23-.7A2.69 2.69 0 0 0 49.09 95z"/>
    </g>
    <g>
      <path class="cls-7" d="M49.59 96.5v1.43l-10.04-5.82v-1.42l10.04 5.81z"/>
      <path class="cls-19" d="M50.16 96.17l.01 1.43-.58.33V96.5l.57-.33z"/>
      <path class="cls-6" d="M39.55 90.69l.57-.34 10.04 5.82-.57.33-10.04-5.81z"/>
    </g>
    <g class="cls-1">
      <path class="cls-6" d="M43.69 89.95l-.01 4.28-.6.16.02-4.28.59-.16z"/>
      <path class="cls-7" d="M43.1 90.11l-.02 4.28-.47-.28-.01-4.25.5.25z"/>
    </g>
    <path class="cls-4" d="M39.89 91.67a.35.35 0 0 0 .16.28.11.11 0 0 0 .12 0 .35.35 0 0 0-.16-.28h-.11a.11.11 0 0 0-.01 0zM42.22 92.95a.35.35 0 0 0 .16.28.11.11 0 0 0 .11 0 .36.36 0 0 0-.16-.28h-.08a.11.11 0 0 0-.03 0zM46.31 95.26a.35.35 0 0 0 .16.28.11.11 0 0 0 .11 0 .35.35 0 0 0-.16-.28h-.08a.11.11 0 0 0-.03 0zM48.57 96.59a.35.35 0 0 0 .16.28.11.11 0 0 0 .12 0 .35.35 0 0 0-.16-.28h-.08a.11.11 0 0 0-.04 0z"/>
  </g>
</svg>
