<svg xmlns="http://www.w3.org/2000/svg" viewBox="0 0 251.46 403.07" width="324" height="535" class="time-stage__men">
  <defs>
    <style>
      .cls_tm-1 {
        fill: #ff0143;
      }

      .cls_tm-1, .cls_tm-10, .cls_tm-11, .cls_tm-12, .cls_tm-13, .cls_tm-14, .cls_tm-15, .cls_tm-16, .cls_tm-17, .cls_tm-18, .cls_tm-19, .cls_tm-2, .cls_tm-20, .cls_tm-21, .cls_tm-3, .cls_tm-4, .cls_tm-5, .cls_tm-6, .cls_tm-7, .cls_tm-8, .cls_tm-9 {
        fill-rule: evenodd;
      }

      .cls_tm-2 {
        fill: #9b022e;
      }

      .cls_tm-3 {
        fill: #d60138;
      }

      .cls_tm-4 {
        fill: #111214;
      }

      .cls_tm-6 {
        fill: #20232e;
      }

      .cls_tm-7 {
        fill: #181624;
      }

      .cls_tm-8 {
        fill: #11101a;
      }

      .cls_tm-9 {
        fill: #1f1c2e;
      }

      .cls_tm-10 {
        fill: #bfc5e3;
      }

      .cls_tm-11 {
        fill: #db9669;
      }

      .cls_tm-12 {
        fill: #e8a476;
      }

      .cls_tm-13 {
        fill: #f1b287;
      }

      .cls_tm-14 {
        fill: #d1d7f2;
      }

      .cls_tm-15 {
        fill: #262338;
      }

      .cls_tm-16 {
        fill: #2f2c45;
      }

      .cls_tm-17 {
        fill: #e6edff;
      }

      .cls_tm-18 {
        fill: #361d07;
      }

      .cls_tm-19 {
        fill: #4f2b0c;
      }

      .cls_tm-20 {
        fill: #4a2b12;
      }

      .cls_tm-21 {
        fill: #241304;
      }
    </style>
  </defs>
  <title>Asset 1</title>
  <g id="Layer_2" data-name="Layer 2">
    <g id="Layer_1-2" data-name="Layer 1">
      <g>
        <g>
          <path class="cls_tm-1" d="M195,90.49c-16.44-4.22-39.61,5.18-54.6,18.75a53.51,53.51,0,0,0-14.24,21.62c-12.78,35.32-17.4,60.38-64,120C39.93,279.39,16.51,283.79,0,333.32c32.71-24,63.19-47.4,90-65.53,20.69-14,40.66-17.37,49-61.39,5.61-29.58-5-65.13-.06-81C148.16,95.94,174,99.59,195,90.49Z"/>
          <path class="cls_tm-2" d="M195,90.49c-24.39-6.23-56.19,25.68-64.15,47.57C48.26,365.26,71.33,224.66,0,333.32c32.4-11.86,60.27-17.77,92.55-55.55,36.57-24.67,74-16.73,89.54-85.94,6.58-29.38,16-44.34,21-60.22C212.21,102.17,174,99.59,195,90.49Z"/>
          <path class="cls_tm-3" d="M193.39,86c-8.82-7.29-30.81,8.82-40,13.86-15.9,8.73-22,18.61-11.84,17.49C155.73,115.82,180.59,103.72,193.39,86Z"/>
        </g>
        <g>
          <path class="cls_tm-4" d="M155.51,359.27c-3.24,1.27-4.09,1.54-6.26,6.92a78.61,78.61,0,0,0,2.35,11.11l1.43,1c2.49,3,1.62,9,2.45,13.79.6,3.46,1.64,4.48,4.44,7s7.61,3.68,13.16,4c6.76.33,12.75-1.38,9.79-5.22-1.51-2-5.12-3.86-7-8.2-2.49-9.38-5-18.17-1.54-27.8Z"/>
          <path class="cls_tm-5" d="M155.51,359.27c-3.24,1.27-4.09,1.54-6.26,6.92a78.61,78.61,0,0,0,2.35,11.11l1.43,1c2.49,3,1.62,9,2.45,13.79.6,3.46,1.64,4.48,4.44,7s7.61,3.68,13.16,4c5.34.26,10.2-.75,10.54-3.08-3.37.45-7.3-.44-13-3.18a11.78,11.78,0,0,1,4.66-4.95,52.44,52.44,0,0,0-8,2.61c-7-8.31-3.8-18.69-6.08-28.5-.45-2-.88-4-1.26-6.06Z"/>
          <g>
            <path class="cls_tm-4" d="M163.84,330.28c-2.2,4-3.57,5.9-4.06,9-1,6.24.31,12.64,2,22.14.82,4.52-.38,6.87-4.71,5.87-3.41-.79-7.61-6.94-10.12-10.9-4.7-7.43-3.57-13.54-4.72-16.54l-1.93-1.19c-1.32-1.25-4.4-8.3-4.09-10.61a50.87,50.87,0,0,1,3.85-5.52c4.88-5.36,5.18-4,10.53-6.73C155,320.76,159.28,325.5,163.84,330.28Z"/>
            <path class="cls_tm-5" d="M161.19,366.67c-.77.84-2.1,1.09-4.09.63-3.41-.79-7.61-6.94-10.12-10.9-4.7-7.43-3.57-13.54-4.72-16.54l-1.93-1.19c-1.32-1.25-4.4-8.3-4.09-10.61a50.9,50.9,0,0,1,3.85-5.52c4.88-5.36,5.18-4,10.53-6.73,1.93,2.19,3.85,4.34,5.79,6.47-3,3.77-9.23,9.16-8.57,14.09.74,5.52,2.54,8.57,3.39,11.9C153.92,358.87,155.1,366.49,161.19,366.67Z"/>
            <path class="cls_tm-6" d="M159.63,337.54c-1.63.33-3.49-.4-6.19-2-.37,7.37.48,7.48,2.59,14.73-.29,5-.46,5.86.2,8.21.78,2.81,2.28,6.38,4.1,6.66.78.12,1.07-1.41.5-4.8-.65-3.84-1.32-7.74-1.7-11.5A34.21,34.21,0,0,1,159.63,337.54Z"/>
          </g>
          <path class="cls_tm-7" d="M214.55,284.58C196.13,302.44,182,313.8,165,331.9c-5.66,1.85-17.21-7.64-16.44-16.39C160.83,300,166.51,293,174,285.11a81.8,81.8,0,0,1,20.56-15.68c7.65-9.39,21.65-9.5,22.11-1.39C216.91,272.93,218.43,280.18,214.55,284.58Z"/>
          <path class="cls_tm-7" d="M209,204.72c4.77,16.18,6.64,49.35,8.15,69.79.91,17-19.29,15.46-24.41,9.38-5.87-16.26-15.21-46.1-18.3-64.95l14.38-9.47,11.8-14.53Z"/>
          <path class="cls_tm-8" d="M152.55,325.78c-2.56-3-4.3-6.7-4-10.27C160.83,300,166.51,293,174,285.11a80.71,80.71,0,0,1,15-12.38c-5.5-16.57-12-38.7-14.44-53.78l14.38-9.47,11.8-14.53,8.37,9.78A132.11,132.11,0,0,1,212.62,223c-3.67,7.34-7.33,11-16.31,18.14.17,7.58,4.63,28.4,4.72,34.3,0,2.52-1.07,3-5.43,6.34C179.36,294.42,166.34,310.09,152.55,325.78Z"/>
          <path class="cls_tm-7" d="M186.21,214.2c2.13,16.73-5.68,57.28-7.45,77.7-.33,15.76-23.44,15.18-24.53,5.26-1.6-15.63-14.27-74.73-3.45-86.07l17.53-2.44Z"/>
          <path class="cls_tm-7" d="M178.67,292.17c-.08,5.84-1.47,6.52-1.65,9.87-1.15,21.75-.4,43.58-.4,65-7.18,6.93-19.71,3.36-23.06-3.62-1.59-19.7-3.18-30.05-3.08-40.87a85.34,85.34,0,0,1,3.74-25.4C157.13,283.21,179.05,280.58,178.67,292.17Z"/>
          <path class="cls_tm-8" d="M164.38,370.58c-4.74-.75-9.06-3.48-10.82-7.16-1.59-19.7-3.18-30.05-3.08-40.87a85.34,85.34,0,0,1,3.74-25.4c-1.6-15.63-14.27-74.73-3.45-86.07l8.82-1.23,25.93,25.72-.13,2.54c-5.73,3.09-17.6,5.79-22.07,6.16-.36,15.9-.44,30.29.89,46.13a76.24,76.24,0,0,1-.49,19.09C160.73,332.44,162.57,346.22,164.38,370.58Z"/>
          <path class="cls_tm-9" d="M183,242.86c-6.34,2.12-10.17,3.33-16.56,3.79-.77,23.35,2.33,37.94,1.6,54.08-.32,7.08-2.37,14-2.17,21.11l1.35,47.58a14.1,14.1,0,0,0,8.2-2.62c.34-18.93-1.86-45.86.15-63.14.35-3,1.14-5.3,1.46-8,.3-2.48.18-3.7.47-6.43C179.13,273.9,181.88,258.1,183,242.86Z"/>
          <path class="cls_tm-9" d="M211.3,229.75c-4.76,7.42-7.2,9.91-11.87,13.66,1.51,9.17,3.62,22.5,4.53,27.51.7,3.86.25,6.66-1,8.9-.92,1.71-16.8,12.13-24.57,22.8l-.8,12c10.88-10.3,24.13-20.81,34.17-31,3-3,3.51-6.66,3.15-11.22C214.09,261.55,213,243.63,211.3,229.75Z"/>
          <path class="cls_tm-6" d="M171.59,371.35a8.89,8.89,0,0,1-6.52,1.34c-.39,4.73,1,13.8,3.4,18.68a39,39,0,0,1,6.05-2.15C172.23,382,171.86,378.94,171.59,371.35Z"/>
          <path class="cls_tm-6" d="M176.65,392.64c-2.31.88-3,2-4.13,3.42,5.31,2.62,9.46,3.57,9.89,2.64C183,397.48,178.31,394.9,176.65,392.64Z"/>
        </g>
        <g>
          <path class="cls_tm-7" d="M227.59,22.39c2.2-4.71,17.9-.82,14.86,5.42-.61,1.24-1.67,1.68-2.63,2.68,0,0-6-.19-6.85-.42s-5.43-4.13-5.43-4.13C227.56,24.75,227.09,23.46,227.59,22.39Z"/>
          <path class="cls_tm-10" d="M228.95,21.26c1.16,2.55,8.88,7.66,13.25,3.47.47-1.56-1.19-3-4.61-4C233.93,19.73,230.48,18.29,228.95,21.26Z"/>
          <path class="cls_tm-11" d="M243.5,14.54c1.54,1,2.22,4.07.71,6.52-.26.42-1.58,2-2.65,3.39A33.53,33.53,0,0,0,240.33,28c-.64,2.49-4.86.29-5.79-.49s-1.34-4.4-1-5.11c1-2.3-.24-8.31-.21-10s1.51-1.1,1-3.6Z"/>
          <path class="cls_tm-12" d="M243.89,9.07V9l5.4-4.9.29.13a4.5,4.5,0,0,1,1.77,1.52c.55,1.37-1.06,6.59-2.06,7.91-.33.43-1.34,2.1-1.95,1.62-.06.87-1.4,2.22-2.4,1.47-.41,1.13-.63.85-1.39,1.34a1.18,1.18,0,0,1-.8.2l-.91-7.62Z"/>
          <path class="cls_tm-13" d="M243,11.44,230.33,7.86c-.35-1.61,1-2.75,3.53-4.65,1-.73,3.31-2.2,4.26-2.74,1.84-1.06,5.73-.18,8.53,1.3.69.37,4.32,3.18,4.72,4A26,26,0,0,1,243,11.44Z"/>
          <path class="cls_tm-12" d="M237.23,17.22a4.24,4.24,0,0,1-2.49-2.64c-.3-2.36,2-1,3.42-.29l2.05.7c.68.22.51.18.53-.55.05-.41-.67-.84-1.33-1.12a15.06,15.06,0,0,0-3.87-1.3c-.92-.06-1.35.39-1,1.78.47,2.45,1.65,4.13,2.32,5.83a5.88,5.88,0,0,1-.68,5.84,16.53,16.53,0,0,0-1.11,2c-.31.69-2.62-.15-3.56-.93s-3.16.33-2.86-.39c2.12-3.52,2.52-9.81,1.68-13.87-.25-1.19-.88-5.78.71-6.38,3.51-1.33,11.11,3.52,12.59,6a3,3,0,0,1,.49,1.6c-.06,1.59-.28,2.36-.34,3.92C243.87,19.81,238.54,17.76,237.23,17.22Z"/>
          <path class="cls_tm-11" d="M235.54,7.81A9.61,9.61,0,0,0,234,11.39l-1.16,4.56C232.45,12.34,231.32,9.13,235.54,7.81Z"/>
          <path class="cls_tm-12" d="M233.23,18c-.44,1.62-2.3,6.85-2.31,7.68s2.55,2.29,4,2c2.67-.51,4-4.77,3.84-7-.1-1.8-1-5-.56-6.77.8-3.63-.14-5-.78-5.69-.8-.81-3.35-1.12-3.06,3.65A25.87,25.87,0,0,1,233.23,18Z"/>
          <path class="cls_tm-13" d="M232.66,27.26a4,4,0,0,0,2.26.45c2.67-.51,4-4.77,3.84-7-.1-1.8-1-5-.56-6.77.8-3.63-.14-5-.78-5.69a1.61,1.61,0,0,0-2.36.09c1.21,1.13,1.94,3.13,1.18,7.93C235.4,21.5,234.8,22.84,232.66,27.26Z"/>
          <path class="cls_tm-14" d="M227.5,25.32c0-.22.68-2,1.45-4.05,1.16,2.55,8.88,7.66,13.25,3.47l-.66,4.3C238.74,31.66,231.84,30.68,227.5,25.32Z"/>
          <g>
            <path class="cls_tm-9" d="M216.07,63.83c4.93-14,6.62-24.12,11.4-41.17,1.16,3.65,10,7.56,15.06,5.05-2.63,19.92-1.05,41.42-5.56,48.85-5.79,9.66-24.8,28-33.81,35-11.21,8.75-16.69,17.95-19.62,15.29-5.1-4.62-9.63-17.47-7.36-23.76C181.12,89.32,203.79,76.51,216.07,63.83Z"/>
            <path class="cls_tm-15" d="M216.07,63.83c4.93-14,6.62-24.12,11.4-41.17a7.44,7.44,0,0,0,3.4,3.56c-2.53,17.17-5.1,31.52-8.38,43.5-13.46,11.74-32.1,20.2-39.73,23.22C191.8,82.93,206.86,73.34,216.07,63.83Z"/>
            <path class="cls_tm-7" d="M227,71.56c3.82-10.84,7.46-29.54,7.26-43.8,2.8.9,5.91,1.1,8.25,0-2.63,19.92-1.05,41.42-5.56,48.85-5.79,9.66-24.8,28-33.81,35-11.21,8.75-16.69,17.95-19.62,15.29-2.5-2.27-4.87-6.52-6.36-11C210.93,93.39,223.55,77.34,227,71.56Z"/>
          </g>
          <polygon class="cls_tm-11" points="240.79 5.73 245.98 9.92 245 16.23 246.36 9.71 241.15 5.21 240.79 5.73"/>
          <polygon class="cls_tm-11" points="242.92 4.18 248.11 8.37 247.13 14.69 248.49 8.16 243.28 3.67 242.92 4.18"/>
          <polygon class="cls_tm-11" points="245.13 2.52 250.31 6.71 249.33 13.03 250.69 6.51 246.07 2.81 245.13 2.52"/>
        </g>
        <g>
          <path class="cls_tm-9" d="M149.29,109.25c7.28-4.13,32.35-20.39,39.75-19.37,19.84,2.75,22.56,20.77,22.15,47.92-.14,9-1.49,17-1.5,28.16,0,13.43,2.8,36.42,2.28,50.63-3.66,8.19-3.56,7.49-9.78,12.73a226.9,226.9,0,0,0,.51-27.42c-1.42,9.78-2.34,19.5-4.45,29.13-10.82,7.74-42.28,12.21-52.4-.12-.23-24.74,8.16-25.11,9.09-40.91.76-12.83-18-46.92-18-64.65C137,117.48,143.53,112.51,149.29,109.25Z"/>
          <path class="cls_tm-7" d="M149.29,109.25l15.7-8.9c-2.32,3.8-10,9.9-16.71,15.69,8.46,12.32,19.14,39.78,20.7,58.82,2.82,34.4-5.93,39.63-5.8,63.41-7.13-.8-13.42-2.57-17.34-7.35-.23-24.74,8.16-25.11,9.09-40.91.76-12.83-18-46.92-18-64.65C137,117.48,143.53,112.51,149.29,109.25Z"/>
          <path class="cls_tm-16" d="M190.65,97c5.79,2.64,6.41,3.55,10.48,9.71l-3.48,2.93,4.43,1.41c1.92,17.87,1,42.25.14,60.39-2.29-17.94-2.33-44-8.46-59.86-1.58-4.07-3.31-6.32-5.77-9.92C187.37,100.76,189.56,96.54,190.65,97Z"/>
          <path class="cls_tm-12" d="M164.29,99.43c-.49,6.42,17.17,14.67,23.84,11.32.7-.35,1.06-1.84,1.49-2.44a11.45,11.45,0,0,1-.7-4.29,18.43,18.43,0,0,1,1.43-5c.78-2.18.76-6.78,2.1-11.87l-20.13-8.55L168,76.34C170.16,86.33,167.93,91,164.29,99.43Z"/>
          <path class="cls_tm-11" d="M164.29,99.43a2.91,2.91,0,0,0,.1,1.08c9.45-6.07,15.41-1.11,26.53-4.2a73.2,73.2,0,0,1,1.54-9.18l-20.13-8.55L168,76.34C170.16,86.33,167.93,91,164.29,99.43Z"/>
          <path class="cls_tm-3" d="M141.13,114.45a8.24,8.24,0,0,1,6-.32c7.59,1.78,14.56,3.23,15.78-5.7-1-2.82-1.66-5.62-1-7.33-6.54,4-15.59,6.58-18.57,9.79C143.23,111,141.21,114.37,141.13,114.45Z"/>
          <path class="cls_tm-14" d="M167.35,102.34c-1.4,26.47,26.86,24.53,34.64,64-1.84-21.89-.93-38.38-10-59l-2,2.91L184,111.32Z"/>
          <g>
            <path class="cls_tm-1" d="M184.58,113c1,4,1.15,4,4.83,6.71-.43,2-.71,3.8-1,5.89,7.48,17.18,9,21.41,13.46,41.15-.2-3.21.43-.8.24-3.52a298.08,298.08,0,0,0-6.28-43.86,12.76,12.76,0,0,0-3.78-1.33c1-4.43.37-7.28-.54-7.81C188.26,110.13,186.9,110.53,184.58,113Z"/>
            <path class="cls_tm-3" d="M184.58,113c1,4,1.15,4,4.83,6.71-.43,2-.71,3.8-1,5.89,7.48,17.18,9,21.41,13.46,41.15-.2-3.21.55-.81.24-3.52A127.39,127.39,0,0,0,191.28,125c-.43-2-.19-3.95-.6-6.16-2.44-3.76-4.38-5-3.76-7.56C183.66,111.21,186.9,110.53,184.58,113Z"/>
          </g>
          <path class="cls_tm-17" d="M188.11,110.49c.75-1.95.17-5.7,1-7.55,2.29.27,4.76,5.69,6.73,9.74C192.79,110.62,191.48,110.45,188.11,110.49Z"/>
          <path class="cls_tm-16" d="M165.45,97.48c-2.64,2.49-4.82,3.63-5.53,5.43-2.21,5.52,4.57,15.09,7.38,24.58l5.22-1.49-1.71,5.29C191.22,146.55,199.95,154,203.3,176,199.21,121.58,164.09,121.08,165.45,97.48Z"/>
          <path class="cls_tm-17" d="M165.75,95.84c-.39,7.38,14.63,12.89,22.46,14.67-1.94,2.39-4.47,5.37-4.34,7.73-5.65-1.49-16.33-5.06-20.27-12.22C160.91,101.12,163.2,97.82,165.75,95.84Z"/>
          <path class="cls_tm-15" d="M171.75,137.19c4.26,18.49,7.89,30.87,8.63,42.27,1.05,16.27-.53,30.64-4.5,57.45L194,232.33c2.32-16.3,7.65-34.6,6.23-52.45C198.79,162.3,190.8,145.11,171.75,137.19Z"/>
          <path class="cls_tm-15" d="M195.53,100.15c10.64,12.24,9.75,29.82,9.75,49,0,27.69,0,49.86-1.34,77.14A24.5,24.5,0,0,0,211.2,216c-1.19-23.07-3.31-48.7-1.84-71.51,1.26-19.43,1.46-38.61-9.94-49.6A20.35,20.35,0,0,1,195.53,100.15Z"/>
          <g>
            <path class="cls_tm-9" d="M173.39,199.64c7.72-3.65,9.84-4.6,16.56-6.33l-2.64,19.78a26.3,26.3,0,0,1-15.92,6.07Z"/>
            <path class="cls_tm-7" d="M173.39,199.64c7.72-3.65,9.84-4.6,16.56-6.33-.83,5.92-.37,5.66-6.27,8.61-10.53,5.26-7.25,5-10.63,17.14-.15.53-1.11.09-1.65.1Z"/>
            <path class="cls_tm-9" d="M173.9,197c7.77-3.65,11.22-5.77,17-8.33l-1.31,8c-1.94,1.89-12.26,7.65-16.87,7.49Z"/>
            <path class="cls_tm-7" d="M173.9,197c7.77-3.65,11.22-5.77,17-8.33-5.57,4.55-15.06,8.14-16.56,15.35a8.13,8.13,0,0,1-1.62.14Z"/>
            <path class="cls_tm-15" d="M188.68,200.36,179,206.2l-3.7,11.38a40.76,40.76,0,0,0,10.81-4.14Z"/>
            <path class="cls_tm-15" d="M190.07,190.06c-4.51,3.38-10.84,8.1-13.44,12.65,5.09-1.81,6.9-2.84,11.9-6A36.48,36.48,0,0,0,190.07,190.06Z"/>
          </g>
          <g>
            <g>
              <path class="cls_tm-9" d="M205.56,187.43c2.53-3,3.23-3.73,5.44-4.88L211,203c-1.22,1.9-4.89,4-5.94,3.8Z"/>
              <path class="cls_tm-7" d="M205.56,187.43c2.53-3,3.23-3.73,5.44-4.88-.24,5.84-.09,5.63-2,8.05-3.45,4.33-2.27,4.34-3.31,16.18a2,2,0,0,1-.65,0Z"/>
              <path class="cls_tm-15" d="M210.63,189.48l-3.17,5-.66,11.35a8.89,8.89,0,0,0,3.65-3.19Z"/>
            </g>
            <g>
              <path class="cls_tm-9" d="M205.1,182.68c2.7-1.65,3.85-2.9,5.87-4l.28,7.77c-.58,1.4-4.07,4.53-5.91,3.15Z"/>
              <path class="cls_tm-7" d="M205.1,182.68c2.7-1.65,3.85-2.9,5.87-4-1.74,3.15-5.13,4.29-5,11.22a1.67,1.67,0,0,1-.63-.29Z"/>
              <path class="cls_tm-15" d="M210.78,179.86c-1.44,2.24-3.47,5.37-4,9.31,1.83-.49,2.44-1.06,4.1-3C210.94,184.08,210.85,182.14,210.78,179.86Z"/>
            </g>
          </g>
        </g>
        <g>
          <path class="cls_tm-12" d="M114.15,219.76c0,10.13-2.73,14.91-2.24,17.12.41,1.87,8.29,10.74,11,12.89.86.63,3-.27,3.32-.65,1.53-1.94,0-5,.9-9.23.52-2.44,2.47-1.89,3.31-1.3,1.35,1,1.73,3.48,2.25,4.9,0-5.84,2.2-10.38-1.14-14.93-1.5-2-3.5-4-4-7.53Z"/>
          <path class="cls_tm-9" d="M143.18,114.15c-11,3.71-20.26,36.14-27,56.41-1.64,17.69-3.48,32.07-3.8,49.84,2.5,4,14.54,10.18,17.59,3.77,1.92-15.16,5.76-32.85,4.48-48.25,5.65-7.41,9.84-15.65,13.67-23.6,2.27-4.71,5.29-10.25,6.81-15.06C154.43,129.1,152.62,117.87,143.18,114.15Z"/>
          <path class="cls_tm-15" d="M127.39,175.24c.81,7.14-.61,31.71-2,51.71a4.9,4.9,0,0,0,4.62-2.77c1.92-15.16,5.76-32.85,4.48-48.25,5.65-7.41,9.84-15.65,13.67-23.6,2.27-4.71,5.29-10.25,6.81-15.06-.3-4.63-1-10.25-3.3-14.93C146.55,133.75,130,167.47,127.39,175.24Z"/>
          <path class="cls_tm-7" d="M143.18,114.15c-11,3.71-20.26,36.14-27,56.41-1.64,17.69-3.48,32.07-3.8,49.84,1.25,2,4.89,4.54,8.59,5.79l-.41-1.39c-.39-16.65.94-34.19,1.85-50.82,8.82-22.5,15.07-34.07,26.74-55A12.89,12.89,0,0,0,143.18,114.15Z"/>
        </g>
        <g>
          <path class="cls_tm-13" d="M188.22,94.3c-2.81.11-8.7,1.55-11.3,1.53-5.7-.06-8.22-4.74-13.23-9.44-5.28,0-7.88-1.13-9.79-3.14-4.55-4.78-5.63-12.68-3.82-18.72,1.59-5.28,5.12-9,10.42-11.26,10.31-4.44,18.82-.33,24.82,7a6.36,6.36,0,0,1,1.12,2.09c.63,1.9.46,3.06.87,4.37C188,69.09,189,69,190,70c1.28,1.3,2.09,4.82,3.57,7.75A29.73,29.73,0,0,1,195,81.42c1,3.14,1.67,7,1,8.05a22.67,22.67,0,0,1-2.52,2.72C192.6,93.11,191.62,93.77,188.22,94.3Z"/>
          <path class="cls_tm-12" d="M188.22,94.3c-2.81.11-8.7,1.55-11.3,1.53-5.7-.06-8.22-4.74-13.23-9.44-5.28,0-7.88-1.13-9.79-3.14-4.55-4.78-5.63-12.68-3.82-18.72,1.59-5.28,5.12-9,10.42-11.26,9-3.86,16.56-1.26,22.33,4.32,0,.68-3.29,5.54-7.57,8.66-2.4,1.75-5.89,1.44-9.23,2.09.9,2.62,6.85,7.59,7.8,9.21.23.39.06,2.87,2,3.86.53.27,1.58.33,1.87,1.15,2.95,8.51,10.43,9.87,14.14,10.83A14.45,14.45,0,0,1,188.22,94.3Z"/>
          <path class="cls_tm-18" d="M159.33,68c1.84,7.12,10.14,14.05,15.18,19.3,1.1,1.15,3,1.83,5.63,2.12,1.33.14,4.2.38,4.53.13,1-.75-.86-3.64,2.39-8,.93-1.26,2.71-3.2,3.56-3.46,1.55-.48,2.35.06,2.7-1,1.24,2.33,4.07,8.5,3.67,11.11-.22,1.44-1.35,2.82-3,4.87-1,1.21-3,1.85-5.78,2.38a41.71,41.71,0,0,1-15-.47c-1.74-.35-2.91-.56-3.36-3.38a26.33,26.33,0,0,0-5.67-12.35c-2.29-2.75-4.15-4-8.34-5.77,1.31-4.46,1.79-12.12,3.52-5.44Zm32.75,19.11c-1.11-1-.91-1.26-.44-2s.84-.7,1.77,0c.56-.73,1-1,1-1.56a2.34,2.34,0,0,0-.63-1.43c-.83-1.12-2.3-1.93-3.25-.85-.67.75-2.14,2.41-2.38,3.38s.53,3.57,1.55,4.28c.34.23.29.48.79.08A6.83,6.83,0,0,0,192.09,87.12Z"/>
          <path class="cls_tm-18" d="M175.69,62.32c-3,.19-12.73.21-17.68.3s-10.54.26-12.23,4.52c-.68,5,2.33,11.78,4.93,14.86,5.09,6,13.69,7.43,16.11,11.42,1.67-2.72.52-8.26.18-10a62.25,62.25,0,0,1-2.26-6.13c-.79-1.35.47-2.12-.35-3.37-2.08-3.15-3.95-4.57-4.35-7.1C160.75,63.31,170.29,65.53,175.69,62.32Z"/>
          <path class="cls_tm-19" d="M175.69,62.32c-3,.19-12.73.21-17.68.3s-10.54.26-12.23,4.52c-.41,3,.51,6.66,1.88,9.75,5.86.6,10-.27,15.41-4.83-1.51-2-2.72-3.27-3-5.25C160.75,63.31,170.29,65.53,175.69,62.32Z"/>
          <path class="cls_tm-19" d="M182.69,89.64a5.7,5.7,0,0,0,2-.08c1-.75-.86-3.64,2.39-8,.93-1.26,2.71-3.2,3.56-3.46,1.55-.48,2.35.06,2.7-1,1.24,2.33,4.07,8.5,3.67,11.11-.22,1.44-1.35,2.82-3,4.87a3.87,3.87,0,0,1-.84.74c-.89-.32-2.16-.62-2.52-.71a21.27,21.27,0,0,1-7.91-3.44Zm9.4-2.51c-1.11-1-.91-1.26-.44-2s.84-.7,1.77,0c.56-.73,1-1,1-1.56a2.34,2.34,0,0,0-.63-1.43c-.83-1.12-2.3-1.93-3.25-.85-.67.75-2.14,2.41-2.38,3.38s.53,3.57,1.55,4.28c.34.23.29.48.79.08A6.83,6.83,0,0,0,192.09,87.12Z"/>
          <path class="cls_tm-18" d="M145.75,67.58c-1.76-3.67-.94-10,3.25-12.52a9.26,9.26,0,0,0-1.36,1.76,28.61,28.61,0,0,1,11.21-7.13c6.25-2,10.27-.79,16.48-.31a19.42,19.42,0,0,0,5.26-.51c5.64,7.88-5.43,15.9-14.44,18.61A46.48,46.48,0,0,1,158,69.63a19.69,19.69,0,0,0,4.44.22C156.1,71.53,148.5,70.17,145.75,67.58Z"/>
          <path class="cls_tm-20" d="M146.41,58.83c2-3.77,7-7.52,11-9.07a41.66,41.66,0,0,1,10.1-2.16,8.26,8.26,0,0,1-2.24,1.13c5.88-.87,7.65,1.05,15.08.1A8.16,8.16,0,0,1,174.84,51a6.23,6.23,0,0,0,1.53.4c-5.3,2.62-7.58,1.15-13.66,1.66a8.48,8.48,0,0,0,1.7.32C158.78,55.36,153.42,52.9,146.41,58.83Z"/>
          <path class="cls_tm-21" d="M145.75,67.58a8.25,8.25,0,0,1-.5-1.36c3.4,1.65,8.63-.22,14.37-3.13a17.06,17.06,0,0,1-3.18,2.78c1.86-.53,6.41-1.08,10.79-4.91a8.38,8.38,0,0,1-1.55,2.66c4.74-3,6.45-5.61,8.67-9.29a6.46,6.46,0,0,1-.64,2.42c1.61-2.22,3.4-4.09,5.12-6.23a13.5,13.5,0,0,1-.77,2.23c1.29-1.36,2.14-2.36,2.41-3.87l.11,0c7.1,9.93-11.3,18.94-19.76,20.19a7.9,7.9,0,0,0,2.26.61C156.77,71.34,148.5,70.17,145.75,67.58Z"/>
          <path class="cls_tm-12" d="M161.52,80.94c-4.46.89-2,5.2.09,7.47,1.43,1.56,2.83.57,4.19,1.68a4.12,4.12,0,0,0,3.94.92,32.73,32.73,0,0,0-2.34-6.85C166.21,82,164.1,80.43,161.52,80.94Z"/>
        </g>
      </g>
    </g>
  </g>
</svg>
