<svg xmlns="http://www.w3.org/2000/svg" xmlns:xlink="http://www.w3.org/1999/xlink" viewBox="0 0 271 200.93" width="271" height="201" class="time-stage__place">
  <defs>
    <style>
      .cls_tp-1 {
        isolation: isolate;
      }

      .cls_tp-2 {
        fill: #08c183;
      }

      .cls_tp-3 {
        opacity: 0.4;
        mix-blend-mode: multiply;
        fill: url(#linear-gradient);
      }

      .cls_tp-4 {
        fill: #373c48;
      }

      .cls_tp-5 {
        fill: #39ffbc;
      }

      .cls_tp-6 {
        fill: #0ddf98;
      }

      .cls_tp-7 {
        opacity: 0.3;
        mix-blend-mode: screen;
        fill: url(#linear-gradient-2);
      }

      .cls_tp-8 {
        fill: #292c36;
      }

      .cls_tp-9 {
        fill: #a0a0a0;
      }

      .cls_tp-10 {
        fill: url(#linear-gradient-3);
      }

      .cls_tp-11 {
        fill: #056643;
      }

      .cls_tp-12 {
        fill: #079160;
      }
    </style>
    <linearGradient id="linear-gradient" y1="142.98" x2="271" y2="142.98" gradientUnits="userSpaceOnUse">
      <stop offset="0" stop-color="#ce2020"/>
      <stop offset="0.07" stop-color="#b52020"/>
      <stop offset="0.17" stop-color="#9a2020"/>
      <stop offset="0.26" stop-color="#862020"/>
      <stop offset="0.36" stop-color="#7b2020"/>
      <stop offset="0.46" stop-color="#772020"/>
      <stop offset="0.5" stop-color="#8b4141"/>
      <stop offset="0.57" stop-color="#a97373"/>
      <stop offset="0.64" stop-color="#c49e9e"/>
      <stop offset="0.71" stop-color="#d9c1c1"/>
      <stop offset="0.78" stop-color="#eadcdc"/>
      <stop offset="0.85" stop-color="#f6f0f0"/>
      <stop offset="0.92" stop-color="#fdfbfb"/>
      <stop offset="1" stop-color="#fff"/>
    </linearGradient>
    <linearGradient id="linear-gradient-2" x1="0.1" y1="118.21" x2="271" y2="118.21" gradientUnits="userSpaceOnUse">
      <stop offset="0" stop-color="#ce2020"/>
      <stop offset="0.06" stop-color="#b52020"/>
      <stop offset="0.15" stop-color="#9a2020"/>
      <stop offset="0.24" stop-color="#862020"/>
      <stop offset="0.33" stop-color="#7b2020"/>
      <stop offset="0.42" stop-color="#772020"/>
      <stop offset="0.46" stop-color="#7d2929"/>
      <stop offset="0.52" stop-color="#8c4343"/>
      <stop offset="0.6" stop-color="#a66c6c"/>
      <stop offset="0.69" stop-color="#c9a6a6"/>
      <stop offset="0.79" stop-color="#f5eeee"/>
      <stop offset="0.82" stop-color="#fff"/>
      <stop offset="0.88" stop-color="#fffdfd"/>
      <stop offset="0.91" stop-color="#fdf6f6"/>
      <stop offset="0.92" stop-color="#faeaea"/>
      <stop offset="0.94" stop-color="#f6d8d8"/>
      <stop offset="0.95" stop-color="#f1c1c1"/>
      <stop offset="0.97" stop-color="#eba5a5"/>
      <stop offset="0.98" stop-color="#e48383"/>
      <stop offset="0.99" stop-color="#db5c5c"/>
      <stop offset="1" stop-color="#d23131"/>
      <stop offset="1" stop-color="#ce2020"/>
    </linearGradient>
    <linearGradient id="linear-gradient-3" x1="107.67" y1="69.39" x2="163.14" y2="69.39" gradientUnits="userSpaceOnUse">
      <stop offset="0" stop-color="#373c48"/>
      <stop offset="0.06" stop-color="#424855"/>
      <stop offset="0.15" stop-color="#4b5160"/>
      <stop offset="0.25" stop-color="#4e5463"/>
      <stop offset="0.31" stop-color="#454b59"/>
      <stop offset="0.48" stop-color="#31343f"/>
      <stop offset="0.58" stop-color="#292c36"/>
      <stop offset="0.78" stop-color="#2c2f3a"/>
      <stop offset="0.97" stop-color="#353a45"/>
      <stop offset="1" stop-color="#373c48"/>
    </linearGradient>
  </defs>
  <title>place</title>
  <g class="cls_tp-1">
    <g id="Layer_2" data-name="Layer 2">
      <g id="Isolation_Mode" data-name="Isolation Mode">
        <g>
          <path class="cls_tp-2" d="M270.87,86.07a.09.09,0,0,1,0,0,10.22,10.22,0,0,1-.56,2c-.07.19-.14.36-.23.54a12.14,12.14,0,0,1-.81,1.54c-.1.14-.16.29-.26.43a15.13,15.13,0,0,1-1.46,1.82c-.13.14-.27.27-.41.4a19.32,19.32,0,0,1-1.54,1.39l-.59.47a22.65,22.65,0,0,1-2.4,1.6L156.38,158c-11.22,6.52-29.51,6.54-40.83,0L8.61,96.27a26,26,0,0,1-2.43-1.62c-.21-.16-.41-.32-.6-.48A19.21,19.21,0,0,1,4,92.77l-.41-.41a14.69,14.69,0,0,1-1.48-1.85c-.1-.14-.16-.28-.26-.43A12.35,12.35,0,0,1,1,88.54C1,88.35.87,88.17.8,88a11.08,11.08,0,0,1-.54-1.93.19.19,0,0,1,0-.07A10,10,0,0,1,.1,84.36L0,121.71a10.63,10.63,0,0,0,1.59,5.46,14,14,0,0,0,.79,1.2c.15.21.32.4.49.61.3.36.62.72,1,1.07.2.19.39.39.6.58.39.36.82.72,1.26,1.07l.62.48a24.46,24.46,0,0,0,2.2,1.44l106.94,61.74c11.33,6.54,29.61,6.52,40.83,0L262.5,133.61a23.21,23.21,0,0,0,2.15-1.41c.22-.16.41-.32.62-.48.43-.34.84-.68,1.22-1,.21-.2.4-.39.6-.59s.65-.68.94-1,.33-.41.48-.61a13,13,0,0,0,.76-1.14,10.63,10.63,0,0,0,1.63-5.45l.1-37.35A9.83,9.83,0,0,1,270.87,86.07Z"/>
          <path class="cls_tp-3" d="M270.87,86.75a.09.09,0,0,1,0,0,10.22,10.22,0,0,1-.56,2c-.07.19-.14.36-.23.54a12.14,12.14,0,0,1-.81,1.54c-.1.14-.16.29-.26.43a15.13,15.13,0,0,1-1.46,1.82c-.13.14-.27.27-.41.4a19.32,19.32,0,0,1-1.54,1.39l-.59.47a22.65,22.65,0,0,1-2.4,1.6L156.38,158.68c-11.22,6.52-29.51,6.54-40.83,0L8.61,96.95a26,26,0,0,1-2.43-1.62c-.21-.16-.41-.32-.6-.48A19.21,19.21,0,0,1,4,93.45L3.6,93A14.69,14.69,0,0,1,2.12,91.2c-.1-.14-.16-.28-.26-.43A12.35,12.35,0,0,1,1,89.22C1,89,.87,88.85.8,88.66a11.08,11.08,0,0,1-.54-1.93.19.19,0,0,1,0-.07A10,10,0,0,1,.1,85L0,122.39a10.63,10.63,0,0,0,1.59,5.46,14,14,0,0,0,.79,1.2c.15.21.32.4.49.61.3.36.62.72,1,1.07.2.19.39.39.6.58.39.36.82.72,1.26,1.07l.62.48a24.46,24.46,0,0,0,2.2,1.44L115.44,196c11.33,6.54,29.61,6.52,40.83,0L262.5,134.29a23.21,23.21,0,0,0,2.15-1.41c.22-.16.41-.32.62-.48.43-.34.84-.68,1.22-1,.21-.2.4-.39.6-.59s.65-.68.94-1,.33-.41.48-.61a13,13,0,0,0,.76-1.14,10.63,10.63,0,0,0,1.63-5.45L271,85.2A9.83,9.83,0,0,1,270.87,86.75Z"/>
          <path class="cls_tp-4" d="M270.9,111.74a10.65,10.65,0,0,1-1.63,5.45,13,13,0,0,1-.76,1.14c-.15.21-.32.41-.48.61-.3.35-.61.69-.94,1s-.38.39-.6.58c-.38.36-.8.7-1.22,1-.21.16-.4.32-.62.48a23.36,23.36,0,0,1-2.15,1.41L156.27,185.22c-11.22,6.52-29.5,6.55-40.83,0L8.5,123.48A24.59,24.59,0,0,1,6.3,122l-.62-.48c-.44-.35-.86-.7-1.26-1.06-.21-.19-.41-.39-.6-.58-.34-.35-.67-.71-1-1.07-.17-.2-.34-.4-.49-.6a14.12,14.12,0,0,1-.79-1.2A10.65,10.65,0,0,1,0,111.63v2.71a10.66,10.66,0,0,0,1.59,5.47,14.12,14.12,0,0,0,.79,1.2c.15.2.32.4.49.6.3.36.62.72,1,1.07l.6.59c.39.36.82.71,1.26,1.07l.62.48a26.16,26.16,0,0,0,2.2,1.43L115.44,188c11.33,6.54,29.61,6.52,40.83,0L262.5,126.25c.78-.45,1.48-.93,2.15-1.41.22-.16.41-.32.62-.49.43-.34.84-.68,1.22-1,.21-.19.4-.38.6-.58s.65-.69.94-1c.16-.2.33-.4.48-.6.28-.38.52-.76.76-1.14a10.66,10.66,0,0,0,1.63-5.45l.1-37.35s0,.06,0,.1Z"/>
          <path class="cls_tp-5" d="M4.62,75.65c0,.21,0,.41,0,.61A8.48,8.48,0,0,0,5,78.18a6,6,0,0,0,.17.58,10.06,10.06,0,0,0,1.2,2.31c.1.14.23.28.33.42a14.52,14.52,0,0,0,1.66,1.82L9,83.9a21,21,0,0,0,2.8,2l106.93,61.74c9.58,5.53,25.06,5.51,34.53,0L259.48,85.87a19.51,19.51,0,0,0,2.77-2c.23-.19.43-.38.64-.57a14,14,0,0,0,1.68-1.85c.09-.12.21-.24.3-.37A10.27,10.27,0,0,0,266,78.79c.08-.19.11-.39.17-.59a8.6,8.6,0,0,0,.31-1.94c0-.19,0-.38,0-.56a8.75,8.75,0,0,0-.4-2.38c0-.16-.14-.31-.19-.47-1-2.56-3.13-5-6.57-7L152.43,4.13c-9.54-5.51-25.05-5.51-34.53,0L11.66,65.88c-3.43,2-5.57,4.44-6.51,7,0,.12-.11.25-.15.37A8.41,8.41,0,0,0,4.62,75.65Z"/>
          <path class="cls_tp-6" d="M269.67,79.46l-4.23-7.8a9.81,9.81,0,0,1,.49,1.18c.05.16.14.31.19.47a8.48,8.48,0,0,1,.4,2.38c0,.19,0,.38,0,.56a8.6,8.6,0,0,1-.31,1.94c-.06.2-.1.4-.17.59a10.27,10.27,0,0,1-1.17,2.31c-.09.13-.21.25-.3.37a14,14,0,0,1-1.68,1.85c-.21.19-.41.38-.64.57a19.51,19.51,0,0,1-2.77,2L153.24,147.61c-9.48,5.51-25,5.53-34.53,0L11.77,85.87a21,21,0,0,1-2.8-2l-.65-.58A14.52,14.52,0,0,1,6.67,81.5c-.1-.14-.23-.27-.33-.42a9.91,9.91,0,0,1-1.2-2.31A6,6,0,0,1,5,78.18a8.54,8.54,0,0,1-.33-1.92c0-.21,0-.41,0-.61A8.41,8.41,0,0,1,5,73.26c0-.12.11-.25.15-.37a10.73,10.73,0,0,1,.58-1.37L1.46,79.29A10.21,10.21,0,0,0,.23,86a.19.19,0,0,0,0,.07A11.08,11.08,0,0,0,.8,88c.08.19.16.37.24.56a11.86,11.86,0,0,0,.82,1.55c.1.14.16.29.26.43A14.69,14.69,0,0,0,3.6,92.36l.41.41a19.21,19.21,0,0,0,1.57,1.39c.19.17.4.32.6.48a26,26,0,0,0,2.43,1.62L115.55,158c11.32,6.54,29.61,6.52,40.83,0L262.61,96.26a22.65,22.65,0,0,0,2.4-1.6l.59-.47a19.32,19.32,0,0,0,1.54-1.39c.13-.13.28-.26.41-.4A15.13,15.13,0,0,0,269,90.59c.1-.14.17-.29.26-.43a12.14,12.14,0,0,0,.81-1.54c.08-.18.16-.36.23-.54a10.22,10.22,0,0,0,.56-2,.09.09,0,0,0,0,0A10.26,10.26,0,0,0,269.67,79.46Z"/>
          <path class="cls_tp-7" d="M269.67,80.46l-4.23-7.8a9.81,9.81,0,0,1,.49,1.18c.05.16.14.31.19.47a8.48,8.48,0,0,1,.4,2.38c0,.19,0,.38,0,.56a8.6,8.6,0,0,1-.31,1.94c-.06.2-.1.4-.17.59a10.27,10.27,0,0,1-1.17,2.31c-.09.13-.21.25-.3.37a14,14,0,0,1-1.68,1.85c-.21.19-.41.38-.64.57a19.51,19.51,0,0,1-2.77,2L153.24,148.61c-9.48,5.51-25,5.53-34.53,0L11.77,86.87a21,21,0,0,1-2.8-2l-.65-.58A14.52,14.52,0,0,1,6.67,82.5c-.1-.14-.23-.27-.33-.42a9.91,9.91,0,0,1-1.2-2.31A6,6,0,0,1,5,79.18a8.54,8.54,0,0,1-.33-1.92c0-.21,0-.41,0-.61A8.41,8.41,0,0,1,5,74.25c0-.12.11-.25.15-.37a10.73,10.73,0,0,1,.58-1.37L1.46,80.29A10.21,10.21,0,0,0,.23,87a.19.19,0,0,0,0,.07A11.08,11.08,0,0,0,.8,89c.08.19.16.37.24.56a11.86,11.86,0,0,0,.82,1.55c.1.14.16.29.26.43A14.69,14.69,0,0,0,3.6,93.36l.41.41a19.21,19.21,0,0,0,1.57,1.39c.19.17.4.32.6.48a26,26,0,0,0,2.43,1.62L115.55,159c11.32,6.54,29.61,6.52,40.83,0L262.61,97.26a22.65,22.65,0,0,0,2.4-1.6l.59-.47a19.32,19.32,0,0,0,1.54-1.39c.13-.13.28-.26.41-.4A15.13,15.13,0,0,0,269,91.58c.1-.14.17-.29.26-.43a12.14,12.14,0,0,0,.81-1.54c.08-.18.16-.36.23-.54a10.22,10.22,0,0,0,.56-2,.09.09,0,0,0,0,0A10.26,10.26,0,0,0,269.67,80.46Z"/>
          <path class="cls_tp-8" d="M209.81,71.93c-.05.65-.05,1.29-.17,1.94s-.35,1.46-.54,2.19-.26,1.27-.47,1.9-.59,1.44-.9,2.17-.47,1.24-.79,1.86-.84,1.43-1.28,2.15-.67,1.2-1.09,1.79-1.13,1.43-1.7,2.14c-.45.56-.84,1.13-1.34,1.68-.67.73-1.46,1.45-2.21,2.17-.51.49-1,1-1.51,1.49-.89.78-1.9,1.52-2.87,2.27-.52.4-1,.82-1.54,1.21q-2.37,1.7-5.08,3.27c-29,16.85-76.18,16.85-105.4,0-1.83-1.06-3.54-2.16-5.15-3.29-.56-.4-1-.82-1.55-1.22-1-.76-2-1.51-2.92-2.29-.55-.47-1-1-1.5-1.46-.78-.73-1.59-1.47-2.27-2.23-.49-.54-.89-1.1-1.34-1.65-.6-.73-1.24-1.45-1.76-2.2-.42-.59-.73-1.19-1.09-1.79S64.4,82.58,64,81.84s-.53-1.24-.8-1.86-.67-1.46-.93-2.2-.32-1.27-.48-1.9-.43-1.48-.55-2.22-.12-1.3-.18-2-.17-1.46-.17-2.19c0,0,0-.08,0-.11l0,7.26c0,11.12,7.31,22.26,22,30.75,29.21,16.87,76.39,16.87,105.39,0C202.71,99,209.94,88.09,210,77.11l0-7.27C210,70.54,209.87,71.23,209.81,71.93Z"/>
          <path class="cls_tp-4" d="M61.08,71.7c.06.65.07,1.3.18,2s.36,1.48.55,2.22.27,1.27.48,1.9.61,1.47.93,2.2.48,1.25.8,1.86.87,1.46,1.32,2.18.67,1.2,1.09,1.79c.52.75,1.16,1.47,1.76,2.2.45.55.85,1.11,1.34,1.65.69.76,1.5,1.5,2.27,2.23.52.49,1,1,1.5,1.46.89.78,1.92,1.54,2.92,2.29.53.4,1,.82,1.55,1.22,1.61,1.13,3.32,2.23,5.15,3.29,29.22,16.87,76.4,16.87,105.4,0q2.71-1.57,5.08-3.27c.55-.39,1-.81,1.54-1.21,1-.76,2-1.5,2.87-2.27.54-.49,1-1,1.51-1.49.76-.72,1.55-1.44,2.21-2.17.49-.55.89-1.12,1.34-1.68.57-.71,1.2-1.41,1.7-2.14s.72-1.2,1.09-1.79.91-1.42,1.28-2.15.52-1.24.79-1.86.65-1.44.9-2.17.32-1.27.47-1.9.42-1.46.54-2.19.11-1.29.17-1.94c1-11.81-6.22-23.81-21.83-32.83-29.22-16.87-76.4-16.86-105.43,0C68.1,47.5,60.9,58.5,60.91,69.51,60.91,70.24,61,71,61.08,71.7Z"/>
          <path class="cls_tp-9" d="M135.64,103.29c-14.71,0-29.44-3.25-40.67-9.74-1.41-.81-2.75-1.67-4-2.55-.27-.19-.51-.38-.76-.59l-.87-.68c-.64-.48-1.28-1-1.85-1.46-.28-.25-.53-.49-.78-.75l-.8-.77c-.49-.46-1-.91-1.39-1.38-.27-.29-.5-.58-.73-.88l-.64-.79c-.38-.45-.76-.9-1.07-1.36s-.42-.65-.61-1l-.55-.91c-.27-.42-.54-.84-.76-1.26s-.3-.67-.44-1l-.41-1a12.47,12.47,0,0,1-.52-1.26c-.12-.35-.19-.69-.27-1l-.25-1A12.1,12.1,0,0,1,78,72.65c-.06-.37-.08-.73-.11-1.11l-.08-.95c0-.43-.09-.86-.09-1.28,0-9.15,6-17.7,17-24.07,22.33-13,58.76-13,81.23,0,11.73,6.77,18,16.25,17.15,26l0,.48a9.46,9.46,0,0,1-.1,1.07c-.07.44-.19.86-.3,1.3l-.23.92c-.08.36-.16.71-.28,1.07s-.34.87-.53,1.3l-.37.87c-.14.35-.28.69-.45,1s-.47.84-.74,1.26l-.52.87c-.19.33-.38.67-.61,1s-.65.85-1,1.27l-.7.86c-.23.3-.45.59-.71.87-.41.45-.86.89-1.32,1.32l-.8.78c-.25.26-.51.53-.8.78-.57.5-1.21,1-1.84,1.48l-.84.65c-.24.2-.49.4-.76.59-1.24.88-2.57,1.74-3.95,2.54C165,100.05,150.33,103.29,135.64,103.29ZM80,70.88l0,.52a7.47,7.47,0,0,0,.08.87,8.64,8.64,0,0,0,.26,1.07l.27,1.07c.06.27.13.54.22.82s.28.71.43,1.06l.45,1.06a8.32,8.32,0,0,0,.36.81,12.11,12.11,0,0,0,.65,1.09l.6,1c.16.27.32.54.51.8s.63.81,1,1.21l.69.86c.19.25.38.5.6.75.38.42.83.84,1.27,1.25l.86.83c.21.21.42.43.65.63.54.47,1.13.92,1.73,1.37l.93.73c.21.17.41.34.64.49,1.2.84,2.49,1.67,3.83,2.45,21.84,12.61,57.27,12.62,79,0,1.33-.77,2.6-1.59,3.78-2.43.22-.16.43-.33.63-.5l.9-.7c.6-.45,1.2-.91,1.72-1.37a9,9,0,0,0,.69-.67l.87-.84c.41-.39.83-.78,1.2-1.19.22-.24.4-.49.6-.74l.75-.93c.3-.37.61-.74.87-1.12s.35-.55.51-.82l.58-1c.22-.36.45-.72.63-1.08s.25-.57.37-.85l.4-1c.17-.37.33-.73.45-1.11a8,8,0,0,0,.22-.87l.25-1a8.65,8.65,0,0,0,.25-1.07,6.87,6.87,0,0,0,.08-.85l0-.54c.76-8.85-5.1-17.56-16-23.88-21.85-12.62-57.29-12.62-79,0C85.54,53.12,79.9,61,79.91,69.3c0,.36,0,.71.08,1.06Z"/>
          <path class="cls_tp-10" d="M107.73,70.17c0,.24,0,.49.07.73s.13.54.2.82.1.47.18.71.23.55.34.82.18.47.3.69.32.54.49.81.25.45.41.67a9.62,9.62,0,0,0,.65.82c.17.21.31.41.49.62s.56.55.85.83.35.36.56.54.71.57,1.09.85c.19.15.36.31.57.45.6.42,1.24.83,1.92,1.23,10.88,6.28,28.44,6.28,39.24,0,.67-.39,1.3-.79,1.9-1.22.2-.14.37-.3.57-.45.36-.27.74-.55,1.06-.84s.38-.37.56-.56.58-.53.82-.81.34-.41.5-.62.45-.53.63-.8.27-.45.41-.67.34-.53.47-.8.19-.46.3-.69.24-.53.34-.8.12-.47.18-.71A8.06,8.06,0,0,0,163,71c0-.23,0-.48.06-.71.38-4.4-2.31-8.87-8.13-12.23-10.88-6.28-28.45-6.28-39.26,0-5.38,3.13-8.06,7.22-8,11.33C107.67,69.62,107.71,69.89,107.73,70.17Z"/>
          <path class="cls_tp-11" d="M19.06,117.63c-3.88-2.24-7.12-7.05-8.23-11.73L7.5,104c0,5.53,3.88,12.26,8.68,15l14.32,8.26,8.9,5.14v-3l-6-3.48Z"/>
          <path class="cls_tp-11" d="M116.66,174.29l-6.86-4-16.35-9.44v-7l-2.86-1.65,0,10,16.36,9.44,6.86,4c3,1.75,5.68,1.51,7.25-.26A7.41,7.41,0,0,1,116.66,174.29Z"/>
          <path class="cls_tp-5" d="M10.82,105.9c1.11,4.68,4.35,9.49,8.23,11.73l14.31,8.27,6,3.48,0-7Z"/>
          <path class="cls_tp-5" d="M93.46,153.92v7l16.35,9.44,6.86,4a7.41,7.41,0,0,0,4.38,1.13,7,7,0,0,0,1.49-4.71Z"/>
          <g>
            <g>
              <polygon class="cls_tp-12" points="47.07 122.51 46.9 145.31 50.52 143.19 50.69 120.39 47.07 122.51"/>
              <polygon class="cls_tp-2" points="45.53 121.67 45.36 144.47 46.9 145.31 47.07 122.51 45.53 121.67"/>
              <polygon class="cls_tp-5" points="50.69 120.39 49.15 119.56 45.53 121.67 47.07 122.51 50.69 120.39"/>
            </g>
            <g>
              <polygon class="cls_tp-12" points="51.45 125.09 51.28 147.89 54.89 145.78 55.07 122.98 51.45 125.09"/>
              <polygon class="cls_tp-2" points="49.91 124.25 49.73 147.06 51.28 147.89 51.45 125.09 49.91 124.25"/>
              <polygon class="cls_tp-5" points="55.07 122.98 53.52 122.14 49.91 124.25 51.45 125.09 55.07 122.98"/>
            </g>
            <g>
              <polygon class="cls_tp-12" points="55.66 127.63 55.49 150.43 59.1 148.31 59.28 125.51 55.66 127.63"/>
              <polygon class="cls_tp-2" points="54.12 126.79 53.94 149.59 55.49 150.43 55.66 127.63 54.12 126.79"/>
              <polygon class="cls_tp-5" points="59.28 125.51 57.73 124.67 54.12 126.79 55.66 127.63 59.28 125.51"/>
            </g>
            <g>
              <polygon class="cls_tp-12" points="59.93 130.47 59.76 153.27 63.38 151.16 63.55 128.35 59.93 130.47"/>
              <polygon class="cls_tp-2" points="58.4 129.63 58.22 152.43 59.76 153.27 59.93 130.47 58.4 129.63"/>
              <polygon class="cls_tp-5" points="63.55 128.35 62.01 127.52 58.4 129.63 59.93 130.47 63.55 128.35"/>
            </g>
            <g>
              <polygon class="cls_tp-12" points="64.18 132.64 64.01 155.44 67.62 153.33 67.8 130.52 64.18 132.64"/>
              <polygon class="cls_tp-2" points="62.64 131.8 62.46 154.6 64.01 155.44 64.18 132.64 62.64 131.8"/>
              <polygon class="cls_tp-5" points="67.8 130.52 66.25 129.69 62.64 131.8 64.18 132.64 67.8 130.52"/>
            </g>
            <g>
              <polygon class="cls_tp-12" points="68.27 134.54 68.09 157.34 71.71 155.22 71.89 132.42 68.27 134.54"/>
              <polygon class="cls_tp-2" points="66.73 133.7 66.55 156.5 68.09 157.34 68.27 134.54 66.73 133.7"/>
              <polygon class="cls_tp-5" points="71.89 132.42 70.34 131.58 66.73 133.7 68.27 134.54 71.89 132.42"/>
            </g>
            <g>
              <polygon class="cls_tp-12" points="72.98 137.61 72.81 160.41 76.43 158.29 76.6 135.49 72.98 137.61"/>
              <polygon class="cls_tp-2" points="71.45 136.77 71.27 159.57 72.81 160.41 72.98 137.61 71.45 136.77"/>
              <polygon class="cls_tp-5" points="76.6 135.49 75.06 134.65 71.45 136.77 72.98 137.61 76.6 135.49"/>
            </g>
          </g>
          <g>
            <g>
              <polygon class="cls_tp-12" points="224.78 123.23 224.96 146.03 221.34 143.92 221.17 121.11 224.78 123.23"/>
              <polygon class="cls_tp-2" points="226.33 122.39 226.51 145.19 224.96 146.03 224.78 123.23 226.33 122.39"/>
              <polygon class="cls_tp-5" points="221.17 121.11 222.72 120.28 226.33 122.39 224.78 123.23 221.17 121.11"/>
            </g>
            <g>
              <polygon class="cls_tp-12" points="221.34 125.4 221.52 148.2 217.9 146.09 217.73 123.28 221.34 125.4"/>
              <polygon class="cls_tp-2" points="222.89 124.56 223.07 147.36 221.52 148.2 221.34 125.4 222.89 124.56"/>
              <polygon class="cls_tp-5" points="217.73 123.28 219.28 122.45 222.89 124.56 221.34 125.4 217.73 123.28"/>
            </g>
            <g>
              <polygon class="cls_tp-12" points="217.81 127.3 217.99 150.1 214.37 147.98 214.2 125.18 217.81 127.3"/>
              <polygon class="cls_tp-2" points="219.36 126.46 219.54 149.26 217.99 150.1 217.81 127.3 219.36 126.46"/>
              <polygon class="cls_tp-5" points="214.2 125.18 215.75 124.34 219.36 126.46 217.81 127.3 214.2 125.18"/>
            </g>
            <g>
              <polygon class="cls_tp-12" points="214.18 129.41 214.35 152.21 210.74 150.1 210.56 127.3 214.18 129.41"/>
              <polygon class="cls_tp-2" points="215.72 128.57 215.9 151.38 214.35 152.21 214.18 129.41 215.72 128.57"/>
              <polygon class="cls_tp-5" points="210.56 127.3 212.11 126.46 215.72 128.57 214.18 129.41 210.56 127.3"/>
            </g>
            <g>
              <polygon class="cls_tp-12" points="210.74 131.58 210.91 154.38 207.3 152.27 207.13 129.47 210.74 131.58"/>
              <polygon class="cls_tp-2" points="212.28 130.74 212.46 153.55 210.91 154.38 210.74 131.58 212.28 130.74"/>
              <polygon class="cls_tp-5" points="207.13 129.47 208.67 128.63 212.28 130.74 210.74 131.58 207.13 129.47"/>
            </g>
            <polygon class="cls_tp-12" points="207.21 133.48 207.39 156.28 203.77 154.16 203.6 131.36 207.21 133.48"/>
            <polyline class="cls_tp-2" points="207.21 133.48 208.75 132.64 208.93 155.44 207.39 156.28"/>
            <polygon class="cls_tp-5" points="203.6 131.36 205.14 130.52 208.75 132.64 207.21 133.48 203.6 131.36"/>
          </g>
        </g>
      </g>
    </g>
  </g>
</svg>
