<svg id="Isolation_Mode" data-name="Isolation Mode" xmlns="http://www.w3.org/2000/svg" width="188.001" height="199.9" viewBox="0 0 188.001 199.9">
  <title>man</title>
  <g>
    <path d="M74.012,1.993C59.086-5.9,55.162,11.928,44.434,15.643c-10.979,3.8-19.918-3.37-28.609,9.88C12.994,29.839,9.985,35.026,0,37.375,47.928,88.815,111.549,53.481,145.542,63.708c3.976,1.2,7.6,2.167,7.77-4.165a5.707,5.707,0,0,1,2.116-4.3c2.088-1.638,5.827-1.241,10.533-.054,2.447.617,4.17.217,3.452-3.247C165.728,34.161,99.545,32.267,74.012,1.993Z" style="fill: #d60138;fill-rule: evenodd"/>
    <path d="M67.427.012a12.032,12.032,0,0,0-8.22,3.09c9.371,11.853,20.32,18.091,32.631,22.41,14.206,4.984,30.48,7.075,47.975,12.639,17.858,5.68,21.72,8.44,27.475,17.267a2.137,2.137,0,0,0,1.827-.538c-5.963-12.319-14.027-13.343-28.844-18.106-15.258-4.9-33.055-9.508-47.536-16.1C81.221,15.428,71.8,8.926,67.427.012Z" style="fill: #ff0143;fill-rule: evenodd"/>
    <path d="M54.567,7.615c-3.047,3.26-6.112,6.635-10.134,8.028a25.2,25.2,0,0,1-7.561,1.274C50.344,27.9,62.761,34.7,75.769,37.986c32.523,8.219,62.531-.062,78.91,17.973a5.281,5.281,0,0,1,.748-.717c1.086-.852,3.238-1.537,6.893-.865-15.044-20.129-53.2-18.694-76.5-26.716C72.886,23.206,61.7,17.221,54.567,7.615Z" style="fill: #d60138;fill-rule: evenodd"/>
    <path d="M49.345,12.768a16.129,16.129,0,0,1-4.911,2.876l-.154.053c11.2,9.336,22.39,15.583,34.054,18.53,32.113,8.116,60.74,3.387,77.1,21.009a6.158,6.158,0,0,1,3-1.068c-15.682-19.177-54.5-15.144-77.571-23.088C68.583,26.85,56.9,21.459,49.345,12.768Z" style="fill: #c10239;fill-rule: evenodd"/>
    <path d="M26.061,17.516a14.187,14.187,0,0,0-6.3,3.319C27.851,28.1,34.9,33.718,42.147,37.916c17.444,10.1,44.8,13.409,64.388,11.746,18.351-1.558,34.682.675,46.97,8.6a5.859,5.859,0,0,1,.483-1.276c-11.646-9.661-26.7-12.926-46.428-11.251C87.975,47.394,62.5,41.689,45.053,31.592A123.689,123.689,0,0,1,26.061,17.516Z" style="fill: #ff0143;fill-rule: evenodd"/>
    <path d="M15.985,25.284c-.053.08-.107.157-.16.239C12.994,29.839,9.985,35.026,0,37.375,47.928,88.815,111.549,53.481,145.542,63.708c3.931,1.183,7.512,2.144,7.763-3.95-12.962-7.744-31.133-7.625-50.359-5.993C83.36,55.427,56,52.628,38.558,42.531,31.251,38.3,24.154,32.634,15.985,25.284Z" style="fill: #a80231;fill-rule: evenodd"/>
    <path d="M11.331,31.485a19.4,19.4,0,0,1-4.358,3.288C22.091,48.231,33.666,55.82,50.161,59.153c11.357,2.294,27.243,3.216,42.016,1.962,23.979-2.036,47.473-6.827,60.151,2.319a4.073,4.073,0,0,0,.579-1.16c-14.176-8.788-34.255-5.906-55.944-4.065-14.773,1.254-30.659.333-42.016-1.962C38.3,52.883,26.659,45.182,11.331,31.485Z" style="fill: #d60138;fill-rule: evenodd"/>
  </g>
  <g>
    <g>
      <path d="M175.374,77.858A133.084,133.084,0,0,1,165.4,63.022c-2.25-4.555-1.675-9.567-.033-11.277s5.722-.266,9.412,3.615c2.5,2.627,4.787,6.654,6.693,9.93,1.35,2.32,5.614,8.368,6.364,12.788a6.074,6.074,0,0,1-1.169,4.861C183.433,86.735,177.354,80.312,175.374,77.858Z" style="fill: #181624;fill-rule: evenodd"/>
      <path d="M175.374,77.858A133.084,133.084,0,0,1,165.4,63.022c-2.25-4.555-1.675-9.567-.033-11.277.887-.924,2.475-.931,4.327-.136,2.1,2,4.135,2.966,5.829,6.435,2.157,4.418,3.26,9.7,5.269,14.218a21,21,0,0,0,3.721,5.625l3.157,3.161a5.15,5.15,0,0,1-1,1.892C183.433,86.735,177.354,80.312,175.374,77.858Z" style="fill: #11101a;fill-rule: evenodd"/>
    </g>
    <path d="M147.525,184.887a11.341,11.341,0,0,0-.937,3.613c.05.979.317,1.931.3,3.169-.011,1.062-.065,1.965-.188,3.166-.126,1.23,0,1.811.542,2.3a18.882,18.882,0,0,0,4.725,2.452,4.967,4.967,0,0,0,2.166.291,9.639,9.639,0,0,0,2.9-.529c.267-.1.541-1.137.56-2.036.041-1.882-.13-1.723-.909-4.706-.266-1.019-.481-1.991-.847-3.181a16.93,16.93,0,0,1-1.081-4.246l-5.512-.215Z" style="fill: #111214;fill-rule: evenodd"/>
    <path d="M147.525,184.887a11.341,11.341,0,0,0-.937,3.613c.05.979.317,1.931.3,3.169-.011,1.062-.065,1.965-.188,3.166-.126,1.23,0,1.811.542,2.3a18.882,18.882,0,0,0,4.725,2.452,4.967,4.967,0,0,0,2.166.291,9.639,9.639,0,0,0,2.9-.529c.242-.091.489-.949.548-1.778h-.015a6.212,6.212,0,0,1-4.938.013c-3.416-1.669-2.972-3.054-2.65-6.993,2.222-.391,3.1-.787,4.224-2-1.895.557-3.932.656-4.939-.5l-.313-3.134Z" style="fill-rule: evenodd"/>
    <path d="M170.766,172.554c.592,2.081.742,3.155,1.606,4.365,1.724,2.415,4.265,4.14,7.964,6.763,1.76,1.248,2.132,2.431.35,3.518-1.4.857-4.838.176-6.982-.329-4.025-.947-5.652-3.369-7.028-4l-1.042.236c-.853.015-4.207-1.339-4.861-2.215a23.949,23.949,0,0,1-.525-3.119c-.124-3.406.41-3.06,1.321-5.724C164.664,172.275,167.663,172.448,170.766,172.554Z" style="fill: #111214;fill-rule: evenodd"/>
    <path d="M181.852,185.641c.018.538-.346,1.059-1.166,1.559-1.4.857-4.838.176-6.982-.329-4.025-.947-5.652-3.369-7.028-4l-1.042.236c-.853.015-4.207-1.339-4.861-2.215a23.965,23.965,0,0,1-.525-3.119c-.124-3.406.41-3.06,1.321-5.724,1.37.1,2.721.189,4.071.267.244,2.243-.083,6.111,1.762,7.55,2.064,1.61,3.674,2.038,5.053,2.877C176.847,185.415,179.749,187.585,181.852,185.641Z" style="fill-rule: evenodd"/>
    <path d="M176.458,106.769c.669,7.9-2.06,23.957-3.293,33.512-1.51,11.708-.979,23.345-1.682,35.077-1.456,2.389-8.481,2.536-10.881-.823-.359-9.281-.94-16.609-.677-21.687.219-4.227.419-6.663,1.787-10.42-1.172-8.039-2.863-23.4-2.505-32.367l7.516-3.007,4.009-3.293Z" style="fill: #11101a;fill-rule: evenodd"/>
    <path d="M176.458,106.769a46.846,46.846,0,0,1-.189,8.139,21.3,21.3,0,0,1-8.194,8.362c-.59,5.54-.551,13.531-.644,19.124-2.3,10.888-2.887,18.57-1.416,34.688a7.278,7.278,0,0,1-5.413-2.546c-.359-9.281-.94-16.609-.677-21.687.219-4.227.419-6.663,1.787-10.42-1.172-8.039-2.863-23.4-2.505-32.367l7.516-3.007,4.009-3.293Z" style="fill: #0a090f;fill-rule: evenodd"/>
    <path d="M162.963,110.98c.448,7.916-2.654,27.951-4.153,37.467-1.836,11.661-2.123,25.334-3.154,37.041-1.594,2.492-7.6,3.005-9.894-.1-.1-9.287-.942-19.685-.538-24.754a32.033,32.033,0,0,1,2.511-10.5c-.236-7.381-4.16-36.8,1.287-41.761l8.3-.568Z" style="fill: #181624;fill-rule: evenodd"/>
    <path d="M162.963,110.981a77.255,77.255,0,0,1-.9,13,23.464,23.464,0,0,1-9.3,1.816c-.125,5.5-.533,17.149-1.056,23.342a20.434,20.434,0,0,0,.507,4.607c-1.961,9.27-2,25.755-2.013,33.78a5.91,5.91,0,0,1-4.435-2.129c-.1-9.287-.943-19.685-.538-24.754a32.027,32.027,0,0,1,2.511-10.5c-.236-7.381-4.16-36.795,1.286-41.76l8.3-.568Z" style="fill: #11101a;fill-rule: evenodd"/>
    <path d="M147.852,60.892c3.438-1.907,15.3-9.442,18.765-8.928,9.312,1.379,10.514,9.859,10.2,22.619-.1,4.237-.776,7.963-.828,13.228-.063,6.311,1.156,17.131.849,23.808-1.758,3.831-1.706,3.5-4.653,5.942a106.641,106.641,0,0,0,.358-12.886c-.712,4.589-1.185,9.156-2.219,13.673-5.12,3.589-19.927,5.552-24.625-.286,0-11.629,3.944-11.764,4.454-19.19.414-6.029-8.25-22.134-8.171-30.466C142.016,64.705,145.129,62.4,147.852,60.892Z" style="fill: #1f1c2e;fill-rule: evenodd"/>
    <path d="M147.852,60.892l7.42-4.115c-1.074,1.723-3.875,3.845-6.987,6.459,1.084.405,6.851,5.374,7.131,9.745.225.334-7.563-7.785-7.333-7.406,3.785,6.228,8.124,17.8,8.737,26.239,1.176,16.182-3.089,19.135-3.133,30.31-3.221-.515-6.167-1.8-7.99-4.064,0-11.629,3.944-11.764,4.454-19.19.414-6.029-8.25-22.134-8.171-30.466C142.016,64.705,145.129,62.4,147.852,60.892Z" style="fill: #181624;fill-rule: evenodd"/>
    <path d="M167.345,55.335c2.712,1.266,3,1.7,4.882,4.608L170.58,61.3l2.076.68c.825,8.406.276,19.862-.2,28.384-1-8.443-.9-20.7-3.714-28.173a20.851,20.851,0,0,0-2.668-4.69C165.788,57.071,166.835,55.1,167.345,55.335Z" style="fill: #2f2c45;fill-rule: evenodd"/>
    <path d="M154.944,56.343c-.257,3.018,8.006,6.969,11.154,5.425.332-.163.506-.86.711-1.142a5.38,5.38,0,0,1-.309-2.018,8.664,8.664,0,0,1,.7-2.35c.376-1.021.388-3.181,1.038-5.572l-9.423-4.107-2.018-1.07C157.759,50.213,156.693,52.4,154.944,56.343Z" style="fill: #e8a476;fill-rule: evenodd"/>
    <path d="M154.944,56.343a1.365,1.365,0,0,0,.041.507c4.466-2.812,7.247-.456,12.486-1.856a34.39,34.39,0,0,1,.762-4.308l-9.423-4.107-2.018-1.07C157.759,50.213,156.693,52.4,154.944,56.343Z" style="fill: #db9669;fill-rule: evenodd"/>
    <path d="M156.371,57.723c-.772,12.436,12.519,11.647,16,30.209-.769-10.3-.268-18.044-4.438-27.775l-.966,1.36-2.792.5Z" style="fill: #d1d7f2;fill-rule: evenodd"/>
    <path d="M164.424,62.807c.451,1.884.524,1.877,2.239,3.175-.212.957-.349,1.784-.486,2.765,3.44,8.109,4.145,10.1,6.143,19.4-.079-1.507.2-.374.128-1.655a140.124,140.124,0,0,0-2.757-20.644,5.994,5.994,0,0,0-1.77-.64c.469-2.079.207-3.419-.219-3.671A3.462,3.462,0,0,0,164.424,62.807Z" style="fill: #ff0143;fill-rule: evenodd"/>
    <path d="M164.424,62.807c.451,1.884.524,1.877,2.239,3.175-.212.957-.349,1.784-.486,2.765,3.44,8.109,4.145,10.1,6.143,19.4-.079-1.507.2-.374.128-1.655l-.019-.311a74.816,74.816,0,0,0-5.082-17.774,15.85,15.85,0,0,1-.034-2.838,5.083,5.083,0,0,1-2.239-3.366l.064-.05-.064.1-.007-.044A6.791,6.791,0,0,0,164.424,62.807Z" style="fill: #d60138;fill-rule: evenodd"/>
    <path d="M166.094,61.648c.363-.913.107-2.678.484-3.543,1.073.136,2.211,2.694,3.122,4.608A4.921,4.921,0,0,0,166.094,61.648Z" style="fill: #e6edff;fill-rule: evenodd"/>
    <path d="M155.5,55.433c-1.253,1.16-2.28,1.687-2.625,2.526-1.064,2.585,2.08,7.111,3.359,11.586l2.46-.679-.826,2.477c9.526,7.264,13.6,10.788,15.077,21.171C171.258,66.908,154.754,66.518,155.5,55.433Z" style="fill: #2f2c45;fill-rule: evenodd"/>
    <path d="M155.051,188.893c-1.595,1.258-1.036,1.808-3.364,2.112a13.061,13.061,0,0,0,1.814,4.538c.094.877.165,2.028,1.873,2.039,3.19.02.977-2.613.966-2.711A26.39,26.39,0,0,0,155.051,188.893Z" style="fill: #20232e;fill-rule: evenodd"/>
    <path d="M159.165,125.83a15.628,15.628,0,0,1-4.975,1.074c-.727,10.636-.826,17.782-1,27.535l-2.38,32.26a3.141,3.141,0,0,0,1.915-.393C154.04,166.632,155.689,145.252,159.165,125.83Z" style="fill: #1f1c2e;fill-rule: evenodd"/>
    <path d="M171.742,176.378c-.439.648-1.3,1.014-2.729,1.369,2.3,2.595,2.626,2.352,5.718,4.089,1.557,1.78,1.774,2.118,2.768,2.692,1.187.685,2.863,1.39,3.567.883.3-.218-.1-.827-1.412-1.775-1.483-1.074-2.992-2.163-4.357-3.3A16.078,16.078,0,0,1,171.742,176.378Z" style="fill: #20232e;fill-rule: evenodd"/>
    <path d="M155.646,54.662c-.215,3.466,6.82,6.122,10.493,7-.922,1.112-2.123,2.5-2.076,3.615-2.648-.724-7.652-2.449-9.472-5.835A3.431,3.431,0,0,1,155.646,54.662Z" style="fill: #e6edff;fill-rule: evenodd"/>
    <path d="M175.409,117.813A48.449,48.449,0,0,1,170,122.628c-.515,8.633-1.045,20.9-2,29.494l.213,25.372A4.854,4.854,0,0,0,171,176.05l.407-29.724C172.659,138.069,173.923,126.031,175.409,117.813Z" style="fill: #181624;fill-rule: evenodd"/>
    <path d="M158.283,74.125c1.92,8.708,3.574,14.545,3.871,19.9.424,7.65-.386,14.4-2.368,26.984l8.519-2.076c1.163-7.649,3.748-16.231,3.158-24.626C170.882,86.043,167.206,77.931,158.283,74.125Z" style="fill: #262338;fill-rule: evenodd"/>
    <path d="M158.781,103.485a34.34,34.34,0,0,1,7.81-2.9l-1.327,9.287a12.361,12.361,0,0,1-7.507,2.782Z" style="fill: #1f1c2e;fill-rule: evenodd"/>
    <path d="M158.781,103.485a34.34,34.34,0,0,1,7.81-2.9c-.416,2.778-.2,2.661-2.983,4.018-4.972,2.424-3.43,2.316-5.074,8.01-.072.251-.521.037-.777.041Z" style="fill: #181624;fill-rule: evenodd"/>
    <path d="M169.624,56.818c4.947,5.8,4.451,14.059,4.368,23.059-.12,13.017-.2,23.436-.968,36.25a11.516,11.516,0,0,0,3.454-4.778c-.456-10.846-1.344-22.9-.551-33.618.676-9.125.855-18.14-4.452-23.356A9.556,9.556,0,0,1,169.624,56.818Z" style="fill: #262338;fill-rule: evenodd"/>
    <path d="M159.031,102.267c3.667-1.682,5.3-2.664,8.021-3.838l-.651,3.75c-.922.879-5.793,3.54-7.964,3.449Z" style="fill: #1f1c2e;fill-rule: evenodd"/>
    <path d="M159.031,102.267c3.667-1.682,5.3-2.664,8.021-3.838-2.637,2.112-7.114,3.758-7.851,7.141a3.812,3.812,0,0,1-.764.057Z" style="fill: #181624;fill-rule: evenodd"/>
    <g>
      <path d="M174.422,97.886A7.236,7.236,0,0,1,177,95.617l-.107,9.591a4.676,4.676,0,0,1-2.811,1.759Z" style="fill: #1f1c2e;fill-rule: evenodd"/>
      <path d="M173.956,97.886a7.236,7.236,0,0,1,2.579-2.269c-.137,2.744-.066,2.645-.985,3.775-1.642,2.02-1.084,2.029-1.627,7.589a.923.923,0,0,1-.306-.013Z" style="fill: #181624;fill-rule: evenodd"/>
      <path d="M176.329,98.871l-1.513,2.33-.359,5.331a4.178,4.178,0,0,0,1.729-1.482Z" style="fill: #262338;fill-rule: evenodd"/>
    </g>
    <path d="M165.966,103.886l-4.582,2.7-1.79,5.333a19.165,19.165,0,0,0,5.1-1.9Z" style="fill: #262338;fill-rule: evenodd"/>
    <path d="M166.664,99.054c-2.134,1.567-5.131,3.76-6.371,5.888a22.175,22.175,0,0,0,5.619-2.774A17.148,17.148,0,0,0,166.664,99.054Z" style="fill: #262338;fill-rule: evenodd"/>
    <g>
      <path d="M173.76,95.65c1.277-.766,1.823-1.346,2.777-1.839l.1,3.656c-.278.658-1.934,2.112-2.791,1.456Z" style="fill: #1f1c2e;fill-rule: evenodd"/>
      <path d="M173.76,95.65c1.277-.766,1.823-1.346,2.777-1.839-.834,1.472-2.43,1.992-2.4,5.252a.786.786,0,0,1-.293-.14Z" style="fill: #181624;fill-rule: evenodd"/>
      <path d="M176.444,94.348A10.971,10.971,0,0,0,174.5,98.7a3.292,3.292,0,0,0,1.938-1.375C176.5,96.332,176.466,95.42,176.444,94.348Z" style="fill: #262338;fill-rule: evenodd"/>
    </g>
    <g>
      <path d="M166.016,95.1c6.908-5.111,6.766-7.055,11.361-16.7a5.245,5.245,0,0,0-4.1-2.706c-1.919,2.479-7.889,7.447-11.981,12.47-1.965,2.412-2.659,6.215-1.346,7.212a5.6,5.6,0,0,0,3.368.969A5.365,5.365,0,0,0,166.016,95.1Z" style="fill: #1f1c2e;fill-rule: evenodd"/>
      <path d="M166.016,95.1c6.908-5.111,6.766-7.055,11.361-16.7a5.646,5.646,0,0,0-2.213-2.158c-3.73,4.651-5.7,11.421-10.209,14.992-2.378,1.882-2.072,1.3-4.142-.867q-.278-.291-.552-.588c-1.126,2.232-1.352,4.8-.308,5.6a5.6,5.6,0,0,0,3.368.969A5.365,5.365,0,0,0,166.016,95.1Z" style="fill: #181624;fill-rule: evenodd"/>
      <path d="M164.94,78.092a29,29,0,0,0-3.431.312,4.071,4.071,0,0,0-2.393,1.6l2.874,7.329c1.633-1.911,3.491-3.794,5.246-5.515l-.076-1.119Z" style="fill: #f1b287;fill-rule: evenodd"/>
      <path d="M164.559,77.992a4.667,4.667,0,0,1,1.938,4.717c5.92.9,16.093,2.05,19.508,1.16,1.521-.4,2.11-2.293,1.977-4.742-.1-1.8-2.98-3.657-7.034-3.7C177.217,75.391,168,77.338,164.559,77.992Z" style="fill: #1f1c2e;fill-rule: evenodd"/>
      <path d="M166.217,80.026a4.562,4.562,0,0,1,.281,2.683c5.92.9,16.093,2.05,19.508,1.16,1.521-.4,2.11-2.293,1.977-4.742a1.371,1.371,0,0,0-.213-.651C186.046,82.563,171.9,78.7,166.217,80.026Z" style="fill: #181624;fill-rule: evenodd"/>
      <path d="M142.315,71.752c1.693,5.548,8.168,14.6,12.892,20.126a15.448,15.448,0,0,0,4.964,3.678c1.323.634,2.487,1.131,3.727.653,2.71-1.045,1.58-5.39.271-8.061-1.551-3.164-4.6-6.422-7.387-13.223-2.986-7.283-8.57-11.026-11.994-10.238C142.577,65.2,141.138,67.9,142.315,71.752Z" style="fill: #1f1c2e;fill-rule: evenodd"/>
      <path d="M142.315,71.752c1.693,5.548,8.168,14.6,12.892,20.126a15.45,15.45,0,0,0,4.964,3.678c1.323.634,2.487,1.131,3.727.653,1.86-.717,1.911-2.99,1.337-5.208q-.138.116-.279.228c-2.378,1.882-2.072,1.3-4.142-.867A80.873,80.873,0,0,1,144.76,64.694C142.564,65.22,141.144,67.912,142.315,71.752Z" style="fill: #181624;fill-rule: evenodd"/>
      <path d="M173.523,75.721c1.436-2.119,2.711-3.463,3.8-3.309,1.132.16,2.8,1.561,3.683,3.018h-.056a42.112,42.112,0,0,0-6.115.653A5.551,5.551,0,0,0,173.523,75.721Z" style="fill: #e8a476;fill-rule: evenodd"/>
    </g>
    <g>
      <path d="M166.15,55.351c-1.226-.492-4.03-1-5.142-1.514-2.434-1.12-2.617-3.611-3.864-6.589-2.269-1.01-3.163-2-3.6-3.229a9.385,9.385,0,0,1,1.954-8.765,8.157,8.157,0,0,1,6.633-2.83c5.277.074,8.139,3.47,9.3,7.784a2.993,2.993,0,0,1,.08,1.114c-.094.935-.392,1.4-.466,2.04-.132,1.139.316,1.274.553,1.91.3.8-.03,2.47.046,4.01a13.985,13.985,0,0,1-.115,1.845c-.157,1.545-.622,3.317-1.124,3.644a10.644,10.644,0,0,1-1.6.684C168.259,55.684,167.712,55.774,166.15,55.351Z" style="fill: #f1b287;fill-rule: evenodd"/>
      <path d="M166.15,55.351c-1.226-.492-4.03-1-5.142-1.514-2.434-1.12-2.617-3.611-3.864-6.589-2.269-1.01-3.163-2-3.6-3.229a9.385,9.385,0,0,1,1.954-8.765,8.157,8.157,0,0,1,6.633-2.83,9.067,9.067,0,0,1,8.752,6.138,11.6,11.6,0,0,1-4.911,2.262c-1.366.289-2.8-.51-4.362-.875-.115,1.3,1.483,4.571,1.578,5.448.023.212-.525,1.245.113,2.04.174.216.616.446.581.85-.368,4.216,2.583,6.237,3.991,7.359A6.791,6.791,0,0,1,166.15,55.351Z" style="fill: #e8a476;fill-rule: evenodd"/>
      <path d="M158.8,38.529c-.577,3.408,1.655,7.975,2.81,11.193a4.244,4.244,0,0,0,2.009,1.989,8.576,8.576,0,0,0,1.921.926c.573-.13.33-1.729,2.566-2.984a5.9,5.9,0,0,1,2.19-.8c.758.092,1,.475,1.352.083.084,1.235.115,4.426-.557,5.473a5.5,5.5,0,0,1-2.237,1.506,4.714,4.714,0,0,1-2.936-.088,19.607,19.607,0,0,1-6.343-3.077,1.553,1.553,0,0,1-.791-2.1,12.379,12.379,0,0,0-.064-6.389,8.7,8.7,0,0,0-2.474-4.075c1.419-1.663,3.095-4.857,2.553-1.659Zm10.386,14.486c-.279-.649-.151-.715.189-.927.393-.245.493-.138.763.333.38-.2.62-.258.735-.475a1.1,1.1,0,0,0,0-.733c-.143-.642-.615-1.267-1.232-.99a5.6,5.6,0,0,0-1.669.994,2.7,2.7,0,0,0-.156,2.133c.1.164.032.259.322.188A3.211,3.211,0,0,0,169.189,53.015Z" style="fill: #361d07;fill-rule: evenodd"/>
      <path d="M166.914,39.224c-1.312-.487-5.5-2.355-7.642-3.263-2.187-.929-4.571-1.909-6.115-.406-1.256,2.022-1.261,5.5-.734,7.322a11.534,11.534,0,0,0,5.115,6.571c1.068.7,1.416-2.021,1.6-2.842a29.265,29.265,0,0,1,.208-3.063c-.081-.73.607-.822.494-1.512-.288-1.749-.818-2.717-.5-3.879C160.313,36.783,163.982,39.568,166.914,39.224Z" style="fill: #361d07;fill-rule: evenodd"/>
      <path d="M166.914,39.224c-1.312-.487-5.5-2.355-7.642-3.263-2.187-.929-4.571-1.909-6.115-.406a9.078,9.078,0,0,0-1.065,4.545,8.512,8.512,0,0,0,7.54.886,5.632,5.632,0,0,1-.292-2.834C160.313,36.783,163.982,39.568,166.914,39.224Z" style="fill: #4f2b0c;fill-rule: evenodd"/>
      <path d="M164.676,52.29a2.688,2.688,0,0,0,.867.347c.573-.13.33-1.729,2.566-2.984a5.9,5.9,0,0,1,2.19-.8c.758.092,1,.475,1.352.083.084,1.235.115,4.426-.557,5.473a5.5,5.5,0,0,1-2.237,1.506,1.813,1.813,0,0,1-.5.158c-.322-.309-.807-.68-.943-.787a10,10,0,0,1-2.736-2.994Zm4.513.725c-.279-.649-.151-.715.189-.927.393-.245.493-.138.763.333.38-.2.62-.258.735-.475a1.1,1.1,0,0,0,0-.733c-.143-.642-.615-1.267-1.232-.99a5.6,5.6,0,0,0-1.669.994,2.7,2.7,0,0,0-.156,2.133c.1.164.032.259.322.188A3.211,3.211,0,0,0,169.189,53.015Z" style="fill: #4f2b0c;fill-rule: evenodd"/>
      <path d="M153.055,35.737c-.05-1.914,1.511-4.455,3.8-4.747a4.36,4.36,0,0,0-.923.492,13.448,13.448,0,0,1,6.178-.907c3.064.347,4.56,1.631,7.131,3.028a9.129,9.129,0,0,0,2.356.789c.906,4.463-5.379,5.779-9.765,5.213a21.857,21.857,0,0,1-3.922-.642,9.258,9.258,0,0,0,1.864.949C156.739,39.419,153.741,37.374,153.055,35.737Z" style="fill: #361d07;fill-rule: evenodd"/>
      <path d="M155.019,32.109a10.986,10.986,0,0,1,6.453-1.785,19.58,19.58,0,0,1,4.747,1.011,3.88,3.88,0,0,1-1.178.053c2.688.754,3.083,1.92,6.452,2.936a3.836,3.836,0,0,1-2.769-.123,2.932,2.932,0,0,0,.58.466c-2.777.107-3.474-.959-6.18-1.908a3.989,3.989,0,0,0,.668.466C160.992,33,159.167,30.909,155.019,32.109Z" style="fill: #4a2b12;fill-rule: evenodd"/>
      <path d="M153.055,35.737a3.852,3.852,0,0,1,.045-.678c1.144,1.361,3.742,1.563,6.766,1.416a8.014,8.014,0,0,1-1.9.58,10.815,10.815,0,0,0,5.573-.035,3.942,3.942,0,0,1-1.178.844,11.162,11.162,0,0,0,5.5-2.321,3.038,3.038,0,0,1-.738.914c1.117-.645,2.243-1.1,3.393-1.688a6.321,6.321,0,0,1-.756.809,3.544,3.544,0,0,0,1.778-1.2l.052.012c1.142,5.623-8.485,5.959-12.351,4.87a3.71,3.71,0,0,0,.853.694C157.065,39.463,153.741,37.374,153.055,35.737Z" style="fill: #241304;fill-rule: evenodd"/>
      <path d="M157.26,44.5c-2.082-.475-1.852,1.848-1.394,3.223.315.945,1.106.789,1.475,1.523a1.935,1.935,0,0,0,1.512,1.15,15.387,15.387,0,0,0,.313-3.388A2.582,2.582,0,0,0,157.26,44.5Z" style="fill: #e8a476;fill-rule: evenodd"/>
    </g>
  </g>
  <g>
    <path d="M144.345,63.377c.4.106.8.212,1.2.331,3.508,1.056,6.737,1.934,7.57-2.22a5.858,5.858,0,0,1-.28-3.468c-3.185,1.692-6.88,3.826-8.37,5.244Z" style="fill: #a80231;fill-rule: evenodd"/>
    <path d="M144.345,63.377c.4.106.8.212,1.2.331,3.508,1.056,6.737,1.934,7.569-2.221a10.4,10.4,0,0,1-.43-2.094q-.588-.336-1.19-.651a40.9,40.9,0,0,0-7.029,4.521Z" style="fill: #a80231;fill-rule: evenodd"/>
    <path d="M147.762,60.9a23.014,23.014,0,0,1,4.566,2.535,4.073,4.073,0,0,0,.579-1.16,33.274,33.274,0,0,0-3.957-2.092C148.543,60.422,148.145,60.661,147.762,60.9Z" style="fill: #d60138;fill-rule: evenodd"/>
  </g>
</svg>
