<svg xmlns="http://www.w3.org/2000/svg" xmlns:xlink="http://www.w3.org/1999/xlink" width="47.801" height="102.937" viewBox="0 0 47.801 102.937">
  <defs>
    <linearGradient id="linear-gradient" x1="29.324" y1="403.855" x2="46.971" y2="373.289" gradientUnits="userSpaceOnUse">
      <stop offset="0"/>
      <stop offset="0.011" stop-color="#060606"/>
      <stop offset="0.129" stop-color="#404040"/>
      <stop offset="0.251" stop-color="#737373"/>
      <stop offset="0.373" stop-color="#9e9e9e"/>
      <stop offset="0.495" stop-color="#c1c1c1"/>
      <stop offset="0.618" stop-color="#dcdcdc"/>
      <stop offset="0.743" stop-color="#f0f0f0"/>
      <stop offset="0.869" stop-color="#fbfbfb"/>
      <stop offset="1" stop-color="#fff"/>
    </linearGradient>
    <linearGradient id="linear-gradient-2" x1="39.023" y1="409.454" x2="56.669" y2="378.889" xlink:href="#linear-gradient"/>
  </defs>
  <title>transformer</title>
  <g style="isolation: isolate">
    <g id="Isolation_Mode" data-name="Isolation Mode">
      <path d="M36.889,384.915l14.031-8.1c.089-.05.177-.1.264-.137.027-.012.052-.021.079-.031.059-.025.118-.052.175-.072.037-.012.071-.019.107-.029s.1-.029.141-.04.069-.01.1-.017.09-.016.133-.02.069,0,.1,0,.082,0,.123,0,.065.007.1.011.079.007.115.016.061.017.092.025.072.018.107.031.057.027.086.04a.887.887,0,0,1,.1.046l0,0-2.74-1.593a1.812,1.812,0,0,0-1.827.179l-14.031,8.1a4.986,4.986,0,0,0-1.537,1.49l2.562,1.864A5.164,5.164,0,0,1,36.889,384.915Z" transform="translate(-25.122 -316.432)" style="fill: #a0a0a0"/>
      <path d="M36.889,384.915l14.031-8.1c.089-.05.177-.1.264-.137.027-.012.052-.021.079-.031.059-.025.118-.052.175-.072.037-.012.071-.019.107-.029s.1-.029.141-.04.069-.01.1-.017.09-.016.133-.02.069,0,.1,0,.082,0,.123,0,.065.007.1.011.079.007.115.016.061.017.092.025.072.018.107.031.057.027.086.04a.887.887,0,0,1,.1.046l0,0-2.74-1.593a1.812,1.812,0,0,0-1.827.179l-14.031,8.1a4.986,4.986,0,0,0-1.537,1.49l2.562,1.864A5.164,5.164,0,0,1,36.889,384.915Z" transform="translate(-25.122 -316.432)" style="opacity: 0.4;mix-blend-mode: multiply;fill: url(#linear-gradient)"/>
      <g>
        <path d="M35.361,403.921a.931.931,0,0,0-.936.09c-.047.028-.1.059-.144.093a2.851,2.851,0,0,0-1.161,2.338.85.85,0,0,0,.375.686l1.026.6-.007-.006a.615.615,0,0,1-.121-.1l-.018-.019a.728.728,0,0,1-.1-.132l-.013-.025a.978.978,0,0,1-.07-.17l-.007-.021a1.426,1.426,0,0,1-.041-.217,2.854,2.854,0,0,1,1.161-2.339c.048-.034.1-.064.143-.092s.086-.048.128-.067l.042-.017a.869.869,0,0,1,.084-.032.341.341,0,0,1,.049-.016l.073-.021.049-.009c.023,0,.046-.008.068-.01l.05,0c.021,0,.042,0,.063,0a.444.444,0,0,1,.048,0,.421.421,0,0,1,.059.007.379.379,0,0,1,.045.009.3.3,0,0,1,.055.016l.042.015a.539.539,0,0,1,.052.024c.009.005.018.008.026.014Z" transform="translate(-25.122 -316.432)" style="fill: #373c48"/>
        <path d="M36.761,405.2a.835.835,0,0,0-.4-.7.539.539,0,0,0-.052-.024l-.042-.015a.3.3,0,0,0-.055-.016.379.379,0,0,0-.045-.009.421.421,0,0,0-.059-.007.444.444,0,0,0-.048,0c-.021,0-.042,0-.063,0l-.05,0c-.022,0-.044.007-.068.01l-.049.009-.073.021a.341.341,0,0,0-.049.016.869.869,0,0,0-.084.032l-.042.017c-.042.019-.085.042-.128.067s-.1.058-.143.092a2.854,2.854,0,0,0-1.161,2.339,1.426,1.426,0,0,0,.041.217l.007.021a.978.978,0,0,0,.07.17l.013.025a.728.728,0,0,0,.1.132l.018.019a.615.615,0,0,0,.121.1.919.919,0,0,0,.942-.084,1.68,1.68,0,0,0,.143-.092A2.854,2.854,0,0,0,36.761,405.2Z" transform="translate(-25.122 -316.432)" style="fill: #596177"/>
        <path d="M36.347,405.54a.53.53,0,0,0-.255-.442l-.033-.016-.027-.009-.035-.01-.028-.006a.26.26,0,0,0-.038,0l-.03,0h-.04l-.031,0-.044.006-.031.005-.047.014-.03.009c-.017.006-.035.014-.053.021l-.027.011a.874.874,0,0,0-.082.042c-.03.018-.06.037-.091.059a1.807,1.807,0,0,0-.736,1.481.885.885,0,0,0,.026.137l0,.014a.67.67,0,0,0,.045.109l.008.015a.457.457,0,0,0,.062.084l.011.013a.427.427,0,0,0,.077.061.584.584,0,0,0,.6-.054,1.012,1.012,0,0,0,.091-.059A1.81,1.81,0,0,0,36.347,405.54Z" transform="translate(-25.122 -316.432)" style="fill: #ccc"/>
      </g>
      <polygon points="28.21 62.674 45.904 72.957 44.898 83.962 28.245 74.308 28.21 62.674" style="fill: #a0a0a0"/>
      <path d="M53.5,378.281a1.793,1.793,0,0,0-.753-1.649.887.887,0,0,0-.1-.046c-.029-.014-.056-.029-.086-.04s-.071-.02-.107-.031-.061-.019-.092-.025-.077-.011-.115-.016-.064-.009-.1-.011-.082,0-.123,0-.068,0-.1,0-.088.014-.133.02-.068.009-.1.017-.094.027-.141.04-.07.017-.107.029c-.057.02-.116.047-.175.072-.027.01-.052.019-.079.031-.087.04-.175.087-.264.137l-14.031,8.1a5.642,5.642,0,0,0-2.559,4.433l.037,12.729,19.166-11.065Z" transform="translate(-25.122 -316.432)" style="fill: #676767"/>
      <g>
        <path d="M70.461,407.9a.932.932,0,0,0-.936.09c-.047.028-.1.058-.143.092a2.853,2.853,0,0,0-1.161,2.339.848.848,0,0,0,.375.686l1.026.6-.007,0a.691.691,0,0,1-.121-.1.18.18,0,0,1-.019-.019.741.741,0,0,1-.1-.132l-.013-.025a.926.926,0,0,1-.071-.171l-.005-.02a1.335,1.335,0,0,1-.042-.217,2.857,2.857,0,0,1,1.161-2.34q.072-.05.143-.091c.044-.026.087-.047.129-.067l.043-.017c.028-.012.056-.024.083-.033s.033-.01.049-.016.048-.015.073-.02l.05-.008a.591.591,0,0,1,.067-.011.444.444,0,0,1,.05,0c.021,0,.043,0,.063,0l.047,0,.06.007.045.009a.568.568,0,0,1,.056.017l.042.015c.018.007.034.016.052.025l.027.012Z" transform="translate(-25.122 -316.432)" style="fill: #373c48"/>
        <path d="M71.863,409.184a.829.829,0,0,0-.4-.7c-.018-.009-.035-.017-.052-.025l-.042-.015a.568.568,0,0,0-.056-.017l-.045-.009-.06-.007-.047,0c-.02,0-.042,0-.063,0a.444.444,0,0,0-.05,0,.591.591,0,0,0-.067.011l-.05.008c-.025.005-.049.013-.073.02s-.033.009-.049.016-.055.021-.083.033l-.043.017c-.042.02-.085.041-.129.067s-.1.058-.143.091a2.857,2.857,0,0,0-1.161,2.34,1.335,1.335,0,0,0,.042.217l.005.02a.926.926,0,0,0,.071.171l.013.025a.741.741,0,0,0,.1.132.18.18,0,0,0,.019.019.691.691,0,0,0,.121.1.923.923,0,0,0,.942-.085c.047-.028.1-.058.144-.092A2.858,2.858,0,0,0,71.863,409.184Z" transform="translate(-25.122 -316.432)" style="fill: #596177"/>
        <path d="M71.447,409.52a.527.527,0,0,0-.255-.442.254.254,0,0,0-.033-.016l-.026-.009-.035-.011-.029,0-.038,0-.029,0a.308.308,0,0,0-.04,0l-.031,0a.369.369,0,0,0-.043.007l-.032.006c-.015,0-.031.008-.046.013a.175.175,0,0,0-.031.01c-.018.006-.035.013-.052.02a.211.211,0,0,0-.027.012c-.027.012-.054.026-.082.041s-.06.037-.091.058a1.809,1.809,0,0,0-.736,1.482.927.927,0,0,0,.026.138l0,.013a.655.655,0,0,0,.046.109l.008.015a.412.412,0,0,0,.061.084l.012.012a.371.371,0,0,0,.077.061.585.585,0,0,0,.6-.053c.031-.018.061-.037.091-.058A1.812,1.812,0,0,0,71.447,409.52Z" transform="translate(-25.122 -316.432)" style="fill: #ccc"/>
      </g>
      <g>
        <path d="M57.548,415.478a.932.932,0,0,0-.936.09c-.047.028-.1.058-.142.092A2.852,2.852,0,0,0,55.308,418a.846.846,0,0,0,.375.686l1.026.6-.007-.005a.686.686,0,0,1-.121-.1l-.019-.019a.709.709,0,0,1-.1-.132L56.452,419a.92.92,0,0,1-.071-.17l-.006-.021a1.257,1.257,0,0,1-.041-.217,2.855,2.855,0,0,1,1.161-2.339c.048-.034.1-.065.144-.092a1.418,1.418,0,0,1,.129-.067l.041-.018c.029-.012.056-.024.084-.033l.049-.015c.025-.008.05-.016.074-.021l.05-.009.068-.011.049,0h.063l.048,0,.059.007a.366.366,0,0,1,.044.01.277.277,0,0,1,.056.016l.042.014.052.026c.008,0,.018.007.026.013Z" transform="translate(-25.122 -316.432)" style="fill: #373c48"/>
        <path d="M58.949,416.759a.829.829,0,0,0-.4-.7l-.052-.026-.042-.014a.277.277,0,0,0-.056-.016.366.366,0,0,0-.044-.01l-.059-.007-.048,0h-.063l-.049,0-.068.011-.05.009c-.024.005-.049.013-.074.021l-.049.015c-.028.009-.056.021-.084.033l-.041.018a1.418,1.418,0,0,0-.129.067c-.047.027-.1.058-.144.092a2.855,2.855,0,0,0-1.161,2.339,1.257,1.257,0,0,0,.041.217l.006.021a.92.92,0,0,0,.071.17l.013.025a.709.709,0,0,0,.1.132l.019.019a.686.686,0,0,0,.121.1.921.921,0,0,0,.942-.085c.047-.028.1-.058.143-.092A2.854,2.854,0,0,0,58.949,416.759Z" transform="translate(-25.122 -316.432)" style="fill: #596177"/>
        <path d="M58.534,417.1a.527.527,0,0,0-.254-.442l-.033-.016-.026-.009-.036-.01-.029-.006a.268.268,0,0,0-.037,0l-.031,0a.285.285,0,0,0-.04,0l-.03,0a.356.356,0,0,0-.044.007l-.032.006c-.015,0-.03.008-.046.013l-.031.009a.486.486,0,0,0-.053.021l-.027.012c-.027.013-.054.026-.081.041s-.06.037-.092.059a1.808,1.808,0,0,0-.735,1.482.763.763,0,0,0,.026.136l0,.014a.638.638,0,0,0,.045.108l.008.016a.439.439,0,0,0,.062.084l.011.013a.454.454,0,0,0,.077.06.585.585,0,0,0,.6-.053c.03-.017.061-.037.091-.058A1.81,1.81,0,0,0,58.534,417.1Z" transform="translate(-25.122 -316.432)" style="fill: #ccc"/>
      </g>
      <polygon points="27.148 63.465 28.375 62.771 44.204 71.793 43.8 73.142 27.148 63.465" style="fill: #fff"/>
      <polygon points="27.148 63.465 27.148 75.307 32.341 77.852 43.8 73.142 27.148 63.465" style="fill: #a0a0a0"/>
      <polygon points="7.989 77.792 27.155 66.728 39.094 73.749 24.658 86.413 7.989 77.792" style="fill: #292c36"/>
      <g id="Middler">
        <g>
          <g>
            <polygon points="26.153 57.208 19.442 65.882 19.929 66.165 26.792 57.295 26.153 57.208" style="fill: #08c183"/>
            <polygon points="18.592 67.893 17.952 67.806 11.235 76.486 11.723 76.77 18.592 67.893" style="fill: #08c183"/>
            <polygon points="11.723 76.77 11.235 76.486 11.241 78.398 11.728 78.682 19.934 68.074 18.592 67.893 11.723 76.77" style="fill: #0ddf98"/>
            <polygon points="26.12 45.498 19.409 54.175 19.895 54.457 26.759 45.585 26.12 45.498" style="fill: #08c183"/>
            <polygon points="19.929 66.165 19.442 65.882 13.19 65.04 19.902 56.367 18.559 56.185 11.697 65.056 11.697 65.056 11.689 65.064 11.702 66.962 13.038 65.236 19.929 66.165" style="fill: #0ddf98"/>
            <polygon points="21.271 66.345 19.929 66.165 13.038 65.236 11.702 66.962 17.952 67.806 18.592 67.893 19.934 68.074 28.16 69.184 28.168 67.276 21.271 66.345" style="fill: #39ffbc"/>
            <polygon points="11.697 65.056 18.559 56.185 17.919 56.099 11.21 64.772 11.697 65.056 11.697 65.056" style="fill: #08c183"/>
            <polygon points="11.202 64.781 11.215 66.679 11.702 66.962 11.689 65.064 11.202 64.781" style="fill: #08c183"/>
            <polygon points="11.697 65.056 11.697 65.056 11.697 65.056 11.21 64.772 11.202 64.772 11.202 64.781 11.689 65.064 11.697 65.056" style="fill: #772020"/>
            <polygon points="26.093 33.78 19.375 42.464 19.863 42.747 26.734 33.866 26.093 33.78" style="fill: #08c183"/>
            <polygon points="26.734 33.866 19.863 42.747 21.203 42.928 27.613 43.795 28.094 43.859 28.093 45.765 26.759 45.585 19.895 54.457 21.238 54.638 27.646 55.504 28.127 55.57 28.127 57.475 26.792 57.295 19.929 66.165 21.271 66.345 28.168 67.276 27.68 66.992 21.424 66.148 28.14 57.468 28.135 55.57 28.135 55.56 27.647 55.277 27.641 55.286 21.391 54.442 28.107 45.762 28.102 43.86 28.102 43.851 27.614 43.567 27.607 43.577 21.355 42.733 28.074 34.047 28.068 32.14 28.06 34.044 26.734 33.866" style="fill: #08c183"/>
            <polygon points="19.895 54.457 19.409 54.175 13.156 53.33 19.868 44.654 18.527 44.473 11.664 53.345 11.657 53.355 11.666 55.257 13.004 53.527 19.895 54.457" style="fill: #0ddf98"/>
            <polygon points="19.902 56.367 26.153 57.208 26.792 57.295 28.127 57.475 28.127 55.57 27.646 55.504 21.238 54.638 19.895 54.457 13.004 53.527 11.666 55.257 17.919 56.099 18.559 56.185 19.902 56.367" style="fill: #39ffbc"/>
            <polygon points="11.664 53.345 18.527 44.473 17.888 44.387 11.176 53.062 11.176 53.062 11.664 53.345" style="fill: #08c183"/>
            <polygon points="11.169 53.071 11.178 54.974 11.666 55.257 11.657 53.355 11.169 53.071" style="fill: #08c183"/>
            <polygon points="11.664 53.345 11.176 53.062 11.176 53.062 11.169 53.061 11.169 53.071 11.657 53.355 11.664 53.345" style="fill: #772020"/>
            <polygon points="26.046 22.077 19.342 30.744 19.829 31.027 26.686 22.164 26.046 22.077" style="fill: #0ddf98"/>
            <polygon points="19.863 42.747 19.375 42.464 13.116 41.618 19.834 32.937 18.492 32.756 11.623 41.635 11.628 43.542 12.965 41.816 19.863 42.747" style="fill: #0ddf98"/>
            <polygon points="18.492 32.756 17.852 32.67 11.136 41.352 11.623 41.635 18.492 32.756" style="fill: #08c183"/>
            <polygon points="11.136 41.352 11.136 41.352 11.623 41.635 11.136 41.352" style="fill: #ce2020"/>
            <polygon points="11.136 41.352 11.136 41.352 11.142 43.258 11.628 43.542 11.623 41.635 11.136 41.352" style="fill: #08c183"/>
            <polygon points="19.868 44.654 19.868 44.654 26.12 45.498 26.759 45.585 28.093 45.765 28.094 43.859 27.613 43.795 21.203 42.928 19.863 42.747 19.375 42.464 19.863 42.747 12.965 41.816 11.628 43.542 17.888 44.387 18.527 44.473 19.868 44.654" style="fill: #39ffbc"/>
            <polygon points="28.001 8.72 27.515 8.437 19.309 19.043 19.309 19.043 19.796 19.325 28.001 8.72" style="fill: #08c183"/>
            <polygon points="21.139 19.506 27.547 20.37 28.024 20.434 28.027 22.345 26.686 22.164 26.686 22.164 19.829 31.027 21.172 31.21 27.581 32.075 28.068 32.14 27.581 31.858 21.324 31.013 28.04 22.333 28.034 20.436 28.034 20.421 27.548 20.137 27.537 20.151 21.291 19.309 28.007 10.628 28.001 8.72 19.796 19.325 21.139 19.506" style="fill: #08c183"/>
            <polygon points="19.829 31.027 19.342 30.744 13.096 29.901 19.802 21.234 19.802 21.234 18.458 21.053 11.59 29.931 11.606 31.827 12.945 30.098 19.829 31.027" style="fill: #0ddf98"/>
            <polygon points="19.834 32.937 26.093 33.78 26.734 33.866 28.06 34.044 28.068 32.14 27.581 32.075 21.172 31.21 19.829 31.027 12.945 30.098 11.606 31.827 17.852 32.67 18.492 32.756 19.834 32.937" style="fill: #39ffbc"/>
            <polygon points="11.59 29.915 11.6 29.916 11.59 29.931 18.458 21.053 17.82 20.966 11.113 29.633 11.103 29.631 11.103 29.647 11.119 31.545 11.606 31.827 11.59 29.931 11.59 29.915" style="fill: #08c183"/>
            <polygon points="11.59 29.915 11.59 29.931 11.6 29.916 11.59 29.915" style="fill: #f74141"/>
            <polygon points="19.802 21.234 19.802 21.234 26.046 22.077 26.686 22.164 26.686 22.164 28.027 22.345 28.024 20.434 27.547 20.37 21.139 19.506 19.796 19.325 19.309 19.043 19.309 19.043 19.796 19.325 11.557 18.215 11.562 20.121 17.82 20.966 18.458 21.053 19.802 21.234" style="fill: #39ffbc"/>
            <polygon points="19.796 19.325 19.309 19.043 11.07 17.932 11.075 19.839 11.562 20.121 11.557 18.215 19.796 19.325" style="fill: #ce2020"/>
          </g>
          <polygon points="11.728 78.682 11.723 76.77 11.235 76.486 11.241 78.398 11.728 78.682" style="fill: #772020"/>
        </g>
        <g>
          <g>
            <polygon points="37.285 63.69 30.573 72.362 31.061 72.646 37.924 63.775 37.285 63.69" style="fill: #08c183"/>
            <polygon points="29.725 74.373 29.084 74.287 22.368 82.967 22.855 83.25 29.725 74.373" style="fill: #08c183"/>
            <polygon points="22.855 83.25 22.368 82.967 22.373 84.88 22.86 85.163 31.067 74.555 29.725 74.373 22.855 83.25" style="fill: #0ddf98"/>
            <polygon points="37.252 51.979 30.541 60.655 31.028 60.938 37.892 52.066 37.252 51.979" style="fill: #08c183"/>
            <polygon points="31.061 72.646 30.573 72.362 24.322 71.52 31.033 62.847 29.691 62.665 22.829 71.537 22.829 71.537 22.822 71.545 22.834 73.443 24.171 71.717 31.061 72.646" style="fill: #0ddf98"/>
            <polygon points="32.403 72.827 31.061 72.646 24.171 71.717 22.834 73.443 29.084 74.287 29.725 74.373 31.067 74.555 39.292 75.665 39.3 73.755 32.403 72.827" style="fill: #39ffbc"/>
            <polygon points="22.829 71.537 29.691 62.665 29.051 62.58 22.341 71.254 22.829 71.537 22.829 71.537" style="fill: #08c183"/>
            <polygon points="22.335 71.262 22.347 73.161 22.834 73.443 22.822 71.545 22.335 71.262" style="fill: #08c183"/>
            <polygon points="22.829 71.537 22.829 71.537 22.829 71.537 22.341 71.254 22.335 71.253 22.335 71.262 22.822 71.545 22.829 71.537" style="fill: #772020"/>
            <polygon points="37.225 40.26 30.507 48.946 30.995 49.228 37.866 40.347 37.225 40.26" style="fill: #08c183"/>
            <polygon points="37.866 40.347 30.995 49.228 32.335 49.409 38.745 50.275 39.226 50.341 39.226 52.246 37.892 52.066 31.028 60.938 32.37 61.12 38.779 61.985 39.26 62.05 39.259 63.956 37.924 63.775 31.061 72.646 32.403 72.827 39.3 73.755 38.813 73.472 32.556 72.629 39.273 63.948 39.267 62.051 39.267 62.041 38.78 61.758 38.772 61.767 32.523 60.923 39.239 52.243 39.233 50.341 39.233 50.331 38.746 50.047 38.739 50.057 32.487 49.213 39.206 40.529 39.2 38.621 39.192 40.525 37.866 40.347" style="fill: #0ddf98"/>
            <polygon points="31.028 60.938 30.541 60.655 24.288 59.81 31 51.134 29.659 50.954 22.796 59.826 22.788 59.835 22.798 61.738 24.137 60.006 31.028 60.938" style="fill: #0ddf98"/>
            <polygon points="31.033 62.847 37.285 63.69 37.924 63.775 39.259 63.956 39.26 62.05 38.779 61.985 32.37 61.12 31.028 60.938 24.137 60.006 22.798 61.738 29.051 62.58 29.691 62.665 31.033 62.847" style="fill: #39ffbc"/>
            <polygon points="22.796 59.826 29.659 50.954 29.02 50.867 22.308 59.543 22.308 59.543 22.796 59.826" style="fill: #08c183"/>
            <polygon points="22.302 59.552 22.311 61.454 22.798 61.738 22.788 59.835 22.302 59.552" style="fill: #08c183"/>
            <polygon points="22.796 59.826 22.308 59.543 22.308 59.543 22.301 59.542 22.302 59.552 22.788 59.835 22.796 59.826" style="fill: #772020"/>
            <polygon points="37.179 28.558 30.474 37.225 30.962 37.508 37.818 28.644 37.179 28.558" style="fill: #08c183"/>
            <polygon points="30.995 49.228 30.507 48.946 24.248 48.1 30.967 39.418 29.624 39.237 22.756 48.115 22.761 50.022 24.096 48.297 30.995 49.228" style="fill: #0ddf98"/>
            <polygon points="29.624 39.237 28.985 39.15 22.268 47.832 22.756 48.115 29.624 39.237" style="fill: #08c183"/>
            <polygon points="22.268 47.832 22.268 47.832 22.756 48.115 22.268 47.832" style="fill: #ce2020"/>
            <polygon points="22.268 47.832 22.268 47.832 22.274 49.739 22.761 50.022 22.756 48.115 22.268 47.832" style="fill: #08c183"/>
            <polygon points="31 51.134 31 51.134 37.252 51.979 37.892 52.066 39.226 52.246 39.226 50.341 38.745 50.275 32.335 49.409 30.995 49.228 30.507 48.946 30.995 49.228 24.096 48.297 22.761 50.022 29.02 50.867 29.659 50.954 31 51.134" style="fill: #39ffbc"/>
            <polygon points="39.134 15.201 38.646 14.918 30.442 25.522 30.442 25.522 30.928 25.806 39.134 15.201" style="fill: #08c183"/>
            <polygon points="32.271 25.987 38.679 26.85 39.156 26.915 39.159 28.826 37.818 28.644 37.818 28.644 30.962 37.508 32.304 37.689 38.712 38.554 39.2 38.621 38.713 38.337 32.456 37.492 39.172 28.813 39.167 26.915 39.167 26.902 38.68 26.619 38.669 26.631 32.423 25.79 39.139 17.108 39.134 15.201 30.928 25.806 32.271 25.987" style="fill: #0ddf98"/>
            <polygon points="30.962 37.508 30.474 37.225 24.229 36.382 30.934 27.715 30.934 27.715 29.591 27.533 22.723 36.41 22.738 38.308 24.078 36.578 30.962 37.508" style="fill: #0ddf98"/>
            <polygon points="30.967 39.418 37.225 40.26 37.866 40.347 39.192 40.525 39.2 38.621 38.712 38.554 32.304 37.689 30.962 37.508 24.078 36.578 22.738 38.308 28.985 39.15 29.624 39.237 30.967 39.418" style="fill: #39ffbc"/>
            <polygon points="22.723 36.396 22.733 36.397 22.723 36.41 29.591 27.533 28.952 27.448 22.245 36.113 22.235 36.112 22.235 36.127 22.252 38.026 22.738 38.308 22.723 36.41 22.723 36.396" style="fill: #08c183"/>
            <polygon points="22.723 36.396 22.723 36.41 22.733 36.397 22.723 36.396" style="fill: #f74141"/>
            <polygon points="30.934 27.715 30.934 27.715 37.179 28.558 37.818 28.644 37.818 28.644 39.159 28.826 39.156 26.915 38.679 26.85 32.271 25.987 30.928 25.806 30.442 25.522 30.442 25.522 30.928 25.806 22.689 24.696 22.695 26.602 28.952 27.448 29.591 27.533 30.934 27.715" style="fill: #39ffbc"/>
            <polygon points="30.928 25.806 30.442 25.522 22.202 24.413 22.207 26.32 22.695 26.602 22.689 24.696 30.928 25.806" style="fill: #08c183"/>
          </g>
          <polygon points="22.86 85.163 22.855 83.25 22.368 82.967 22.373 84.88 22.86 85.163" style="fill: #772020"/>
        </g>
      </g>
      <polygon points="9.211 74.011 10.437 73.318 26.267 82.341 25.863 83.688 9.211 74.011" style="fill: #a0a0a0"/>
      <path d="M72.888,389.528a1.789,1.789,0,0,0-.754-1.649.858.858,0,0,0-.1-.046c-.029-.013-.058-.029-.087-.041s-.069-.02-.106-.03-.06-.019-.092-.026-.077-.01-.115-.015-.064-.01-.1-.012-.082,0-.123,0-.067,0-.1,0-.089.014-.133.02-.068.009-.1.018-.094.026-.141.04-.07.017-.106.028c-.058.02-.117.047-.176.072-.027.011-.053.019-.08.031-.087.04-.175.087-.264.137l-14.031,8.1a5.642,5.642,0,0,0-2.559,4.433l.036,17.368L72.924,406.9Z" transform="translate(-25.122 -316.432)" style="fill: #ccc"/>
      <path d="M69.4,386.289a1.811,1.811,0,0,0-1.827.178l-14.031,8.1A5.637,5.637,0,0,0,50.982,399l0,1.119-16.652-9.677,0-1.1a5.291,5.291,0,0,1,.844-2.671l-2.562-1.864a5.419,5.419,0,0,0-1.022,2.942l.036,17.367,22.133,12.84-.036-17.368a5.642,5.642,0,0,1,2.559-4.433l14.031-8.1c.089-.05.177-.1.264-.137.027-.012.053-.021.08-.031.059-.025.118-.051.176-.072.036-.012.07-.019.106-.028s.1-.03.141-.04.069-.011.1-.018.09-.016.133-.02.068,0,.1,0,.083,0,.123,0,.064.008.1.012.077.007.115.015.061.017.092.026.072.018.106.03.058.028.087.041a.858.858,0,0,1,.1.046l.005,0Z" transform="translate(-25.122 -316.432)" style="fill: #a0a0a0"/>
      <path d="M69.4,386.289a1.811,1.811,0,0,0-1.827.178l-14.031,8.1A5.637,5.637,0,0,0,50.982,399l0,1.119-16.652-9.677,0-1.1a5.291,5.291,0,0,1,.844-2.671l-2.562-1.864a5.419,5.419,0,0,0-1.022,2.942l.036,17.367,22.133,12.84-.036-17.368a5.642,5.642,0,0,1,2.559-4.433l14.031-8.1c.089-.05.177-.1.264-.137.027-.012.053-.021.08-.031.059-.025.118-.051.176-.072.036-.012.07-.019.106-.028s.1-.03.141-.04.069-.011.1-.018.09-.016.133-.02.068,0,.1,0,.083,0,.123,0,.064.008.1.012.077.007.115.015.061.017.092.026.072.018.106.03.058.028.087.041a.858.858,0,0,1,.1.046l.005,0Z" transform="translate(-25.122 -316.432)" style="opacity: 0.4;mix-blend-mode: multiply;fill: url(#linear-gradient-2)"/>
      <polygon points="6.495 83.04 6.495 85.504 28.628 98.343 28.622 95.875 6.495 83.04" style="fill: #ccc"/>
      <polygon points="28.628 95.879 28.622 95.875 28.628 98.343 47.794 87.278 47.788 84.815 28.628 95.879" style="fill: #fff"/>
      <g id="Topper">
        <polygon points="1.379 13.909 5.222 16.143 24.088 5.25 24.088 0.798 1.379 13.909" style="fill: #0ddf98"/>
        <g>
          <polygon points="21.542 3.632 22.437 4.152 22.434 3.117 21.542 3.632" style="fill: #08c183"/>
          <polygon points="14.424 7.743 14.426 8.777 22.437 4.152 21.542 3.632 14.424 7.743" style="fill: #08c183"/>
          <polygon points="10.143 10.214 11.037 10.733 11.034 9.699 10.143 10.214" style="fill: #08c183"/>
          <polygon points="3.023 14.324 3.027 15.358 11.037 10.733 10.143 10.214 3.023 14.324" style="fill: #08c183"/>
          <path d="M49.893,317.23,25.8,331.138l.015,4.486,24.089-13.109Zm-21.744,14.56,0-1.034,7.12-4.11.891-.515,0,1.034Zm11.4-6.582,0-1.034,7.118-4.111.891-.515,0,1.035Z" transform="translate(-25.122 -316.432)" style="fill: #0ddf98"/>
        </g>
        <polygon points="24.088 0.798 24.088 5.25 24.09 5.248 40.794 14.956 44.634 12.738 24.088 0.798" style="fill: #0ddf98"/>
        <polygon points="0 13.907 0.015 19.192 21.939 31.932 21.924 26.648 0 13.907" style="fill: #0ddf98"/>
        <polygon points="40.794 14.956 24.09 5.248 5.222 16.143 21.925 25.849 40.794 14.956" style="fill: #08c183"/>
        <path d="M71.135,329.173l-21.924-12.74L25.122,330.34h0l21.924,12.74ZM49.21,317.23l20.546,11.94L47.048,342.281,26.5,330.342Z" transform="translate(-25.122 -316.432)" style="fill: #39ffbc"/>
        <g>
          <polygon points="42.784 15.574 43.679 16.094 43.676 15.059 42.784 15.574" style="fill: #08c183"/>
          <polygon points="35.666 19.684 35.669 20.719 43.679 16.094 42.784 15.574 35.666 19.684" style="fill: #0ddf98"/>
          <polygon points="31.385 22.155 32.279 22.675 32.277 21.641 31.385 22.155" style="fill: #08c183"/>
          <polygon points="24.266 26.266 24.269 27.301 32.279 22.675 31.385 22.155 24.266 26.266" style="fill: #0ddf98"/>
          <path d="M71.135,329.173,47.047,343.08l.015,5.284L71.15,334.457Zm-21.744,14.56,0-1.034,7.119-4.111.892-.514,0,1.033Zm11.4-6.582,0-1.034,7.118-4.11.892-.515,0,1.034Z" transform="translate(-25.122 -316.432)" style="fill: #39ffbc"/>
        </g>
      </g>
    </g>
  </g>
</svg>
