<svg xmlns="http://www.w3.org/2000/svg" viewBox="0 0 190 30.59" fill="#000000" width="190" height="31">
   <path class="cls-1" d="M10.2,0h10.2V3.52a11.9,11.9,0,0,1,0,23.55v3.52H17V3.4H13.6V30.59H10.2V27.07a11.9,11.9,0,0,1,0-23.55V0Zm10.2,7V23.62A8.5,8.5,0,0,0,20.39,7ZM10.2,23.62V7a8.5,8.5,0,0,0,0,16.65Z"/>
   <path class="cls-1" d="M84.28,6.6l2.14-3.2h1V4.45l-1.81,2.7,2.18,3.25v1.05h-1L84.54,8.09l-1.26.73v2.64H81.86V3.4h1.42V7.17l1-.58Zm31.93,17.81-3.52-5.26h-1V27.2h1.42V22.33l2.48,3.7V27.2H117V26l2.48-3.7V27.2h1.42V19.14h-1l-3.52,5.26ZM64.74,25.78h3.33L66.4,20.57l-1.67,5.21Zm3.79,1.42H62.79l.46-1.42,2.12-6.63h2.08L70,27.2H68.52Zm93.17-2.56V21.7A2.8,2.8,0,0,1,167,20.54V21.7h-1.17a1.37,1.37,0,0,0-2.75,0v2.94a1.37,1.37,0,0,0,2.75,0H167v1.17a2.8,2.8,0,0,1-5.34-1.17Zm17.83-5.5a2.28,2.28,0,0,1,1.84,3.62,2.46,2.46,0,0,1-1.47,4.44h-3.44V19.14h3.07Zm0,3.13h0a.85.85,0,1,0,0-1.7h-1.64v1.7Zm.37,1.42h-2v2.08h2a1,1,0,1,0,0-2.08ZM95.45,27.2V19.14h1.42v3.13h2.75V19.14H101V27.2H99.62V23.7H96.88V27.2Zm73.29-8.06h6.1l-.46,1.42h-1.91V27.2H171V20.57h-2.31V19.14Zm-38.5,0h6.1l-.46,1.42H134V27.2h-1.42V20.57h-2.31V19.14Zm7.9,0V27.2h5l.46-1.42h-4.05V23.7h2.3l.46-1.42h-2.76v-1.7h3.3l.46-1.42h-5.18Zm-81.91,0V27.2h5l.46-1.42H57.64V23.7h2.3l.46-1.42H57.64v-1.7h3.3l.46-1.42H56.22Zm97.55,8.06V19.14h1.42V20.9h.92a3.15,3.15,0,0,1,0,6.31h-2.35Zm1.42-4.88v3.46h.92a1.73,1.73,0,0,0,0-3.46ZM82.28,19.14a3.15,3.15,0,0,1,0,6.31h-.92V27.2H79.93V19.14h2.35Zm0,4.88a1.73,1.73,0,0,0,0-3.46h-.92V24Zm21.24,2.11v-7h1.42V24l3.25-4.86h1V27.2h-1.42V22.33l-3.26,4.88h-1V26.13Zm-16.23,0v-7h1.42V24L92,19.14h1V27.2H91.55V22.33L88.29,27.2h-1V26.13Zm57.9,1.07V25.66l2.08-6.51h2.08l2.08,6.51V27.2h-1l-2.12-6.63-2.12,6.63Zm38.56,0V25.66l2.08-6.51h2.08L190,25.66V27.2h-1l-.56-1.75h-3.12l-.56,1.75Zm3.12-6.63L185.77,24H188l-1.11-3.46ZM123.22,27.2V25.66l2.08-6.51h2.08l2.08,6.51V27.2h-1l-.56-1.75h-3.12l-.56,1.75Zm3.12-6.63L125.23,24h2.21l-1.1-3.46ZM71.86,27.2V19.14h5.6V27.2H76V20.57H73.28V27.2Zm-23-8.06V27.2h1.42V25.45h.92a3.15,3.15,0,0,0,0-6.31H48.86ZM50.28,24V20.57h.92a1.73,1.73,0,0,1,0,3.46Zm-9.5,3.18V19.14h5.6V27.2H45V20.57H42.21V27.2ZM89.22,11.46V9.91L91.3,3.4h2.08l2.08,6.51v1.55h-1L93.9,9.7H90.78l-.56,1.75Zm3.12-6.63L91.23,8.28h2.21L92.34,4.82ZM43.94,3.4a3.15,3.15,0,1,0,0,6.31h.28v1.75h1.42V9.7h.28a3.15,3.15,0,0,0,0-6.31h-2Zm0,4.88a1.73,1.73,0,1,1,0-3.46h.28V8.28Zm2,0h-.28V4.82h.28a1.73,1.73,0,1,1,0,3.46ZM73.7,10.39v-7h1.42V8.26L78.37,3.4h1v8.06H78V6.58L74.7,11.46h-1V10.39Zm-7.36-7v8.06h1.42V9.7h.92a3.15,3.15,0,1,0,0-6.31H66.34Zm1.42,4.88V4.82h.92a1.73,1.73,0,1,1,0,3.46ZM60,10h1.79a1,1,0,0,0,0-2.08H60V10Zm1.79,1.42H58.62V3.4h5l-.46,1.42H60v1.7h1.79a2.47,2.47,0,0,1,0,4.93Zm-11.54,0V9.91L52.38,3.4h2.08l2.08,6.51v1.55h-1L55,9.7H51.86l-.56,1.75Zm3.12-6.63L52.31,8.28h2.21Z"/>
</svg>
