<svg id="Layer_1" data-name="Layer 1" xmlns="http://www.w3.org/2000/svg" width="194.7" height="29.9" viewBox="0 0 194.7 29.9">
  <title>logo-pb</title>
  <g>
    <path d="M10.1,18.4v8.9l4.6.6v1.5H.2V27.9l3.3-.6V3.5L0,2.9V1.4H12.3a23.471,23.471,0,0,1,5.8.6,10.055,10.055,0,0,1,3.6,1.7,6.061,6.061,0,0,1,1.9,2.6,8.592,8.592,0,0,1,.5,3.2,12.423,12.423,0,0,1-.4,3.3,6.056,6.056,0,0,1-1.6,2.8A8.594,8.594,0,0,1,19,17.5a14.337,14.337,0,0,1-5,.7H10.1Zm7.3-8.7c0-5.8-2.5-6.6-7.2-6.6V17c4.3,0,7.2-1.6,7.2-7.3Z" style="fill: #858aa6"/>
    <path d="M47.9,29.3l.2-1.6,5.7-.2V3.4l-3.6-.5V1.4H63.8a25.525,25.525,0,0,1,5.2.4,8.423,8.423,0,0,1,3.3,1.3,4.939,4.939,0,0,1,1.8,2,5.923,5.923,0,0,1,.5,2.7,6.551,6.551,0,0,1-.5,2.5,6.251,6.251,0,0,1-1.3,2A6.228,6.228,0,0,1,71,13.7a8.264,8.264,0,0,1-2.2.8,10.634,10.634,0,0,1,3.5.8,11.711,11.711,0,0,1,2.5,1.4,6.606,6.606,0,0,1,1.4,2,7.082,7.082,0,0,1,.5,2.6,8.808,8.808,0,0,1-.6,3.3,6.3,6.3,0,0,1-2,2.6,10.055,10.055,0,0,1-3.6,1.7,20.362,20.362,0,0,1-5.3.6c-1.7,0-3.3,0-5-.1-1.6,0-3.1-.1-4.5-.1H47.9ZM67.7,7.8c0-4.5-3.5-4.9-7.4-4.9V13.4h3.1c3.2,0,4.3-2.2,4.3-5.6Zm2.1,13.4c0-5.8-4.8-6.2-9.5-6.2V27.9c5,.2,9.5-1.6,9.5-6.7Z" style="fill: #858aa6"/>
    <path d="M50.7,29.3V27.7h-2l-4.2-5.2A31.707,31.707,0,0,0,48,13.4h2.7V11.8H42.6v1.6l2.7.4a22.334,22.334,0,0,1-2.1,7.1c-3-3.9-5.2-6.7-6.7-8.8,2.8-1.5,6-3.2,6-6.9,0-2.9-2.4-5.2-6.4-5.2-4.8,0-7.8,3.2-7.8,6.6,0,2.1.5,3.8,3,7.4-4.9,2.9-6.2,6.4-6.2,8.8,0,4.2,3.1,7.1,8.1,7.1a11.994,11.994,0,0,0,7.8-3c.6.9,1.3,1.7,2,2.6h7.7ZM36.1,11.2c-2.5-3.7-2.9-4.6-2.9-5.8A3.23,3.23,0,0,1,36.5,2a3.142,3.142,0,0,1,3.2,3.4c-.1,3-1.4,4.1-3.6,5.8Zm-.4,15.9c-2.9,0-5.1-1.7-5.1-5.5a9.131,9.131,0,0,1,2.2-6c1.7,2.3,4.1,5.5,7.3,9.6a6.073,6.073,0,0,1-4.4,1.9Z" style="fill: #858aa6"/>
    <path d="M78.9,6A4.357,4.357,0,0,1,80,3.1a3.867,3.867,0,0,1,5.6,0A3.847,3.847,0,0,1,86.8,6a4,4,0,0,1-1.2,2.9,3.867,3.867,0,0,1-5.6,0A4.357,4.357,0,0,1,78.9,6Zm.7,0a2.965,2.965,0,0,0,1,2.4,3.145,3.145,0,0,0,4.6,0,3.69,3.69,0,0,0,1-2.4,2.965,2.965,0,0,0-1-2.4,3.145,3.145,0,0,0-4.6,0,2.964,2.964,0,0,0-1,2.4Zm2.5.4V8.2h-.8V3.6h1.6a1.7,1.7,0,0,1,1.3.4,1.29,1.29,0,0,1,.5,1.1.764.764,0,0,1-.2.5c-.1.2-.3.3-.4.4a.664.664,0,0,1,.4.5,1.483,1.483,0,0,1,.1.7v.7a.367.367,0,0,0,.1.3v.1h-.9c0-.1-.1-.2-.1-.3V7.3a1.072,1.072,0,0,0-.2-.6.845.845,0,0,0-.6-.2h-.8Zm0-.8h.7a1.445,1.445,0,0,0,.7-.2.55.55,0,0,0,.3-.5.588.588,0,0,0-.2-.5,1.292,1.292,0,0,0-.8-.2h-.7V5.6Z" style="fill: #858aa6"/>
    <path d="M105.2,9.5h0a2.209,2.209,0,0,1-.8,2,3.069,3.069,0,0,1-2.2.7,3.012,3.012,0,0,1-2.3-.9A3.244,3.244,0,0,1,99,8.9V7.3a3.244,3.244,0,0,1,.9-2.4,3.012,3.012,0,0,1,2.3-.9,3.334,3.334,0,0,1,2.3.7,2.319,2.319,0,0,1,.8,2h-1.6a1.246,1.246,0,0,0-.4-1.1,1.246,1.246,0,0,0-1.1-.4,1.149,1.149,0,0,0-1.1.6,2.41,2.41,0,0,0-.4,1.5V8.9a2.41,2.41,0,0,0,.4,1.5,1.426,1.426,0,0,0,1.2.6,1.366,1.366,0,0,0,1.1-.4,1.9,1.9,0,0,0,.4-1.2h1.4Zm7.4,1H110l-.5,1.7h-1.7l2.7-8h1.6l2.7,8h-1.7l-.5-1.7Zm-2.3-1.3h1.8l-.9-2.8h0l-.9,2.8Zm12.1-5H124v8h-1.6V6.8h0l-3.2,5.4h-1.6v-8h1.6V9.6h0l3.2-5.4Zm.2-2.5h0a1.346,1.346,0,0,1-.5,1.2,1.955,1.955,0,0,1-1.4.4,2.116,2.116,0,0,1-1.4-.4,1.606,1.606,0,0,1-.5-1.1H120a.764.764,0,0,0,.2.5.725.725,0,0,0,1,0,.764.764,0,0,0,.2-.5h1.2ZM133,5.4h-2.3v6.8h-1.6V5.4h-2.3V4.2H133V5.4Zm13.5,4.1h0a2.209,2.209,0,0,1-.8,2,3.069,3.069,0,0,1-2.2.7,3.012,3.012,0,0,1-2.3-.9,3.244,3.244,0,0,1-.9-2.4V7.3a3.244,3.244,0,0,1,.9-2.4,3.012,3.012,0,0,1,2.3-.9,3.334,3.334,0,0,1,2.3.7,2.319,2.319,0,0,1,.8,2H145a1.246,1.246,0,0,0-.4-1.1,1.246,1.246,0,0,0-1.1-.4,1.149,1.149,0,0,0-1.1.6,2.41,2.41,0,0,0-.4,1.5V8.9a2.41,2.41,0,0,0,.4,1.5,1.426,1.426,0,0,0,1.2.6,1.366,1.366,0,0,0,1.1-.4,1.9,1.9,0,0,0,.4-1.2h1.4Zm9.7-.6a3.244,3.244,0,0,1-.9,2.4,3.312,3.312,0,0,1-2.4,1,2.965,2.965,0,0,1-2.4-1,3.406,3.406,0,0,1-.9-2.4V7.5a3.244,3.244,0,0,1,.9-2.4,3.312,3.312,0,0,1,2.4-1,2.965,2.965,0,0,1,2.4,1,3.406,3.406,0,0,1,.9,2.4V8.9Zm-1.6-1.5a2.456,2.456,0,0,0-.5-1.5,1.486,1.486,0,0,0-1.3-.6,1.612,1.612,0,0,0-1.3.6,2.456,2.456,0,0,0-.5,1.5V8.9a2.767,2.767,0,0,0,.5,1.6,1.708,1.708,0,0,0,2.6,0,2.545,2.545,0,0,0,.5-1.6V7.4Zm7.8.1a1.609,1.609,0,0,0,1.1-.3,1.234,1.234,0,0,0,.4-.8.909.909,0,0,0-.4-.8,2.133,2.133,0,0,0-1.2-.3,1.689,1.689,0,0,0-1,.3.755.755,0,0,0-.4.7h-1.6a1.943,1.943,0,0,1,.8-1.6,4.326,4.326,0,0,1,4.4,0,1.965,1.965,0,0,1,.9,1.7,1.284,1.284,0,0,1-.4,1,2.553,2.553,0,0,1-1,.7,2.979,2.979,0,0,1,1.1.7,1.594,1.594,0,0,1,.4,1.2,1.965,1.965,0,0,1-.9,1.7,4.265,4.265,0,0,1-2.4.6,4.032,4.032,0,0,1-2.2-.6,1.965,1.965,0,0,1-.9-1.7h1.6a.909.909,0,0,0,.4.8,1.8,1.8,0,0,0,1.1.3,2.133,2.133,0,0,0,1.2-.3,1.02,1.02,0,0,0,.5-.8.975.975,0,0,0-.4-.9,2.133,2.133,0,0,0-1.2-.3h-1.1V7.6h1.2Zm13.9,6.7h-1.6v-2h-4.8v2h-1.6V11h.5c.4,0,.7-.3.9-.8a11.937,11.937,0,0,0,.4-2.7l.2-3.3h5.2V11h1v3.2Zm-4.7-6.8a5.619,5.619,0,0,1-.3,2,5.27,5.27,0,0,1-.5,1.5h2.9V5.3h-2l-.1,2.1Zm11.6,3.1h-2.6l-.5,1.7h-1.7l2.7-8h1.6l2.7,8h-1.7l-.5-1.7ZM181,9.2h1.8l-.9-2.8h0L181,9.2Zm13.7,3h-1.6V8.9h-3.3v3.3h-1.6v-8h1.6V7.7h3.3V4.2h1.6v8ZM99.2,26.4v-8h2.6a3.593,3.593,0,0,1,2.2.6,1.943,1.943,0,0,1,.8,1.6,1.689,1.689,0,0,1-.3,1,2.7,2.7,0,0,1-.8.7,1.442,1.442,0,0,1,1.1.7,1.594,1.594,0,0,1,.4,1.2,2,2,0,0,1-.8,1.7,3.4,3.4,0,0,1-2.2.6h-3Zm1.6-3.5v2.3h1.5a1.493,1.493,0,0,0,1-.3,1.135,1.135,0,0,0,.3-.8,1.222,1.222,0,0,0-.3-.9,1.493,1.493,0,0,0-1-.3h-1.5Zm0-1.1h1.1a1.493,1.493,0,0,0,1-.3.984.984,0,0,0,.3-.8.812.812,0,0,0-.4-.8,1.493,1.493,0,0,0-1-.3h-1v2.2Zm13.8,1.7v2.9H113v-8h3.1a3.232,3.232,0,0,1,2.2.7,2.656,2.656,0,0,1,0,3.8,3.069,3.069,0,0,1-2.2.7h-1.5Zm0-1.2h1.5a1.16,1.16,0,0,0,1-.4,1.4,1.4,0,0,0,.3-.9,1.689,1.689,0,0,0-.3-1,1.16,1.16,0,0,0-1-.4h-1.5v2.7Zm12.2.6h-3v2.3h3.5v1.2h-5.1v-8h5.1v1.2h-3.5v2h3v1.3Zm10.1,3.5h-1.6L132.1,21h0v5.4h-1.6v-8h1.6l3.2,5.4h0V18.4h1.6v8Zm23.7-3.2v3.2H159v-8h2.8a3.281,3.281,0,0,1,2.1.6,2.136,2.136,0,0,1,.8,1.7,2.016,2.016,0,0,1-.3,1.1,1.979,1.979,0,0,1-1,.7,1.533,1.533,0,0,1,1,.7,2.133,2.133,0,0,1,.3,1.2V25a1.7,1.7,0,0,0,.1.7,2.187,2.187,0,0,0,.3.5v.1h-1.7a1.628,1.628,0,0,1-.3-.6c0-.3-.1-.5-.1-.8v-.6a1.061,1.061,0,0,0-1.2-1.2h-1.2Zm0-1.2h1.1a1.327,1.327,0,0,0,1-.3,1.135,1.135,0,0,0,.3-.8,1.222,1.222,0,0,0-.3-.9,1.327,1.327,0,0,0-1-.3h-1.2V22Zm11.8,2.7h-2.6l-.5,1.7h-1.7l2.7-8h1.6l2.7,8h-1.7l-.5-1.7Zm-2.2-1.3H172l-.9-2.8h0l-.9,2.8Zm8.9,3h-1.6v-8h1.6v8Zm10.1,0h-1.6L184.4,21h0v5.4h-1.6v-8h1.6l3.2,5.4h0V18.4h1.6v8Zm-47.8-4.3a4.053,4.053,0,0,1-.5-.9,3.091,3.091,0,0,1-.2-.8,1.755,1.755,0,0,1,.6-1.5,2.066,2.066,0,0,1,1.6-.5,1.978,1.978,0,0,1,1.4.5,1.656,1.656,0,0,1,.5,1.3,2.958,2.958,0,0,1-.2,1,5.008,5.008,0,0,1-.7.8l-.6.4,1.5,1.7c.1-.2.2-.5.3-.7a2.2,2.2,0,0,0,.1-.8h1.3a5.9,5.9,0,0,1-.2,1.4,3.38,3.38,0,0,1-.6,1.2l1.1,1.3H145l-.4-.5a3.128,3.128,0,0,1-1,.5,3.6,3.6,0,0,1-1.1.2,2.883,2.883,0,0,1-1.9-.6,1.99,1.99,0,0,1-.7-1.6,1.5,1.5,0,0,1,.4-1.1,4.736,4.736,0,0,1,1.1-1.3Zm1.3,3.2a1.268,1.268,0,0,0,.6-.1c.2-.1.4-.1.6-.2l-1.6-1.9h0c-.2.2-.4.3-.4.5a.9.9,0,0,0-.1.5,1.136,1.136,0,0,0,.3.8c0,.3.3.4.6.4Zm-.5-4.9a.9.9,0,0,0,.1.5c.1.2.2.3.3.5l.4-.3c.2-.1.3-.3.4-.4a.749.749,0,0,0,.1-.5.707.707,0,0,0-1.2-.5,1.483,1.483,0,0,0-.1.7Zm7.6,6v-8h2.6a3.593,3.593,0,0,1,2.2.6,1.943,1.943,0,0,1,.8,1.6,1.689,1.689,0,0,1-.3,1,2.7,2.7,0,0,1-.8.7,1.442,1.442,0,0,1,1.1.7,1.594,1.594,0,0,1,.4,1.2,2,2,0,0,1-.8,1.7,3.4,3.4,0,0,1-2.2.6h-3Zm1.6-3.5v2.3h1.5a1.493,1.493,0,0,0,1-.3,1.135,1.135,0,0,0,.3-.8,1.222,1.222,0,0,0-.3-.9,1.493,1.493,0,0,0-1-.3h-1.5Zm0-1.1h1.1a1.493,1.493,0,0,0,1-.3.984.984,0,0,0,.3-.8.812.812,0,0,0-.4-.8,1.493,1.493,0,0,0-1-.3h-1v2.2Z" style="fill: #858aa6"/>
  </g>
</svg>
