<svg xmlns="http://www.w3.org/2000/svg" viewBox="0 0 1147.24 277.58" fill="#FFF" class="text-logo">

   <path class="text-logo-stripe" d="M826.27,37.27H797.41a14.85,14.85,0,0,0-15.28,15.31A14.85,14.85,0,0,0,797.41,67.9h28.86a14.85,14.85,0,0,0,15.28-15.31A14.85,14.85,0,0,0,826.27,37.27Z">
   </path>

   <path d="M773.72,104.31c15.18,0,29.45-6.17,38.16-16.56,2.55-3.31,3.76-6.32,3.76-9.18a11.78,11.78,0,0,0-11.87-11.74c-3.61,0-6.91,1.66-9.92,4.82-5.86,6-12.32,8.88-20.13,8.88-16.08,0-27-11.14-27-27.56s11.12-27.86,27-27.86A26.21,26.21,0,0,1,794,34c3,3.16,6.31,4.82,9.92,4.82a11.78,11.78,0,0,0,11.87-11.74A13.83,13.83,0,0,0,812,17.88C803.32,7.49,789,1.32,773.87,1.32c-30.2,0-53.64,22.44-53.64,51.5S743.52,104.31,773.72,104.31Z"/>
   <path d="M17.74,136.47C7.43,136.47,0,144.11,0,154.42V259.63c0,10.31,7.63,17.95,17.74,17.95s17.74-7.63,17.74-17.95V154.42C35.48,144.11,27.85,136.47,17.74,136.47Zm98.61,114.08L79.84,203.73l33.42-39.4c3.09-3.71,4.54-7.22,4.54-11.35,0-9.08-7.43-16.5-16.09-16.5-5.36,0-9.28,1.65-12.58,5.36L46.21,192.59a16.66,16.66,0,0,0-4.33,10.73,18,18,0,0,0,4.33,11.76l43.12,55.29a17.89,17.89,0,0,0,14,7.22c9.08,0,16.92-8,16.92-16.92C120.27,257.36,119,254.06,116.35,250.55Z"/>
   <path d="M209.6,136.47c-41.05,0-73.23,30.94-73.23,70.55s32,70.55,73.23,70.55,73.65-30.94,73.65-70.55C283.25,167.62,250.86,136.47,209.6,136.47Zm.21,32.59c21.66,0,37.13,15.88,37.13,38,0,22.28-15.27,38-37.13,38-22.28,0-37.13-15.27-37.13-38C172.68,184.54,187.74,169.07,209.81,169.07Z"/>
   <path d="M333.38,277.58c10.11,0,17.74-7.84,17.74-18.36V220.64h49.72v38.58c0,10.52,7.63,18.36,17.74,18.36s17.74-7.84,17.74-18.36V154.42c0-10.52-7.43-17.95-17.74-17.95s-17.74,7.43-17.74,17.95v34.24H351.13V154.83c0-10.52-7.43-18.36-17.74-18.36s-17.74,7.84-17.74,18.36V259.22C315.64,269.74,323.28,277.58,333.38,277.58Z"/>
   <path d="M562.38,202.08c5.36-6,8.25-13.82,8.25-22.9,0-23.52-19.19-40.23-46-40.23H493.47a17.46,17.46,0,0,0-17.95,17.95V257.16a17.46,17.46,0,0,0,17.95,17.95h45.59c26.61,0,46-16.92,46-40.43C585.07,219.2,576.61,207.85,562.38,202.08Zm-40-33.21c8.25,0,13.62,4.54,13.62,12s-5.36,12-13.62,12H509.57V168.86Zm14.44,76.33H509.57V221.26H536.8c8.66,0,13.62,4.33,13.62,12S545.46,245.19,536.8,245.19Z"/>
   <path d="M634.38,275.1h64.78c9.28,0,16.3-6.81,16.3-16.09,0-9.08-6.81-15.88-16.3-15.88H651.91V219.4h28.47c8.66,0,15.06-6.4,15.06-14.85S689,189.7,680.38,189.7H651.91V170.93h44.77c9.28,0,16.3-6.81,16.3-16.09,0-9.08-6.81-15.88-16.3-15.88h-62.3a17.46,17.46,0,0,0-17.95,17.95V257.16A17.46,17.46,0,0,0,634.38,275.1Z"/>
   <path d="M853.47,136.47c-9.7,0-13.82,5.57-18.36,11.35l-51.57,66.63v-60c0-10.31-7.63-17.95-17.74-17.95S748,144.11,748,154.42V259.63a17.66,17.66,0,0,0,17.74,17.95c5.78,0,10.73-2.48,14.85-7.63L835.31,201v58.59c0,10.31,7.63,17.95,17.74,17.95s17.74-7.63,17.74-17.95V154.42C870.79,144.31,863.37,136.47,853.47,136.47Z"/>
   <path d="M927.74,275.1h64.78c9.28,0,16.3-6.81,16.3-16.09,0-9.08-6.81-15.88-16.3-15.88H945.27V219.4h28.47c8.66,0,15.06-6.4,15.06-14.85s-6.4-14.85-15.06-14.85H945.27V170.93H990c9.28,0,16.3-6.81,16.3-16.09,0-9.08-6.81-15.88-16.3-15.88h-62.3a17.46,17.46,0,0,0-17.95,17.95V257.16A17.46,17.46,0,0,0,927.74,275.1Z"/>
   <path  d="M1058.94,277.58c10.11,0,17.74-7.63,17.74-17.95V232.81h17.95c30.74,0,52.6-19.6,52.6-47,0-27.85-21.45-46.83-52.6-46.83h-35.48a17.46,17.46,0,0,0-17.95,17.95V259.63C1041.2,269.95,1048.84,277.58,1058.94,277.58Zm17.74-75.71v-32h18.15c9.9,0,16.3,6.4,16.3,15.88,0,9.7-6.4,16.09-16.3,16.09Z"/>
   <path d="M57.72,1.8H13.8A12.73,12.73,0,0,0,.72,14.89V88A12.73,12.73,0,0,0,13.8,101.07H47c19.7,0,33.54-12.63,33.54-30.53C80.58,52.94,67,41.06,47,41.06H26.59V25.12H57.72A11.5,11.5,0,0,0,69.6,13.39C69.6,6.77,64.64,1.8,57.72,1.8Zm-12.33,60c6.32,0,9.93,3.16,9.93,8.72s-3.61,8.72-9.93,8.72H26.59V61.82Z"/>
   <path d="M218,0C211,0,208,4.06,204.66,8.27l-37.6,48.58V13.09a12.94,12.94,0,1,0-25.87,0V89.79a12.87,12.87,0,0,0,12.93,13.09c4.21,0,7.82-1.8,10.83-5.56l39.86-50.24V89.79a12.94,12.94,0,1,0,25.87,0V13.09C230.68,5.72,225.26,0,218,0Z"/>
   <path d="M358.36,49.63a24.67,24.67,0,0,0,8.27-18.8c0-17.3-15.94-30.83-36.4-30.83-12.78,0-25,5.72-32.34,15a13.24,13.24,0,0,0-2.56,7.37,11.59,11.59,0,0,0,19.85,8.12c4.51-4.51,9.63-6.77,14.89-6.77,6.62,0,11.28,3.61,11.28,8.87,0,5-4.06,8.42-9.93,8.42H326a10.38,10.38,0,1,0,0,20.76H336c6,0,9.93,3.16,9.93,8.12,0,5.72-5.41,9.17-14.14,9.17a24.57,24.57,0,0,1-17.3-6.77,11.3,11.3,0,0,0-8.27-3.61,11.75,11.75,0,0,0-11.73,11.73,12.29,12.29,0,0,0,2.86,7.37c8.12,9.78,20.3,15,34.59,15,22.86,0,39.26-13.09,39.26-31.43A23.84,23.84,0,0,0,358.36,49.63Z"/>
   <path d="M445.29,102.88c7.37,0,12.93-5.72,12.93-13.39V61.37h36.25V89.49c0,7.67,5.56,13.39,12.93,13.39s12.93-5.72,12.93-13.39V13.09C520.34,5.41,514.93,0,507.41,0s-12.93,5.41-12.93,13.09v25H458.22V13.39C458.22,5.72,452.81,0,445.29,0s-12.93,5.72-12.93,13.39v76.1C432.36,97.16,437.92,102.88,445.29,102.88Z"/>
   <path d="M599.6,101.07h47.23a11.5,11.5,0,0,0,11.88-11.73c0-6.62-5-11.58-11.88-11.58H612.38V60.46h20.76a10.83,10.83,0,1,0,0-21.66H612.38V25.12H645A11.5,11.5,0,0,0,656.9,13.39c0-6.62-5-11.58-11.88-11.58H599.6a12.73,12.73,0,0,0-13.09,13.09V88A12.73,12.73,0,0,0,599.6,101.07Z"/>
</svg>
